<svg width="43" height="43" viewBox="0 0 43 43" fill="none" xmlns="http://www.w3.org/2000/svg">
<path d="M2.26562 32.1843C2.53023 29.0385 3.49337 26.1426 5.15506 23.4966C6.81674 20.8506 9.0288 18.7485 11.7912 17.1903L8.52783 11.5455C8.35143 11.2809 8.30732 11.0016 8.39552 10.7076C8.48372 10.4136 8.67483 10.1931 8.96883 10.0461C9.20403 9.89911 9.46862 9.86971 9.76262 9.95791C10.0566 10.0461 10.2918 10.2225 10.4682 10.4871L13.7316 16.1319C16.26 15.0735 18.906 14.5443 21.6696 14.5443C24.4332 14.5443 27.0792 15.0735 29.6076 16.1319L32.871 10.4871C33.0474 10.2225 33.2826 10.0461 33.5766 9.95791C33.8706 9.86971 34.1352 9.89911 34.3704 10.0461C34.6644 10.1931 34.8555 10.4136 34.9437 10.7076C35.0319 11.0016 34.9878 11.2809 34.8114 11.5455L31.548 17.1903C34.3116 18.7485 36.5237 20.8506 38.1842 23.4966C39.8447 26.1426 40.8078 29.0385 41.0736 32.1843H2.26562ZM12.8496 27.3333C13.467 27.3333 13.9892 27.1199 14.4161 26.693C14.8429 26.2661 15.0558 25.7445 15.0546 25.1283C15.0534 24.5121 14.84 23.9899 14.4143 23.5619C13.9886 23.1338 13.467 22.921 12.8496 22.9233C12.2322 22.9257 11.7101 23.1391 11.2832 23.5636C10.8563 23.9882 10.6434 24.5097 10.6446 25.1283C10.6458 25.7469 10.8592 26.269 11.285 26.6947C11.7107 27.1205 12.2322 27.3333 12.8496 27.3333ZM30.4896 27.3333C31.107 27.3333 31.6292 27.1199 32.0561 26.693C32.4829 26.2661 32.6958 25.7445 32.6946 25.1283C32.6934 24.5121 32.48 23.9899 32.0543 23.5619C31.6286 23.1338 31.107 22.921 30.4896 22.9233C29.8722 22.9257 29.3501 23.1391 28.9232 23.5636C28.4963 23.9882 28.2834 24.5097 28.2846 25.1283C28.2858 25.7469 28.4992 26.269 28.925 26.6947C29.3507 27.1205 29.8722 27.3333 30.4896 27.3333Z" fill="#121212"/>
</svg>
