<svg width="44" height="44" viewBox="0 0 44 44" fill="none" xmlns="http://www.w3.org/2000/svg">
<path d="M31.1921 36.5042C29.4281 38.2142 27.5021 37.9442 25.6481 37.1342C23.6861 36.3062 21.8861 36.2702 19.8161 37.1342C17.2241 38.2502 15.8561 37.9262 14.3081 36.5042C5.52405 27.4502 6.82005 13.6622 16.7921 13.1582C19.2221 13.2842 20.9141 14.4902 22.3361 14.5982C24.4601 14.1662 26.4941 12.9242 28.7621 13.0862C31.4801 13.3022 33.5321 14.3822 34.8821 16.3262C29.2661 19.6922 30.5981 27.0902 35.7461 29.1602C34.7201 31.8602 33.3881 34.5422 31.1741 36.5222L31.1921 36.5042ZM22.1561 13.0502C21.8861 9.03621 25.1441 5.72421 28.8881 5.40021C29.4101 10.0442 24.6761 13.5002 22.1561 13.0502Z" fill="#121212"/>
</svg>
