<svg width="50" height="51" viewBox="0 0 50 51" fill="none" xmlns="http://www.w3.org/2000/svg">
<path fill-rule="evenodd" clip-rule="evenodd" d="M4.70012 5.0083C4.28652 5.0083 3.88985 5.17327 3.59739 5.46692C3.30493 5.76058 3.14062 6.15886 3.14062 6.57414C3.14062 6.98943 3.30493 7.38771 3.59739 7.68136C3.88985 7.97501 4.28652 8.13998 4.70012 8.13998H6.25961V30.0618C6.25961 31.7229 6.91683 33.316 8.08668 34.4906C9.25652 35.6652 10.8432 36.3251 12.4976 36.3251H15.0136L12.5766 43.6595C12.4459 44.0538 12.4765 44.484 12.6618 44.8556C12.847 45.2271 13.1716 45.5096 13.5643 45.6408C13.9569 45.7721 14.3854 45.7413 14.7555 45.5553C15.1255 45.3694 15.4069 45.0434 15.5376 44.6491L16.2217 42.5885H33.7254L34.4116 44.6491C34.5536 45.0282 34.8363 45.3373 35.2005 45.5115C35.5646 45.6857 35.9818 45.7115 36.3645 45.5835C36.7471 45.4554 37.0655 45.1834 37.2527 44.8247C37.4399 44.4659 37.4814 44.0483 37.3684 43.6595L34.9356 36.3251H37.4495C39.1039 36.3251 40.6906 35.6652 41.8604 34.4906C43.0303 33.316 43.6875 31.7229 43.6875 30.0618V8.13998H45.247C45.6606 8.13998 46.0572 7.97501 46.3497 7.68136C46.6422 7.38771 46.8065 6.98943 46.8065 6.57414C46.8065 6.15886 46.6422 5.76058 46.3497 5.46692C46.0572 5.17327 45.6606 5.0083 45.247 5.0083H4.70012ZM18.2989 36.3251H31.6482L32.6878 39.4568H17.2592L18.2989 36.3251ZM35.1103 17.5455C35.2891 17.4434 35.446 17.3068 35.572 17.1436C35.698 16.9804 35.7906 16.7938 35.8445 16.5945C35.8984 16.3952 35.9125 16.1872 35.886 15.9824C35.8595 15.7776 35.7929 15.5802 35.69 15.4013C35.5872 15.2225 35.4501 15.0658 35.2868 14.9404C35.1234 14.815 34.9369 14.7232 34.7381 14.6704C34.5393 14.6176 34.332 14.6049 34.1282 14.6329C33.9244 14.6608 33.7282 14.729 33.5508 14.8334C30.7157 16.4812 28.2077 18.6399 26.1525 21.2012L22.9566 17.9943C22.6642 17.7011 22.2678 17.5364 21.8546 17.5364C21.4413 17.5364 21.0449 17.7011 20.7525 17.9943L14.5145 24.2577C14.3613 24.4011 14.2384 24.5739 14.1532 24.766C14.068 24.9581 14.0221 25.1654 14.0184 25.3757C14.0147 25.5859 14.0533 25.7948 14.1317 25.9897C14.2101 26.1847 14.3269 26.3618 14.475 26.5105C14.623 26.6592 14.7994 26.7764 14.9936 26.8552C15.1878 26.9339 15.3958 26.9726 15.6052 26.9689C15.8146 26.9652 16.0211 26.9192 16.2124 26.8336C16.4037 26.748 16.5759 26.6246 16.7186 26.4708L21.8546 21.3139L25.2168 24.692C25.3781 24.8539 25.5729 24.9784 25.7873 25.0566C26.0017 25.1348 26.2306 25.1648 26.4578 25.1444C26.6851 25.1241 26.9051 25.054 27.1024 24.9391C27.2997 24.8241 27.4695 24.667 27.5997 24.479C29.5679 21.6439 32.1317 19.2771 35.1103 17.5455Z" fill="#FD461E"/>
</svg>
