<svg width="36" height="37" viewBox="0 0 36 37" fill="none" xmlns="http://www.w3.org/2000/svg">
<g clip-path="url(#clip0_185_9959)">
<path d="M19.5955 38.0013C19.7089 38.1697 19.8658 38.3042 20.0495 38.3906C20.2332 38.477 20.4368 38.5121 20.6389 38.4922C20.8409 38.4723 21.0337 38.3981 21.197 38.2774C21.3603 38.1568 21.4879 37.9942 21.5662 37.8069L26.359 26.3641L16.5487 18.1828C16.3196 17.9917 16.1757 17.7174 16.1488 17.4202C16.1219 17.1231 16.2142 16.8274 16.4053 16.5983C16.5964 16.3691 16.8707 16.2253 17.1678 16.1984C17.465 16.1715 17.7606 16.2637 17.9898 16.4548L27.8 24.6361L38.196 17.8662C38.3658 17.7553 38.5025 17.6006 38.5916 17.4184C38.6807 17.2362 38.7189 17.0333 38.7021 16.8312C38.6853 16.6291 38.6142 16.4352 38.4963 16.2702C38.3784 16.1052 38.2181 15.9751 38.0323 15.8937C28.5639 11.7548 18.4584 9.26278 8.15122 8.52523C7.97318 8.51241 7.79464 8.54214 7.63036 8.61197C7.46608 8.6818 7.32077 8.78971 7.20644 8.9268C7.09212 9.06389 7.01205 9.22622 6.97286 9.40037C6.93368 9.57452 6.9365 9.7555 6.98109 9.92834C9.55734 19.9358 13.8234 29.4299 19.5955 38.0013Z" fill="#FD461E"/>
</g>
<defs>
<clipPath id="clip0_185_9959">
<rect width="36" height="36" fill="white" transform="translate(0 0.399902)"/>
</clipPath>
</defs>
</svg>
