<svg width="30" height="30" viewBox="0 0 30 30" fill="none" xmlns="http://www.w3.org/2000/svg">
<path fill-rule="evenodd" clip-rule="evenodd" d="M3.20312 15.1971C3.20312 8.73507 8.44112 3.49707 14.9031 3.49707C21.3651 3.49707 26.6031 8.73507 26.6031 15.1971C26.6031 21.6591 21.3651 26.8971 14.9031 26.8971C8.44112 26.8971 3.20312 21.6591 3.20312 15.1971ZM20.0319 14.0175C20.2421 14.1345 20.4173 14.3055 20.5392 14.5129C20.6611 14.7203 20.7254 14.9565 20.7254 15.1971C20.7254 15.4376 20.6611 15.6738 20.5392 15.8812C20.4173 16.0886 20.2421 16.2597 20.0319 16.3767L13.3083 20.1123C13.1029 20.2263 12.8712 20.2848 12.6362 20.2818C12.4013 20.2789 12.1712 20.2147 11.9686 20.0955C11.7661 19.9764 11.5982 19.8064 11.4814 19.6025C11.3647 19.3985 11.3033 19.1677 11.3031 18.9327V11.4615C11.3031 10.4331 12.4083 9.78147 13.3083 10.2819L20.0319 14.0175Z" fill="#FD461E"/>
</svg>
