<svg width="30" height="30" viewBox="0 0 30 30" fill="none" xmlns="http://www.w3.org/2000/svg">
<path d="M7.18232 6.38537C7.64546 6.25979 8.12326 6.19644 8.60312 6.19697H21.2031C21.6951 6.19697 22.1703 6.26297 22.6227 6.38537C22.3235 5.78775 21.8639 5.28521 21.2953 4.93403C20.7266 4.58284 20.0715 4.39688 19.4031 4.39697H10.4031C9.73459 4.39666 9.07917 4.58252 8.5103 4.93371C7.94144 5.2849 7.48161 5.78757 7.18232 6.38537ZM3.20312 15.197C3.20313 14.2422 3.58241 13.3265 4.25754 12.6514C4.93267 11.9763 5.84835 11.597 6.80312 11.597H23.0031C23.9579 11.597 24.8736 11.9763 25.5487 12.6514C26.2238 13.3265 26.6031 14.2422 26.6031 15.197V22.397C26.6031 23.3518 26.2238 24.2674 25.5487 24.9426C24.8736 25.6177 23.9579 25.997 23.0031 25.997H6.80312C5.84835 25.997 4.93267 25.6177 4.25754 24.9426C3.58241 24.2674 3.20313 23.3518 3.20312 22.397V15.197ZM6.80312 9.79697C6.31112 9.79697 5.83592 9.86297 5.38232 9.98537C5.68161 9.38757 6.14144 8.8849 6.7103 8.53371C7.27917 8.18251 7.93459 7.99666 8.60312 7.99697H21.2031C21.8715 7.99688 22.5266 8.18284 23.0953 8.53403C23.6639 8.88521 24.1235 9.38775 24.4227 9.98537C23.96 9.8599 23.4826 9.79654 23.0031 9.79697H6.80312Z" fill="#FD461E"/>
</svg>
