<svg width="36" height="37" viewBox="0 0 36 37" fill="none" xmlns="http://www.w3.org/2000/svg">
<path d="M18.0028 1.52393C15.2796 1.52331 12.6322 2.42097 10.471 4.07776C8.30983 5.73455 6.75547 8.05796 6.04886 10.6879C5.34225 13.3178 5.52286 16.1074 6.56268 18.6242C7.60251 21.1411 9.44349 23.2446 11.8003 24.6089C12.8293 25.2059 13.4728 26.1209 13.5013 27.0434C13.5092 27.2905 13.5982 27.5281 13.7546 27.7196C13.9111 27.911 14.1262 28.0455 14.3668 28.1024C14.8948 28.2269 15.4318 28.3244 15.9778 28.3949C16.4623 28.4564 16.8778 28.0679 16.8778 27.5789V20.5874C16.4038 20.5353 15.9341 20.4496 15.4723 20.3309C15.3292 20.2941 15.1947 20.2294 15.0766 20.1406C14.9585 20.0518 14.859 19.9406 14.7839 19.8134C14.7087 19.6862 14.6594 19.5454 14.6386 19.3991C14.6179 19.2527 14.6262 19.1038 14.663 18.9607C14.6999 18.8176 14.7645 18.6831 14.8533 18.565C14.9421 18.4469 15.0533 18.3474 15.1806 18.2723C15.3078 18.1971 15.4486 18.1478 15.5949 18.127C15.7412 18.1063 15.8902 18.1146 16.0333 18.1514C17.3252 18.4844 18.6804 18.4844 19.9723 18.1514C20.1168 18.1098 20.2683 18.0975 20.4176 18.1154C20.567 18.1333 20.7112 18.181 20.8419 18.2556C20.9725 18.3303 21.0868 18.4303 21.1781 18.5499C21.2693 18.6695 21.3357 18.8062 21.3732 18.9518C21.4107 19.0975 21.4187 19.2492 21.3965 19.398C21.3744 19.5468 21.3226 19.6897 21.2443 19.8181C21.166 19.9465 21.0627 20.058 20.9406 20.1458C20.8185 20.2336 20.68 20.2961 20.5333 20.3294C20.0715 20.4486 19.6018 20.5348 19.1278 20.5874V27.5774C19.1278 28.0679 19.5433 28.4564 20.0278 28.3949C20.5738 28.3244 21.1108 28.2269 21.6388 28.1024C21.8794 28.0455 22.0945 27.911 22.2509 27.7196C22.4074 27.5281 22.4964 27.2905 22.5043 27.0434C22.5343 26.1209 23.1763 25.2059 24.2053 24.6089C26.5621 23.2446 28.4031 21.1411 29.4429 18.6242C30.4827 16.1074 30.6633 13.3178 29.9567 10.6879C29.2501 8.05796 27.6957 5.73455 25.5345 4.07776C23.3733 2.42097 20.726 1.52331 18.0028 1.52393Z" fill="#FD461E"/>
<path fill-rule="evenodd" clip-rule="evenodd" d="M13.5195 30.2485C13.5471 30.1033 13.603 29.9649 13.684 29.8413C13.765 29.7178 13.8696 29.6113 13.9918 29.5282C14.1139 29.445 14.2513 29.3867 14.396 29.3567C14.5407 29.3266 14.6899 29.3254 14.835 29.353C16.9264 29.7498 19.0737 29.7498 21.165 29.353C21.312 29.3206 21.4639 29.3181 21.6119 29.3455C21.7598 29.3729 21.9008 29.4297 22.0264 29.5126C22.152 29.5954 22.2597 29.7026 22.3431 29.8279C22.4266 29.9531 22.484 30.0938 22.5121 30.2416C22.5402 30.3894 22.5384 30.5414 22.5067 30.6884C22.475 30.8355 22.4142 30.9748 22.3277 31.098C22.2413 31.2211 22.131 31.3257 22.0035 31.4055C21.8759 31.4853 21.7336 31.5386 21.585 31.5625C19.2162 32.012 16.7839 32.012 14.415 31.5625C14.1221 31.5068 13.8633 31.3372 13.6954 31.0908C13.5275 30.8444 13.4642 30.5414 13.5195 30.2485ZM14.631 33.9145C14.6464 33.7675 14.6905 33.625 14.761 33.4951C14.8314 33.3652 14.9267 33.2505 15.0415 33.1575C15.1563 33.0644 15.2883 32.9949 15.4299 32.9528C15.5716 32.9108 15.7201 32.8971 15.867 32.9125C17.2852 33.0607 18.7149 33.0607 20.133 32.9125C20.4298 32.8814 20.7268 32.9696 20.9586 33.1575C21.1904 33.3454 21.338 33.6177 21.369 33.9145C21.4001 34.2112 21.3119 34.5082 21.124 34.74C20.9361 34.9718 20.6638 35.1194 20.367 35.1505C18.7933 35.3152 17.2067 35.3152 15.633 35.1505C15.4861 35.1351 15.3436 35.091 15.2137 35.0205C15.0838 34.9501 14.9691 34.8548 14.876 34.74C14.783 34.6252 14.7135 34.4933 14.6714 34.3516C14.6294 34.21 14.6157 34.0614 14.631 33.9145Z" fill="#FD461E"/>
</svg>
