<svg width="268" height="69" viewBox="0 0 268 69" fill="none" xmlns="http://www.w3.org/2000/svg">
<g clip-path="url(#clip0_232_484)">
<path d="M21.1579 48.57L28.2105 55.6226L21.1579 62.7458L0 41.5174L7.05263 34.4648L14.1053 41.5174L21.1579 34.4648L28.2105 41.5174L21.1579 48.57Z" fill="#575757"/>
<path d="M56.492 41.5174L35.2636 62.7458L28.2109 55.6226L35.2636 48.57L28.2109 41.5174L35.2636 34.4648L42.3162 41.5174L49.3688 34.4648L56.492 41.5174Z" fill="#A8A8A8"/>
<path d="M56.492 27.4121L49.3688 34.4647L42.3162 27.4121L35.2636 34.4647L28.2109 27.4121L35.2636 20.3595L28.2109 13.3068L35.2636 6.25421L56.492 27.4121Z" fill="#575757"/>
<path d="M21.1579 20.3595L28.2105 27.4121L21.1579 34.4647L14.1053 27.4121L7.05263 34.4647L0 27.4121L21.1579 6.25421L28.2105 13.3068L21.1579 20.3595Z" fill="#A8A8A8"/>
</g>
<path d="M94.6946 17.7624V25.6976H93.7523C93.7523 25.4661 93.7027 25.2347 93.6035 25.0032C93.5043 24.7718 93.3721 24.6561 93.2068 24.6561H77.1381V33.4344H90.1319C90.2972 33.4344 90.4295 33.3186 90.5287 33.0872C90.6278 32.8558 90.6774 32.6243 90.6774 32.3929H91.6197V40.328H90.6774C90.6774 40.0966 90.6278 39.8652 90.5287 39.6337C90.4295 39.4023 90.2972 39.2866 90.1319 39.2866H77.1381V54.5122C77.1381 54.6775 77.2538 54.8097 77.4852 54.9089C77.7497 55.0081 78.0142 55.0577 78.2787 55.0577V56H69.5501V55.0577C69.8146 55.0577 70.0625 55.0081 70.294 54.9089C70.5585 54.8097 70.6907 54.6775 70.6907 54.5122V20.2917C70.6907 20.1264 70.5585 19.9942 70.294 19.895C70.0625 19.7958 69.8311 19.7462 69.5996 19.7462V18.8039H93.2068C93.3721 18.8039 93.5043 18.6882 93.6035 18.4567C93.7027 18.2253 93.7523 17.9938 93.7523 17.7624H94.6946ZM113.219 31.6985V39.6833H112.277C112.277 39.4519 112.228 39.1874 112.128 38.8898C112.029 38.5922 111.897 38.4269 111.732 38.3938H111.384C110.359 38.3938 109.318 38.6914 108.26 39.2866C107.235 39.8486 106.375 40.6091 105.681 41.5679C105.02 42.4937 104.689 43.4856 104.689 44.5436V54.5122C104.689 54.6775 104.805 54.8097 105.036 54.9089C105.301 55.0081 105.549 55.0577 105.78 55.0577V56H97.4483V55.0577C97.6797 55.0577 97.9112 55.0081 98.1426 54.9089C98.4071 54.8097 98.5394 54.6775 98.5394 54.5122V34.6742C98.5394 34.5089 98.4071 34.3767 98.1426 34.2775C97.9112 34.1783 97.6797 34.1287 97.4483 34.1287V33.1864H104.689V35.319C105.582 34.4924 106.656 33.8311 107.913 33.3352C109.169 32.8392 110.426 32.5913 111.682 32.5913H111.732H111.781C111.947 32.5913 112.062 32.4921 112.128 32.2937C112.228 32.0953 112.277 31.8969 112.277 31.6985H113.219ZM128.074 56.5951C125.627 56.5951 123.462 56.0827 121.577 55.0577C119.725 53.9997 118.271 52.5614 117.213 50.743C116.188 48.9245 115.675 46.8746 115.675 44.5932C115.675 42.3449 116.188 40.295 117.213 38.4434C118.271 36.5919 119.742 35.1371 121.627 34.0791C123.511 32.988 125.66 32.4425 128.074 32.4425C130.388 32.4425 132.488 32.9715 134.372 34.0295C136.257 35.0545 137.745 36.4927 138.836 38.3442C139.927 40.1627 140.473 42.2457 140.473 44.5932C140.473 46.6431 139.977 48.5938 138.985 50.4454C138.026 52.2639 136.604 53.7517 134.72 54.9089C132.835 56.0331 130.62 56.5951 128.074 56.5951ZM128.074 50.8917C130.025 50.8917 131.595 50.3297 132.785 49.2055C134.009 48.0483 134.62 46.5605 134.62 44.742C134.62 42.8574 134.009 41.3034 132.785 40.0801C131.595 38.8567 130.025 38.2451 128.074 38.2451C126.255 38.2451 124.734 38.8567 123.511 40.0801C122.288 41.2703 121.676 42.7747 121.676 44.5932C121.676 46.5109 122.288 48.0483 123.511 49.2055C124.734 50.3297 126.255 50.8917 128.074 50.8917ZM168.577 34.1287H168.23C167.8 34.1287 167.519 34.2113 167.387 34.3767L159.501 44.6924L167.189 54.8097C167.321 54.975 167.718 55.0577 168.379 55.0577V56H159.65V55.0577C160.047 55.0577 160.245 54.975 160.245 54.8097C160.245 54.7436 160.179 54.6113 160.047 54.413L155.98 49.0567L151.814 54.4626L151.715 54.6609C151.715 54.7932 151.798 54.9089 151.963 55.0081C152.128 55.0742 152.36 55.1073 152.657 55.1073V56H143.433V55.0577H143.681C144.144 55.0577 144.458 54.975 144.623 54.8097L152.36 44.5932L144.573 34.3767C144.441 34.2113 144.044 34.1287 143.383 34.1287V33.1864H152.062V34.0791C151.665 34.0791 151.467 34.1618 151.467 34.3271C151.467 34.4263 151.517 34.5585 151.616 34.7238L155.831 40.2784L160.146 34.7238L160.245 34.5254C160.245 34.3932 160.146 34.294 159.948 34.2279C159.783 34.1287 159.551 34.0791 159.253 34.0791V33.1864H168.577V34.1287Z" fill="#575757"/>
<defs>
<clipPath id="clip0_232_484">
<rect width="56.4916" height="56.4916" fill="white" transform="translate(0 6.25421)"/>
</clipPath>
</defs>
</svg>
