<svg width="268" height="76" viewBox="0 0 268 76" fill="none" xmlns="http://www.w3.org/2000/svg">
<g clip-path="url(#clip0_185_9837)">
<path d="M36.1832 22.2862C34.6231 21.9908 33.0031 21.8136 31.443 21.8136C28.4429 21.8136 25.4427 22.3453 22.5626 23.4087H22.5026C22.0826 23.5269 21.7226 23.7041 21.3625 23.8813L21.2425 23.9404C20.8825 24.1177 20.4625 24.2949 20.1025 24.4721L19.9825 24.5312C19.6225 24.7085 19.2624 24.9448 18.9024 25.122C18.8424 25.1811 18.7824 25.1811 18.7224 25.2402C18.4224 25.4174 18.0624 25.5947 17.7624 25.831C17.7024 25.831 17.7024 25.8901 17.5824 25.9491C16.2623 26.8353 15.0022 27.8397 13.8022 29.0213C13.8022 29.0213 13.8022 29.0213 13.7422 29.0804C13.8022 28.9622 13.8022 28.844 13.8622 28.785V28.7259C14.1022 28.2532 14.2822 27.7806 14.5822 27.367C16.0223 24.7085 18.0024 22.3453 20.4025 20.4547C20.5225 20.3366 20.7025 20.2184 20.8225 20.1593C20.9425 20.1002 21.0025 19.9821 21.1225 19.923C21.1825 19.8639 21.3025 19.8048 21.3625 19.7458C21.5425 19.6276 21.6626 19.5095 21.8426 19.3913C22.0826 19.2141 22.3226 19.0959 22.5626 18.9187C22.8626 18.6823 23.1026 18.5051 23.4026 18.3869C26.1028 16.8509 29.1629 15.8465 32.403 15.492C34.0831 17.5598 35.4032 19.8639 36.1832 22.2862Z" fill="#A8A8A8"/>
<path d="M39.2394 47.9861C39.2994 47.4544 39.2994 46.9226 39.2994 46.3909C39.2994 43.4369 38.7594 40.483 37.6793 37.6471V37.5881C37.5593 37.2336 37.3793 36.8791 37.2593 36.5837C37.1993 36.4065 37.0793 36.2292 37.0193 36.1111C36.9593 35.9929 36.8993 35.8157 36.8393 35.6384L36.7793 35.5203C36.7193 35.4612 36.7193 35.4021 36.6593 35.343V35.284C36.5993 35.2249 36.5993 35.1067 36.5393 35.0476C36.4793 34.9295 36.4193 34.8113 36.3593 34.6932L36.2993 34.6341C36.2393 34.4568 36.1192 34.3387 36.0592 34.1614C35.9392 33.9842 35.8192 33.7479 35.6992 33.5706C35.5792 33.3934 35.4592 33.2162 35.3392 32.9799C35.2792 32.9208 35.2192 32.8026 35.1592 32.6845L35.0992 32.6254L34.7992 32.2709C34.6792 32.1527 34.6192 31.9755 34.4992 31.8573C34.3792 31.7392 34.3192 31.621 34.1992 31.5029C34.1392 31.4438 34.0792 31.3847 34.0792 31.3256C33.9591 31.2075 33.8991 31.0893 33.7791 30.9711L33.6591 30.7939C33.5391 30.6757 33.4191 30.4985 33.2991 30.3803C32.8791 29.9077 32.4591 29.4942 32.0391 29.0215C32.1591 29.0806 32.2791 29.1397 32.3991 29.1988C36.7793 31.1484 40.4995 34.3978 42.8996 38.4743C44.4596 41.1328 45.4797 44.1459 45.8397 47.3362C43.7396 48.9904 41.3395 50.2311 38.8794 51.0582C38.8794 50.9991 38.8794 50.881 38.9394 50.8219C38.9994 50.6447 38.9994 50.4674 39.0594 50.2902C39.1194 49.7585 39.2394 49.2858 39.2394 48.7541C39.2394 48.5769 39.2394 48.4587 39.2994 48.3406C39.2394 48.2224 39.2394 48.1042 39.2394 47.9861Z" fill="#A8A8A8"/>
<path d="M32.0426 46.9217C32.0426 46.9808 31.9826 47.0399 31.9826 47.0399C31.9226 47.158 31.9226 47.2171 31.8626 47.2762C29.8825 51.589 26.5823 55.2519 22.4422 57.6151C19.742 59.1512 16.6819 60.1555 13.4417 60.5691C11.7617 58.4422 10.4416 56.1381 9.60156 53.7159C11.1616 54.0113 12.7817 54.1885 14.3418 54.1885C17.3419 54.1885 20.3421 53.6568 23.2222 52.5933C23.5822 52.4752 23.9422 52.2979 24.3022 52.1207L24.3622 52.0616C24.5422 52.0025 24.7223 51.8844 24.9023 51.8253C25.0223 51.7662 25.1423 51.7071 25.2623 51.6481H25.3223L25.3823 51.589H25.4423C25.5023 51.5299 25.6223 51.5299 25.6823 51.4708H25.7423H25.8023C25.9223 51.4117 25.9823 51.3527 26.0423 51.3527C26.1023 51.3527 26.1623 51.2936 26.2223 51.2936H26.2823C26.4023 51.2345 26.5823 51.1163 26.7023 51.0573L26.7623 50.9982C26.7623 50.9982 26.8224 50.9391 26.9424 50.88C27.0624 50.8209 27.1824 50.7619 27.2424 50.7028L27.3024 50.6437C27.3624 50.6437 27.4224 50.5846 27.4824 50.5256C27.6624 50.4074 27.7824 50.3483 27.9624 50.2302C28.0824 50.112 28.2624 50.0529 28.4424 49.9348C28.5624 49.8166 28.6824 49.7575 28.8024 49.6394C29.0425 49.4621 29.2225 49.344 29.4625 49.1667L29.5225 49.1076C29.6425 49.0486 29.7625 48.9304 29.8825 48.8713L29.9425 48.8122C30.0625 48.6941 30.2425 48.5759 30.3625 48.4578C31.0825 47.8079 31.5626 47.3943 32.0426 46.9217Z" fill="#A8A8A8"/>
<path d="M13.8631 46.9809C13.7431 46.9218 13.6831 46.9218 13.5631 46.8628L13.5031 46.8037C9.78295 45.1494 6.5428 42.5499 4.20269 39.3006C3.78267 38.7098 3.36265 38.119 3.00264 37.5282C1.44256 34.8696 0.422517 31.8565 0.0625 28.6662C2.2226 27.012 4.56271 25.7122 7.02282 24.9442C6.72281 26.4803 6.5428 28.0754 6.5428 29.6115C6.5428 32.5655 7.08282 35.5195 8.16287 38.3553C8.8229 40.0686 9.66294 41.6637 10.683 43.1998C11.583 44.4996 12.6031 45.7993 13.8631 46.9809C13.8031 46.9809 13.8031 46.9809 13.8631 46.9809Z" fill="#A8A8A8"/>
<path d="M21.059 17.6187C17.2188 20.1592 14.1587 23.763 12.2386 27.9577C11.4586 29.6119 10.9186 31.3252 10.5585 33.1567C10.2585 34.6928 10.0785 36.347 10.0785 37.9421V38.0012C10.0185 37.8831 9.95851 37.7649 9.89851 37.6467C8.87846 35.0472 8.39844 32.3296 8.39844 29.5528C8.39844 27.6032 8.63845 25.6536 9.17847 23.763C9.95851 20.809 11.3986 17.9732 13.4387 15.4328C16.1388 15.7282 18.7189 16.4962 21.059 17.6187Z" fill="#575757"/>
<path d="M45.8426 28.6661C45.5426 31.3247 44.7626 33.8651 43.6225 36.1692C41.0424 32.3881 37.4422 29.375 33.182 27.4845C32.402 27.13 31.562 26.8346 30.7219 26.5392C30.6019 26.4801 30.4819 26.4801 30.3619 26.4211C30.2419 26.362 30.1219 26.362 29.9419 26.3029H29.8819C29.6419 26.2438 29.4619 26.1847 29.2818 26.1257C29.1018 26.0666 28.8618 26.0075 28.6218 25.9484C28.3818 25.8894 28.2018 25.8303 27.9618 25.8303C27.8418 25.8303 27.7218 25.7712 27.6018 25.7712H27.5418C27.4818 25.7712 27.4818 25.7712 27.4218 25.7712C27.2418 25.7121 27.0617 25.7121 26.8817 25.7121H26.8217C26.6417 25.7121 26.5217 25.653 26.3417 25.653C26.2217 25.653 26.1617 25.653 26.1017 25.653C25.9817 25.653 25.8017 25.594 25.6217 25.594H25.5617C25.3817 25.594 25.2017 25.5349 25.0217 25.5349C24.4216 25.4758 23.7616 25.4758 23.1616 25.4758H23.1016C23.2216 25.4167 23.3416 25.3576 23.4616 25.2986C26.1017 24.2942 28.8618 23.8216 31.682 23.8216C33.662 23.8216 35.6421 24.0579 37.5622 24.5896C40.3824 25.2395 43.2625 26.6574 45.8426 28.6661Z" fill="#575757"/>
<path d="M37.4418 46.391C37.4418 48.3406 37.2018 50.2902 36.6618 52.1808C35.8818 55.1348 34.4417 58.0297 32.4016 60.511C29.7015 60.2156 27.1214 59.4476 24.7812 58.3251C28.6214 55.7847 31.6816 52.2399 33.6017 48.0452C33.7817 47.6907 33.9617 47.2772 34.0817 46.9227C34.1417 46.7455 34.2017 46.5092 34.3217 46.3319C34.3817 46.2138 34.4417 46.0956 34.4417 45.9184V45.8593C34.5017 45.7411 34.5017 45.623 34.5617 45.5048V45.4457C34.6217 45.2685 34.6817 45.0912 34.7417 44.914C34.8017 44.7368 34.8617 44.5004 34.9217 44.3232C34.9217 44.3232 34.9217 44.205 34.9817 44.146C35.0417 44.0278 35.0417 43.9096 35.1017 43.7915V43.7324C35.1017 43.6733 35.1017 43.6143 35.1617 43.4961C35.2217 43.3189 35.2217 43.1416 35.2817 42.9644C35.3417 42.7871 35.3417 42.6099 35.4017 42.3736C35.4617 42.1963 35.4617 42.0191 35.4617 41.9009C35.5217 41.6055 35.5217 41.3692 35.5817 41.1329V41.0738C35.5817 40.9557 35.6418 40.7784 35.6418 40.6603V40.6012C35.6418 40.4239 35.7018 40.2467 35.7018 40.0695C35.7618 39.4787 35.7618 38.8288 35.7618 38.238V38.1789C35.8218 38.2971 35.8818 38.4152 35.9418 38.5334C36.9618 40.8966 37.4418 43.6733 37.4418 46.391Z" fill="#575757"/>
<path d="M22.9811 50.6448C22.861 50.7039 22.741 50.763 22.621 50.8221C19.9809 51.8264 17.2208 52.2991 14.4007 52.2991C12.4206 52.2991 10.4405 52.0627 8.52039 51.531C5.46025 50.763 2.58012 49.3451 0 47.3364C0.300014 44.6778 1.08005 42.1374 2.2201 39.8333C4.80022 43.6143 8.46039 46.6274 12.6606 48.518C14.3407 49.286 16.0807 49.8177 17.9408 50.1722C19.5609 50.5267 21.241 50.7039 22.9811 50.6448C22.9211 50.7039 22.9211 50.6448 22.9811 50.6448Z" fill="#575757"/>
</g>
<path d="M65.7209 20.3828H73.9786L83.8104 53.2684H78.3133L75.3105 43.2187H64.6796L61.8221 53.2684H56.1797L65.7209 20.3828ZM74.1724 39.0051L69.7408 22.8771L65.7451 39.0051H74.1724ZM86.5643 18.4213H91.577V49.2001L93.0058 50.2172V53.2684H91.6255L91.577 53.22V53.2684C89.9788 53.2684 88.7437 52.9455 87.872 52.2998C87.0002 51.654 86.5643 50.5885 86.5643 49.1032V18.4213ZM101.45 24.3301C100.998 24.3301 100.571 24.2493 100.167 24.0879C99.7795 23.9265 99.4325 23.7085 99.1257 23.4341C98.8351 23.1596 98.601 22.8448 98.4234 22.4896C98.2459 22.1183 98.1571 21.7228 98.1571 21.303C98.1571 20.8671 98.2459 20.4635 98.4234 20.0922C98.601 19.7209 98.8351 19.398 99.1257 19.1236C99.4325 18.8491 99.7795 18.6392 100.167 18.494C100.571 18.3325 100.998 18.2518 101.45 18.2518C101.903 18.2518 102.33 18.3325 102.734 18.494C103.138 18.6392 103.485 18.8491 103.775 19.1236C104.082 19.398 104.324 19.7209 104.502 20.0922C104.679 20.4635 104.768 20.8671 104.768 21.303C104.768 21.7228 104.679 22.1183 104.502 22.4896C104.324 22.8448 104.082 23.1596 103.775 23.4341C103.485 23.7085 103.138 23.9265 102.734 24.0879C102.33 24.2493 101.903 24.3301 101.45 24.3301ZM98.6656 28.5195H103.703V49.2001L105.131 50.2172V53.2684H103.751L103.703 53.22V53.2684C102.104 53.2684 100.861 52.9455 99.9733 52.2998C99.1015 51.654 98.6656 50.5885 98.6656 49.1032V28.5195ZM112.268 32.273H109.096C109.08 32.0954 109.064 31.9017 109.048 31.6918C109.031 31.5142 109.015 31.3043 108.999 31.0622C108.999 30.82 108.999 30.5536 108.999 30.263C108.999 29.9724 109.007 29.7061 109.023 29.4639C109.04 29.2056 109.064 28.8908 109.096 28.5195H112.268V24.6691L115.053 21.521H117.208V28.5195H124.062C124.094 28.6809 124.118 28.8746 124.134 29.1007C124.167 29.3267 124.183 29.5446 124.183 29.7545C124.183 30.1258 124.142 30.4648 124.062 30.7716C123.997 31.0783 123.924 31.3447 123.844 31.5707C123.747 31.829 123.634 32.0631 123.505 32.273H117.208V46.3184C117.208 47.4969 117.402 48.3525 117.79 48.8853C118.193 49.4181 118.831 49.6844 119.703 49.6844C120.074 49.6844 120.461 49.6441 120.865 49.5634C121.285 49.4665 121.68 49.3535 122.052 49.2243C122.471 49.079 122.899 48.9176 123.335 48.74C123.658 49.1597 123.908 49.5714 124.086 49.975C124.28 50.3786 124.417 50.7419 124.498 51.0648C124.594 51.4361 124.651 51.7832 124.667 52.1061C124.215 52.4128 123.706 52.6872 123.141 52.9294C122.641 53.1393 122.044 53.3249 121.349 53.4864C120.655 53.664 119.856 53.7528 118.952 53.7528C117.693 53.7528 116.635 53.5913 115.78 53.2684C114.94 52.9617 114.254 52.5016 113.721 51.8881C113.205 51.2585 112.833 50.4836 112.607 49.5634C112.381 48.627 112.268 47.5534 112.268 46.3426V32.273ZM129.14 18.3971H134.347V26.5337L134.105 30.2388H134.25C134.363 30.1419 134.629 29.9644 135.049 29.7061C135.485 29.4316 136.018 29.1572 136.647 28.8827C137.293 28.6083 138.011 28.3661 138.803 28.1562C139.61 27.9463 140.441 27.8414 141.297 27.8414C142.653 27.8414 143.848 28.0432 144.881 28.4468C145.93 28.8504 146.81 29.4316 147.52 30.1904C148.231 30.933 148.763 31.829 149.119 32.8784C149.49 33.9278 149.676 35.1063 149.676 36.4139V53.2684H144.469V36.9225C144.469 35.1628 144.114 33.8712 143.404 33.0479C142.709 32.2084 141.555 31.7887 139.941 31.7887C139.166 31.7887 138.439 31.8613 137.761 32.0066C137.099 32.1358 136.51 32.2891 135.993 32.4667C135.396 32.6604 134.847 32.8865 134.347 33.1448V53.2684H129.14V18.3971ZM154.996 41.1361C154.996 38.8114 155.279 36.8095 155.844 35.1305C156.409 33.4515 157.2 32.0712 158.217 30.9895C159.234 29.9079 160.445 29.1168 161.85 28.6163C163.27 28.0997 164.828 27.8414 166.523 27.8414C168.089 27.8414 169.486 28.1078 170.713 28.6405C171.956 29.1572 173.005 29.8917 173.861 30.8442C174.716 31.7967 175.37 32.9349 175.822 34.2587C176.274 35.5825 176.5 37.0436 176.5 38.6418C176.5 39.1907 176.476 39.6993 176.428 40.1675C176.379 40.6356 176.323 41.0392 176.258 41.3783C176.194 41.7819 176.121 42.1451 176.04 42.468L160.154 42.3954C160.171 43.8322 160.324 45.0268 160.615 45.9794C160.905 46.9157 161.333 47.6583 161.898 48.2072C162.479 48.7561 163.206 49.1436 164.077 49.3696C164.949 49.5795 165.982 49.6844 167.177 49.6844C168.194 49.6844 169.106 49.6199 169.914 49.4907C170.721 49.3616 171.407 49.2082 171.972 49.0306C172.618 48.8369 173.199 48.6108 173.716 48.3525C173.958 48.9176 174.143 49.4423 174.272 49.9266C174.418 50.4109 174.523 50.8307 174.587 51.1858C174.652 51.6056 174.7 51.9769 174.733 52.2998C174.2 52.5742 173.554 52.8164 172.795 53.0263C172.15 53.2039 171.358 53.3653 170.422 53.5106C169.486 53.672 168.404 53.7528 167.177 53.7528C165.24 53.7528 163.512 53.5348 161.995 53.0989C160.493 52.663 159.218 51.9527 158.169 50.9679C157.135 49.967 156.344 48.6674 155.796 47.0691C155.263 45.4547 154.996 43.477 154.996 41.1361ZM171.318 38.8598V38.0364C171.318 37.0194 171.189 36.1234 170.931 35.3484C170.688 34.5574 170.349 33.8955 169.914 33.3627C169.478 32.8299 168.961 32.4263 168.364 32.1519C167.766 31.8774 167.121 31.7402 166.426 31.7402C165.409 31.7402 164.513 31.8774 163.738 32.1519C162.964 32.4102 162.31 32.8299 161.777 33.4111C161.26 33.9762 160.873 34.7107 160.615 35.6148C160.356 36.5189 160.227 37.6005 160.227 38.8598H171.318ZM180.15 30.9895V28.2531H184.606L186.689 30.3599L187.342 29.9724C187.423 29.8917 187.657 29.7383 188.045 29.5123C188.448 29.2702 188.949 29.028 189.546 28.7858C190.143 28.5275 190.813 28.3015 191.556 28.1078C192.315 27.9141 193.082 27.8172 193.857 27.8172C195.293 27.8172 196.472 28.0271 197.392 28.4468C198.329 28.8666 199.144 29.472 199.838 30.263C200.096 30.0532 200.476 29.811 200.976 29.5365C201.477 29.2459 202.05 28.9715 202.696 28.7132C203.357 28.4549 204.068 28.245 204.827 28.0836C205.585 27.906 206.352 27.8172 207.127 27.8172C208.483 27.8172 209.718 28.019 210.832 28.4226C211.962 28.8262 212.923 29.4074 213.714 30.1662C214.521 30.9088 215.143 31.8048 215.579 32.8542C216.031 33.9035 216.257 35.0821 216.257 36.3897V53.2684H211.05V36.8983C211.05 35.1547 210.582 33.8632 209.646 33.0237C208.709 32.1842 207.434 31.7644 205.819 31.7644C204.867 31.7644 203.971 31.8452 203.131 32.0066C202.308 32.1519 201.695 32.3133 201.291 32.4909C201.517 33.0075 201.695 33.5564 201.824 34.1376C201.953 34.7188 202.017 35.3081 202.017 35.9054V53.2684H196.811V36.4139C196.811 34.848 196.488 33.6856 195.842 32.9268C195.197 32.1519 194.091 31.7644 192.525 31.7644C191.782 31.7644 191.088 31.8371 190.442 31.9824C189.796 32.1115 189.239 32.2649 188.771 32.4425C188.222 32.6362 187.714 32.8542 187.246 33.0963V53.2684H182.063V32.951L180.15 30.9895ZM221.577 41.1361C221.577 38.8114 221.86 36.8095 222.425 35.1305C222.99 33.4515 223.781 32.0712 224.798 30.9895C225.815 29.9079 227.026 29.1168 228.431 28.6163C229.851 28.0997 231.409 27.8414 233.104 27.8414C234.67 27.8414 236.067 28.1078 237.294 28.6405C238.537 29.1572 239.586 29.8917 240.442 30.8442C241.297 31.7967 241.951 32.9349 242.403 34.2587C242.855 35.5825 243.081 37.0436 243.081 38.6418C243.081 39.1907 243.057 39.6993 243.009 40.1675C242.96 40.6356 242.904 41.0392 242.839 41.3783C242.775 41.7819 242.702 42.1451 242.621 42.468L226.735 42.3954C226.752 43.8322 226.905 45.0268 227.196 45.9794C227.486 46.9157 227.914 47.6583 228.479 48.2072C229.06 48.7561 229.787 49.1436 230.658 49.3696C231.53 49.5795 232.564 49.6844 233.758 49.6844C234.775 49.6844 235.687 49.6199 236.495 49.4907C237.302 49.3616 237.988 49.2082 238.553 49.0306C239.199 48.8369 239.78 48.6108 240.297 48.3525C240.539 48.9176 240.724 49.4423 240.854 49.9266C240.999 50.4109 241.104 50.8307 241.168 51.1858C241.233 51.6056 241.281 51.9769 241.314 52.2998C240.781 52.5742 240.135 52.8164 239.376 53.0263C238.731 53.2039 237.94 53.3653 237.003 53.5106C236.067 53.672 234.985 53.7528 233.758 53.7528C231.821 53.7528 230.093 53.5348 228.576 53.0989C227.074 52.663 225.799 51.9527 224.75 50.9679C223.717 49.967 222.925 48.6674 222.377 47.0691C221.844 45.4547 221.577 43.477 221.577 41.1361ZM237.899 38.8598V38.0364C237.899 37.0194 237.77 36.1234 237.512 35.3484C237.27 34.5574 236.93 33.8955 236.495 33.3627C236.059 32.8299 235.542 32.4263 234.945 32.1519C234.347 31.8774 233.702 31.7402 233.007 31.7402C231.99 31.7402 231.094 31.8774 230.319 32.1519C229.545 32.4102 228.891 32.8299 228.358 33.4111C227.841 33.9762 227.454 34.7107 227.196 35.6148C226.937 36.5189 226.808 37.6005 226.808 38.8598H237.899ZM247.046 52.1545C247.046 51.7832 247.078 51.3796 247.143 50.9437C247.191 50.5724 247.264 50.1526 247.361 49.6844C247.474 49.2001 247.635 48.6996 247.845 48.183C248.556 48.4575 249.298 48.6996 250.073 48.9095C250.735 49.0871 251.453 49.2566 252.228 49.4181C253.003 49.5634 253.77 49.636 254.529 49.636C255.207 49.636 255.837 49.6118 256.418 49.5634C256.999 49.5149 257.499 49.3858 257.919 49.1759C258.355 48.9499 258.694 48.6189 258.936 48.183C259.178 47.731 259.299 47.1094 259.299 46.3184C259.299 45.3659 259.001 44.6152 258.403 44.0663C257.822 43.5174 256.805 43.1057 255.352 42.8312C253.851 42.5407 252.584 42.1532 251.55 41.6689C250.533 41.1845 249.702 40.6276 249.056 39.9979C248.426 39.3522 247.966 38.6338 247.676 37.8427C247.401 37.0516 247.264 36.2041 247.264 35.3C247.264 33.9439 247.482 32.7896 247.918 31.8371C248.354 30.8846 248.983 30.1177 249.807 29.5365C250.646 28.9392 251.679 28.5114 252.906 28.2531C254.15 27.9786 255.57 27.8414 257.168 27.8414C258.282 27.8414 259.267 27.9221 260.123 28.0836C260.995 28.2289 261.721 28.3903 262.302 28.5679C262.98 28.7778 263.57 29.0199 264.07 29.2944C264.022 29.6496 263.933 30.037 263.804 30.4568C263.691 30.8119 263.537 31.2155 263.344 31.6676C263.166 32.1196 262.924 32.5797 262.617 33.0479C262.181 32.7896 261.681 32.5636 261.116 32.3698C260.631 32.1923 260.05 32.0389 259.372 31.9097C258.694 31.7644 257.919 31.6918 257.047 31.6918C256.369 31.6918 255.74 31.7241 255.159 31.7887C254.593 31.8532 254.101 31.9985 253.681 32.2245C253.278 32.4506 252.963 32.7977 252.737 33.2658C252.511 33.7179 252.398 34.3394 252.398 35.1305C252.398 35.5179 252.446 35.8731 252.543 36.196C252.656 36.5027 252.866 36.7853 253.173 37.0436C253.496 37.3019 253.94 37.544 254.505 37.7701C255.086 37.9799 255.853 38.1898 256.805 38.3997C258.29 38.7226 259.526 39.0939 260.51 39.5136C261.511 39.9334 262.302 40.4419 262.883 41.0392C263.481 41.6366 263.901 42.3388 264.143 43.1461C264.401 43.9371 264.53 44.8816 264.53 45.9794C264.53 47.1579 264.345 48.2234 263.973 49.1759C263.602 50.1284 263.021 50.9437 262.23 51.6217C261.439 52.2998 260.422 52.8245 259.178 53.1958C257.935 53.5671 256.434 53.7528 254.674 53.7528C253.544 53.7528 252.511 53.672 251.575 53.5106C250.654 53.3492 249.855 53.1635 249.177 52.9536C248.386 52.7276 247.676 52.4612 247.046 52.1545Z" fill="#575757"/>
<defs>
<clipPath id="clip0_185_9837">
<rect width="45.8421" height="45.1368" fill="white" transform="translate(0 15.4316)"/>
</clipPath>
</defs>
</svg>
