<svg width="268" height="69" viewBox="0 0 268 69" fill="none" xmlns="http://www.w3.org/2000/svg">
<g clip-path="url(#clip0_185_9834)">
<path d="M19.2537 11.5779C17.3495 19.9 10.7905 26.3884 2.53895 28.2926C1.05789 28.6452 0 29.9147 0 31.3958V37.6021C0 39.5768 1.76316 41.0579 3.73789 40.7052C8.74526 39.7884 13.3295 37.8136 17.3495 35.0631C20.7347 32.7358 23.6263 29.7736 26.0242 26.3884C29.2684 21.7336 31.3842 16.2326 32.0189 10.3084C32.0895 9.60312 31.5958 9.03891 30.8905 9.03891H22.3568C20.8758 9.03891 19.6063 10.0968 19.2537 11.5779Z" fill="#575757"/>
<path d="M26.0242 42.6098C23.6968 39.2245 20.7347 36.3329 17.3495 33.935C13.3295 31.114 8.74526 29.1392 3.73789 28.2929C1.76316 27.9403 0 29.4214 0 31.3961V37.6024C0 39.0835 1.05789 40.3529 2.53895 40.7056C10.8611 42.6098 17.42 49.1687 19.2537 57.4203C19.6063 58.9014 20.8758 59.9592 22.3568 59.9592H30.8905C31.5253 59.9592 32.0895 59.395 32.0189 58.6898C31.3842 52.7656 29.2684 47.2645 26.0242 42.6098Z" fill="#A8A8A8"/>
<path d="M35.3348 58.6898C35.2643 59.3245 35.758 59.9592 36.4632 59.9592H44.9969C46.478 59.9592 47.7475 58.9014 48.1001 57.4203C50.0043 49.0982 56.5632 42.6098 64.8148 40.7056C66.2959 40.3529 67.3538 39.0835 67.3538 37.6024V31.3961C67.3538 29.4214 65.5906 27.9403 63.6159 28.2929C58.6085 29.2098 54.0243 31.1845 50.0043 33.935C46.619 36.2624 43.7275 39.2245 41.3296 42.6098C38.0854 47.2645 35.9696 52.7656 35.3348 58.6898Z" fill="#575757"/>
<path d="M44.9969 9.03891H36.4632C35.758 9.03891 35.2643 9.60312 35.3348 10.3084C35.9696 16.2326 38.0854 21.7336 41.3296 26.3884C43.6569 29.7736 46.619 32.6652 50.0043 35.0631C54.0243 37.8842 58.6085 39.8589 63.6159 40.7052C65.5906 41.0579 67.3538 39.5768 67.3538 37.6021V31.3958C67.3538 29.9147 66.2959 28.6452 64.8148 28.2926C56.4927 26.3884 50.0043 19.8294 48.1001 11.5779C47.7475 10.0968 46.478 9.03891 44.9969 9.03891Z" fill="#A8A8A8"/>
</g>
<path d="M101.834 44.2551C102.463 44.2551 102.925 44.5031 103.223 44.999C103.554 45.4619 103.719 45.9744 103.719 46.5365C103.719 47.2308 103.603 47.7267 103.372 48.0243C103.173 48.2888 102.777 48.5699 102.182 48.8674C100.793 49.5287 99.0736 50.0577 97.0237 50.4545C94.9738 50.8512 92.7751 51.0496 90.4276 51.0496C87.485 51.0496 85.3193 50.5536 83.9307 49.5618C82.5751 48.5699 81.732 47.3796 81.4013 45.9909C81.1038 44.5692 80.955 42.7177 80.955 40.4363C80.955 37.9896 81.0542 35.5925 81.2525 33.2451C81.4509 30.8645 81.7981 27.8392 82.294 24.1692C82.5255 22.5822 83.1537 21.4415 84.1786 20.7472C85.2036 20.0198 86.3277 19.6561 87.5511 19.6561C88.576 19.6561 90.2457 19.623 92.5602 19.5569L96.8749 19.5073C98.6603 19.5073 99.9498 19.5569 100.743 19.6561C101.735 19.8545 102.463 20.0859 102.925 20.3504C103.421 20.5819 103.669 20.9951 103.669 21.5903C103.669 22.2515 103.438 22.8963 102.975 23.5245C102.545 24.1527 101.884 24.4668 100.991 24.4668C99.9663 24.4668 98.495 24.4007 96.5773 24.2684C94.6597 24.1361 93.2214 24.07 92.2626 24.07C91.436 24.07 90.626 24.1196 89.8324 24.2188C88.9067 24.2849 88.2454 24.4007 87.8486 24.566C87.4519 24.7313 87.2204 25.0123 87.1543 25.4091C86.6914 28.8146 86.46 31.3274 86.46 32.9475C87.2204 33.0467 87.9644 33.0963 88.6918 33.0963C89.6175 33.0963 90.6094 33.0467 91.6674 32.9475C92.7255 32.8483 93.4033 32.7822 93.7008 32.7491C95.4532 32.5838 96.9576 32.5011 98.214 32.5011C98.9414 32.5011 99.4869 32.6334 99.8506 32.8979C100.247 33.1624 100.446 33.5261 100.446 33.989C100.446 34.7164 100.247 35.2784 99.8506 35.6752C99.4869 36.072 98.8256 36.3695 97.8668 36.5679C96.7096 36.7994 95.2713 36.9812 93.5521 37.1135C91.8658 37.2457 90.2127 37.3118 88.5926 37.3118C88.0305 37.3118 87.2535 37.2788 86.2616 37.2126C86.1624 39.2295 86.1128 41.0976 86.1128 42.8169C86.1128 45.1643 87.6668 46.3381 90.7747 46.3381C92.4279 46.3381 93.8 46.2224 94.8911 45.9909C95.9822 45.7595 97.2386 45.4289 98.6603 44.999C99.9828 44.5031 101.041 44.2551 101.834 44.2551ZM118.865 38.2541C118.964 37.9896 119.311 37.0308 119.906 35.3776C120.534 33.7245 121.113 32.4681 121.642 31.6084C122.502 30.2528 123.262 29.575 123.923 29.575C124.849 29.575 125.56 29.7569 126.056 30.1206C126.552 30.4512 126.8 30.9306 126.8 31.5588C126.8 31.8564 126.668 32.2697 126.403 32.7987C126.172 33.3277 126.039 33.6418 126.006 33.741C124.684 36.6506 123.494 39.775 122.436 43.1144L121.394 46.9828C120.997 48.2392 120.32 49.2642 119.361 50.0577C118.402 50.8182 117.278 51.1984 115.988 51.1984C114.831 51.1984 113.757 50.6694 112.765 49.6113C112.169 48.6856 111.541 47.5118 110.88 46.0901C110.252 44.6684 109.706 43.2797 109.243 41.9242L107.508 36.7167C107.144 35.6917 106.846 34.8156 106.615 34.0882C106.416 33.3608 106.317 32.6995 106.317 32.1044C106.284 31.4101 106.483 30.848 106.912 30.4182C107.342 29.9883 107.937 29.7734 108.698 29.7734C109.557 29.7734 110.169 29.9553 110.533 30.319C110.897 30.6496 111.227 31.1786 111.525 31.906C111.657 32.6665 112.021 34.2204 112.616 36.5679L112.963 37.9566C113.261 39.0807 113.641 40.2214 114.104 41.3786C114.567 42.5358 115.029 43.6434 115.492 44.7015C115.426 44.5361 115.658 45.0817 116.187 46.3381C116.517 45.3793 116.898 44.2055 117.327 42.8169L118.865 38.2541ZM152.608 48.6194C152.608 49.3468 152.211 49.9585 151.418 50.4545C150.657 50.9504 149.947 51.1984 149.285 51.1984C148.029 51.1984 147.021 51.0496 146.26 50.752C145.533 50.4214 144.855 49.8263 144.227 48.9666C143.367 49.7271 142.193 50.3057 140.705 50.7024C139.218 51.0661 137.846 51.248 136.589 51.248C134.539 51.248 132.853 50.7024 131.53 49.6113C130.208 48.4872 129.547 46.8506 129.547 44.7015C129.547 43.7757 129.795 42.9326 130.291 42.1721C130.787 41.3786 131.464 40.6843 132.324 40.0891C133.283 39.4609 134.374 38.9815 135.597 38.6509C136.821 38.2872 138.093 38.1054 139.416 38.1054C140.11 38.1054 140.937 38.2376 141.896 38.5021C142.855 38.7666 143.599 39.0477 144.128 39.3452V38.5517C144.128 36.7663 143.698 35.543 142.838 34.8817C141.978 34.1874 140.59 33.8402 138.672 33.8402C138.11 33.8402 137.548 33.9559 136.986 34.1874C136.457 34.4188 135.845 34.7329 135.151 35.1297C134.225 35.6256 133.349 35.8736 132.522 35.8736C132.225 35.8736 131.944 35.6752 131.679 35.2784C131.415 34.8486 131.282 34.4684 131.282 34.1378C131.282 33.1789 131.729 32.3524 132.622 31.658C133.547 30.9637 134.638 30.4512 135.895 30.1206C137.151 29.7569 138.275 29.575 139.267 29.575C140.259 29.575 141.4 29.7734 142.689 30.1702C143.979 30.5339 145.037 31.0464 145.863 31.7076C146.855 32.5673 147.616 33.5757 148.145 34.7329C148.707 35.8571 148.988 37.0969 148.988 38.4525C148.988 38.8823 148.955 39.5271 148.889 40.3867C148.822 41.3125 148.789 42.106 148.789 42.7673C148.789 43.0648 148.756 43.5112 148.69 44.1063C148.624 44.8337 148.591 45.4123 148.591 45.8421C148.591 46.2389 148.74 46.5861 149.037 46.8836C149.335 47.1481 149.682 47.2804 150.079 47.2804L151.468 47.2308C151.831 47.2308 152.112 47.363 152.311 47.6276C152.509 47.8921 152.608 48.2227 152.608 48.6194ZM136.639 47.33C138.06 47.33 139.251 47.1812 140.21 46.8836C141.168 46.5861 142.326 46.0405 143.681 45.247C143.813 44.6849 143.896 43.941 143.929 43.0152C142.111 42.1556 140.606 41.7258 139.416 41.7258C138.06 41.7258 136.854 41.9737 135.796 42.4697C134.738 42.9656 134.209 43.8418 134.209 45.0982C134.209 45.7264 134.473 46.2554 135.002 46.6853C135.531 47.1151 136.077 47.33 136.639 47.33ZM156.073 33.5922C155.213 32.9971 154.783 32.3689 154.783 31.7076C154.783 31.2447 154.982 30.8149 155.379 30.4182C155.775 30.0214 156.37 29.823 157.164 29.823C158.09 29.823 158.916 30.071 159.644 30.5669C160.404 31.0298 160.933 31.7076 161.231 32.6003C161.991 31.7076 162.851 30.9968 163.81 30.4677C164.802 29.9387 165.81 29.6742 166.835 29.6742C168.058 29.6742 169.166 30.0049 170.158 30.6661C171.15 31.3274 171.646 32.2201 171.646 33.3442C171.646 33.9725 171.365 34.6172 170.803 35.2784C170.274 35.9397 169.728 36.2703 169.166 36.2703C168.868 36.2703 168.604 36.2042 168.372 36.072C168.174 35.9066 167.926 35.6752 167.628 35.3776C167.298 35.047 167.017 34.8156 166.785 34.6833C166.554 34.518 166.289 34.4353 165.992 34.4353C165.463 34.4353 164.967 34.518 164.504 34.6833C164.041 34.8486 163.727 35.047 163.562 35.2784C163.033 36.105 162.636 36.8489 162.371 37.5102C162.14 38.1715 162.024 38.8823 162.024 39.6428C162.024 40.2049 162.008 40.6512 161.975 40.9818L161.925 43.8088C161.925 44.2386 161.942 44.718 161.975 45.247C162.008 45.776 162.041 46.1728 162.074 46.4373C162.173 47.33 162.223 48.1896 162.223 49.0162C162.223 49.5783 162.008 50.0742 161.578 50.5041C161.148 50.9339 160.619 51.1488 159.991 51.1488C158.999 51.1488 158.272 50.9669 157.809 50.6032C157.346 50.2065 157.114 49.4956 157.114 48.4707L157.065 45.2966C157.032 44.6684 157.015 43.7757 157.015 42.6185L157.065 39.3452C157.131 37.7582 157.164 36.4687 157.164 35.4768C157.164 35.1131 157.081 34.7825 156.916 34.4849C156.784 34.1874 156.503 33.8898 156.073 33.5922ZM193.384 51.1984C192.26 51.1984 191.401 51.0331 190.806 50.7024C190.21 50.3387 189.566 49.6775 188.871 48.7186C188.012 49.4791 186.722 50.0908 185.003 50.5536C183.317 51.0165 181.862 51.248 180.639 51.248C178.622 51.248 176.985 50.7024 175.729 49.6113C174.505 48.4872 173.894 46.8506 173.894 44.7015C173.894 43.7757 174.142 42.9326 174.638 42.1721C175.167 41.3786 175.844 40.6843 176.671 40.0891C177.597 39.4609 178.688 38.965 179.944 38.6013C181.234 38.2376 182.407 38.0558 183.465 38.0558C185.251 38.0558 186.838 38.2211 188.227 38.5517V38.5021C188.227 36.7167 187.78 35.4934 186.888 34.8321C186.028 34.1378 184.639 33.7906 182.722 33.7906C181.498 33.7906 180.44 34.3361 179.548 35.4272C179.217 35.8571 178.523 36.072 177.465 36.072C176.936 36.072 176.539 35.8571 176.274 35.4272C176.043 34.9643 175.927 34.5015 175.927 34.0386C175.927 33.0797 176.324 32.2532 177.117 31.5588C177.944 30.8645 178.936 30.352 180.093 30.0214C181.25 29.6577 182.325 29.4759 183.317 29.4759C184.276 29.4759 185.416 29.6742 186.739 30.071C188.061 30.4678 189.136 30.9968 189.962 31.658C190.954 32.5177 191.715 33.5261 192.244 34.6833C192.806 35.8075 193.087 37.0473 193.087 38.4029C193.087 38.8327 193.054 39.4775 192.988 40.3371C192.922 41.329 192.889 42.1391 192.889 42.7673C192.889 43.0648 192.855 43.4451 192.789 43.9079C192.723 44.5031 192.69 44.999 192.69 45.3958C192.69 45.8256 192.822 46.2389 193.087 46.6357C193.351 47.0324 193.715 47.363 194.178 47.6276C194.608 47.859 194.889 48.107 195.021 48.3715C195.153 48.636 195.219 48.9335 195.219 49.2642C195.219 49.5948 195.005 50.0081 194.575 50.5041C194.178 50.9669 193.781 51.1984 193.384 51.1984ZM183.465 41.7258C182.176 41.7258 181.035 41.9737 180.043 42.4697C179.052 42.9656 178.556 43.8418 178.556 45.0982C178.556 45.7264 178.771 46.2554 179.2 46.6853C179.663 47.1151 180.159 47.33 180.688 47.33C182.11 47.33 183.3 47.1812 184.259 46.8836C185.218 46.5861 186.375 46.0405 187.731 45.247C187.896 44.718 187.995 43.9741 188.028 43.0152C188.028 42.6515 188.045 42.3705 188.078 42.1721C186.292 41.8746 184.755 41.7258 183.465 41.7258Z" fill="#575757"/>
<defs>
<clipPath id="clip0_185_9834">
<rect width="67.3526" height="50.92" fill="white" transform="translate(0 9.04001)"/>
</clipPath>
</defs>
</svg>
