<svg width="268" height="70" viewBox="0 0 268 70" fill="none" xmlns="http://www.w3.org/2000/svg">
<g clip-path="url(#clip0_185_9838)">
<path d="M21.196 36.0583C21.1254 36.0583 21.0549 36.0583 20.9844 35.9878C21.0549 35.9878 21.1254 36.0583 21.196 36.0583Z" fill="#A8A8A8"/>
<path d="M46.3059 24.6336C43.8375 20.3315 40.0291 16.9462 35.4449 14.9009C33.8228 14.1957 32.1301 13.6315 30.4375 13.2788C30.5786 13.3494 30.7196 13.4904 30.9312 13.6315C31.0722 13.702 31.2133 13.843 31.3543 13.9136C31.5659 14.0546 31.7775 14.1957 31.9891 14.4073C31.9891 14.4073 31.9891 14.4073 32.0596 14.4073C32.2007 14.4778 32.2712 14.6188 32.4122 14.6894L32.4828 14.7599C32.6238 14.9009 32.7649 14.9715 32.9059 15.1125C33.3291 15.4652 33.8228 15.8883 34.2459 16.3115C34.6691 16.7346 35.0922 17.1578 35.4449 17.6515C35.5859 17.7925 35.6564 17.9336 35.7975 18.0746C35.7975 18.0746 35.7975 18.1452 35.868 18.1452C35.9386 18.2862 36.0796 18.3567 36.1501 18.4978C36.2207 18.5683 36.2207 18.6388 36.2912 18.6388C36.3617 18.7799 36.5028 18.9209 36.5733 19.062C36.6438 19.203 36.7849 19.3441 36.8554 19.4852C36.8554 19.5557 36.9259 19.5557 36.9259 19.6262C36.9964 19.7673 37.1375 19.9083 37.208 20.0494L37.2786 20.3315C37.2786 20.2609 37.2786 20.1199 37.208 20.0494C37.3491 20.2609 37.4196 20.402 37.5607 20.6136C37.7017 20.8252 37.7722 20.9662 37.9133 21.1778C37.9838 21.3188 38.1249 21.4599 38.1954 21.6715C38.1954 21.6715 38.1954 21.6715 38.1954 21.742C38.2659 21.883 38.3364 21.9536 38.3364 22.0946C38.407 22.2357 38.4775 22.4473 38.6186 22.5883C38.6891 22.7999 38.8301 22.9409 38.9007 23.1525C38.9007 23.223 38.9712 23.223 38.9712 23.2936C39.0417 23.4346 39.1122 23.5757 39.1828 23.7167C39.3238 24.0694 39.5354 24.4925 39.6764 24.8452C41.4396 29.4999 41.7217 34.6483 40.4522 39.4441C39.6059 42.7588 37.9838 45.862 35.727 48.6125C36.4322 48.6831 37.1375 48.683 37.9133 48.683C41.3691 48.683 44.6838 47.9073 47.6459 46.5673C48.9859 43.6052 49.7617 40.2904 49.7617 36.8346C49.7617 36.1294 49.7617 35.3536 49.6912 34.6483C49.127 30.9104 47.9986 27.5957 46.3059 24.6336Z" fill="#A8A8A8"/>
<path d="M5.11921 24.6332C7.58763 28.9353 11.3961 32.3206 15.9803 34.3658C16.1918 34.4363 16.4034 34.5774 16.615 34.6479C16.7561 34.7184 16.8971 34.789 17.0382 34.789C17.2497 34.8595 17.3908 34.93 17.6024 35.0005C17.6729 35.0005 17.8139 35.0711 17.8845 35.0711C18.0255 35.1416 18.1666 35.1416 18.3076 35.2121H18.3782C18.5192 35.2827 18.7308 35.3532 18.9424 35.3532C19.0129 35.3532 19.0129 35.3532 19.0834 35.4237C19.295 35.4942 19.4361 35.5648 19.6476 35.5648C19.7887 35.5648 19.8592 35.6353 20.0003 35.6353C20.1413 35.6353 20.2118 35.7058 20.3529 35.7058C20.5645 35.7763 20.7761 35.7763 20.9876 35.8469C19.7182 35.0006 18.4487 34.0132 17.3203 32.8848C16.1918 31.7563 15.2045 30.4869 14.2876 29.2174C13.3003 27.7363 12.4539 26.1142 11.8897 24.4921C10.1266 19.8374 9.84447 14.689 11.1139 9.89318C11.9603 6.57845 13.5824 3.47529 15.8392 0.724762C15.1339 0.654236 14.4287 0.654236 13.6529 0.654236C10.2676 0.795288 6.95289 1.57108 3.99079 2.91108C2.65079 5.87318 1.875 9.18792 1.875 12.6437C1.875 13.349 1.875 14.1248 1.94553 14.83C2.29816 18.3563 3.42658 21.6711 5.11921 24.6332Z" fill="#A8A8A8"/>
<path d="M17.3217 16.2404C18.4501 15.112 19.7196 14.1246 20.9891 13.2078C22.4701 12.2204 24.0922 11.3741 25.7143 10.8099C30.3691 9.04671 35.5175 8.76461 40.3133 10.0341C43.628 10.8804 46.7312 12.5025 49.4817 14.7593C49.5522 14.0541 49.5522 13.3488 49.5522 12.573C49.5522 9.11724 48.7764 5.8025 47.4364 2.8404C44.4743 1.5004 41.1596 0.724609 37.7038 0.724609C36.9985 0.724609 36.2933 0.724609 35.5175 0.795136C31.9206 1.07724 28.6059 2.20566 25.7143 3.89829C21.4122 6.50777 17.9564 10.3162 15.9112 14.9004C15.2059 16.5225 14.6417 18.2151 14.2891 19.9783C15.2059 18.6383 16.1933 17.3688 17.3217 16.2404Z" fill="#575757"/>
<path d="M36.0097 33.0959C36.0803 32.9549 36.1508 32.7433 36.2213 32.6022C36.2213 32.6022 36.2213 32.6022 36.2213 32.5317V32.4612C36.2918 32.3201 36.3624 32.1791 36.3624 32.038C36.4329 31.8265 36.5034 31.6854 36.5034 31.4738C36.5034 31.4033 36.5739 31.2622 36.5739 31.1917V31.1212C36.6445 30.9801 36.6445 30.8391 36.715 30.698C36.7855 30.4865 36.7855 30.2749 36.8561 30.0633V29.9928C36.9266 29.7812 36.9266 29.5696 36.9971 29.358C36.9971 29.358 36.9971 29.358 36.9971 29.4286C36.9266 29.5696 36.7855 29.7107 36.715 29.8517C36.5739 29.9928 36.5034 30.1338 36.3624 30.3454C36.2918 30.4865 36.1508 30.6275 36.0803 30.698C35.9392 30.8391 35.8687 30.9801 35.7276 31.1212C35.6571 31.1917 35.5866 31.3328 35.5161 31.4033C35.4455 31.4738 35.375 31.5443 35.3045 31.6149C34.9518 32.038 34.5287 32.5317 34.1055 32.9549C33.6824 33.378 33.2592 33.8012 32.7655 34.1538C32.695 34.2243 32.6245 34.2949 32.5539 34.2949C32.4834 34.3654 32.4129 34.4359 32.3424 34.4359C32.3424 34.4359 32.2718 34.4359 32.2718 34.5065C32.1308 34.577 32.0603 34.718 31.9192 34.7886C31.9192 34.7886 31.9192 34.7886 31.8487 34.7886C31.7782 34.8591 31.6371 34.9296 31.5666 35.0001C31.496 35.0707 31.355 35.1412 31.2845 35.2117C31.1434 35.2822 31.0024 35.4233 30.8613 35.4938C30.7203 35.5643 30.5792 35.7054 30.4382 35.7759C30.4382 35.7759 30.4382 35.7759 30.3676 35.7759C30.2266 35.8465 30.0855 35.9875 29.8739 36.058C29.8034 36.1286 29.7329 36.1286 29.6624 36.1991C29.6624 36.1991 29.5918 36.1991 29.5918 36.2696C29.5213 36.3401 29.3803 36.4107 29.3097 36.4812C29.2392 36.4812 29.2392 36.5517 29.1687 36.5517C28.9571 36.6222 28.8161 36.7633 28.6045 36.8338C28.4634 36.9043 28.3224 36.9749 28.1108 37.1159H28.0403C27.8992 37.1865 27.8287 37.257 27.6876 37.257C27.6876 37.257 27.6876 37.257 27.6171 37.257C27.4761 37.3275 27.335 37.398 27.2645 37.4686C27.1234 37.5391 26.9118 37.6096 26.7708 37.6801C26.6297 37.7507 26.4887 37.8212 26.3476 37.8917C26.2066 37.9622 26.0655 37.9622 25.995 38.0328C25.8539 38.1033 25.7129 38.1738 25.5718 38.1738C20.9171 39.937 15.7687 40.2191 10.9729 38.9496C7.86974 38.3149 4.69605 36.7633 1.94553 34.4359C1.875 35.1412 1.875 35.8465 1.875 36.6222C1.875 40.078 2.65079 43.3928 3.99079 46.3549C6.95289 47.6949 10.2676 48.4707 13.7234 48.4707C14.4287 48.4707 15.2045 48.4707 15.9097 48.4001C19.4361 48.0475 22.8213 46.9896 25.7129 45.297C30.015 42.8286 33.4003 39.0201 35.4455 34.4359C35.5161 34.2243 35.6571 34.0128 35.7276 33.8012C35.8687 33.5191 35.9392 33.3075 36.0097 33.0959Z" fill="#575757"/>
</g>
<path d="M87.3198 22.2097C87.3198 20.5468 88.5145 19.7154 90.9038 19.7154C91.4527 19.7154 91.9855 19.9253 92.5021 20.345C93.0187 20.7648 93.277 21.346 93.277 22.0886C93.277 22.8312 93.0429 23.816 92.5747 25.043C92.1065 26.2699 91.8159 27.4323 91.7029 28.5301C91.5899 29.6279 91.3397 33.4379 90.9522 39.9601C90.5648 46.4824 90.3145 49.9857 90.2015 50.47C89.9755 51.4386 89.4993 51.923 88.7728 51.923C87.336 51.923 85.883 50.9785 84.4139 49.0897C84.0748 48.6538 81.855 45.0778 77.7544 38.3619C73.6699 31.6298 71.2725 28.2637 70.5622 28.2637L70.2474 28.4574C70.1182 28.6512 70.0052 29.1355 69.9083 29.9104C69.3917 34.3339 69.1334 39.1207 69.1334 44.2706C69.1334 44.8195 69.1657 45.4169 69.2303 46.0626L69.3272 46.886C69.424 47.6932 69.4725 48.1937 69.4725 48.3874C69.4725 49.5013 69.0931 50.3973 68.3343 51.0754C67.5917 51.7534 66.7199 52.0925 65.7189 52.0925H64.8956C63.8785 52.0925 63.37 51.7131 63.37 50.9543C63.37 50.1794 63.5879 49.3157 64.0238 48.3632C64.4597 47.4107 64.7503 46.329 64.8956 45.1182C65.5898 39.2902 65.9369 33.0343 65.9369 26.3506C65.9369 25.2044 65.8562 24.2519 65.6947 23.4931L65.4768 22.6698L65.2346 21.9191C65.1055 21.467 65.0409 21.0231 65.0409 20.5872C65.0409 19.9898 65.614 19.6912 66.7602 19.6912C68.9558 19.6912 70.9174 20.6598 72.6448 22.5971C74.3883 24.5183 77.0118 28.3202 80.5151 34.003C84.0183 39.6857 85.9072 42.5271 86.1816 42.5271L86.5207 42.4302C86.6175 42.2849 86.7144 41.7683 86.8113 40.8804C87.4086 35.2783 87.7073 30.3625 87.7073 26.1327C87.7073 25.7614 87.6669 25.1963 87.5862 24.4376L87.4893 23.6626C87.3763 22.8716 87.3198 22.3872 87.3198 22.2097ZM102.4 38.0713V38.4587C102.4 38.9431 102.844 39.1852 103.732 39.1852H104.313L104.458 39.161L105.645 39.0641C106.888 38.8866 107.695 38.7978 108.066 38.7978C109.826 38.7978 111.15 38.4668 112.038 37.8049C112.458 37.482 112.667 36.9089 112.667 36.0856V35.8192C112.667 34.6084 112.264 33.6478 111.457 32.9374C110.666 32.2271 109.713 31.8719 108.599 31.8719H108.43L108.284 31.8961C106.718 31.8961 105.346 32.5581 104.168 33.8819C102.989 35.2057 102.4 36.6022 102.4 38.0713ZM107.679 53.1095H107.146C104.063 53.1095 101.609 52.1328 99.7844 50.1794C97.9601 48.2098 97.0479 45.5864 97.0479 42.3091V41.2436C97.0479 39.6776 97.3547 38.0874 97.9682 36.473C99.2113 33.2442 101.237 31.0163 104.046 29.7893C105.532 29.1274 107.041 28.7965 108.575 28.7965H109.616C111.731 28.7965 113.515 29.5068 114.968 30.9275C116.437 32.332 117.172 34.1483 117.172 36.3761V36.8605C117.172 38.4426 116.542 39.5646 115.283 40.2265C114.411 40.6947 112.377 41.1629 109.18 41.6311C105.984 42.0992 104.24 42.3818 103.95 42.4786C102.981 42.8177 102.497 43.4634 102.497 44.4159C102.497 45.7397 103.062 46.8698 104.192 47.8062C105.322 48.7426 106.839 49.2107 108.744 49.2107C109.632 49.2107 110.843 48.9686 112.377 48.4843C113.91 47.9999 114.798 47.7578 115.041 47.7578C115.864 47.7578 116.276 48.1129 116.276 48.8233C116.276 49.7758 115.347 50.7283 113.491 51.6808C111.634 52.6333 109.697 53.1095 107.679 53.1095ZM124.115 39.2821C123.13 38.2812 122.638 36.8766 122.638 35.0685C122.638 33.2603 123.445 31.7105 125.059 30.419C126.674 29.1113 128.676 28.4574 131.065 28.4574H131.695C133.809 28.4574 135.488 28.7561 136.732 29.3534C137.991 29.9508 138.62 30.8468 138.62 32.0414C138.62 33.22 138.096 33.8092 137.046 33.8092C136.772 33.8092 135.997 33.4863 134.722 32.8406C133.446 32.1787 132.243 31.8477 131.113 31.8477C129.983 31.8477 129.071 32.106 128.377 32.6226C127.699 33.1231 127.36 33.8173 127.36 34.7052C127.36 35.5932 127.836 36.3681 128.789 37.03C129.338 37.4174 130.629 38.0309 132.663 38.8704C134.714 39.7099 136.175 40.5171 137.046 41.292C138.451 42.5351 139.153 44.1253 139.153 46.0626C139.153 47.9999 138.33 49.6628 136.683 51.0512C135.036 52.4234 132.897 53.1095 130.266 53.1095H129.636C126.989 53.1095 125.003 52.7302 123.679 51.9714C122.355 51.1965 121.693 50.1955 121.693 48.9686C121.693 47.7255 122.21 47.1039 123.243 47.1039C123.582 47.1039 124.462 47.5398 125.883 48.4116C127.32 49.2834 128.724 49.7193 130.096 49.7193C131.485 49.7193 132.526 49.4287 133.22 48.8475C133.914 48.2502 134.261 47.5075 134.261 46.6196C134.261 45.7155 133.826 44.9245 132.954 44.2464C132.486 43.8751 131.146 43.2051 128.934 42.2365C126.722 41.2517 125.116 40.2669 124.115 39.2821ZM156.97 50.2036C156.97 50.8494 156.574 51.4306 155.783 51.9472C155.008 52.4476 153.951 52.6979 152.611 52.6979C150.108 52.6979 148.349 51.7696 147.331 49.913C146.702 48.7506 146.387 46.0303 146.387 41.7521C146.387 37.4739 146.314 34.9878 146.169 34.2936C146.024 33.5994 145.62 32.9213 144.958 32.2594C144.296 31.5975 143.965 31.0889 143.965 30.7338C143.965 30.6046 144.748 29.757 146.314 28.1911C146.653 27.852 146.992 27.1013 147.331 25.939C147.687 24.7766 147.937 24.0097 148.082 23.6384C148.566 22.476 149.204 21.8949 149.995 21.8949H150.383C151.077 21.8949 151.569 22.1612 151.86 22.694C151.973 22.9039 152.142 23.6626 152.368 24.9703C152.611 26.2618 152.885 27.0933 153.192 27.4646C153.499 27.8359 154.265 28.2476 155.492 28.6996C156.735 29.1355 157.357 29.6037 157.357 30.1041V30.3705C157.357 31.0163 156.647 31.5652 155.226 32.0172C153.821 32.4531 152.917 33.1554 152.514 34.124C151.723 36.0775 151.327 39.2579 151.327 43.6652C151.327 45.7317 151.682 47.1362 152.393 47.8788C152.829 48.3309 153.7 48.6457 155.008 48.8233C156.316 49.0009 156.97 49.461 156.97 50.2036ZM165.681 25.5757L165.269 21.241C165.269 20.902 165.487 20.563 165.923 20.2239C166.359 19.8688 167.004 19.6912 167.86 19.6912C169.813 19.6912 171.388 20.5872 172.582 22.3792C173.793 24.1712 175.666 28.2395 178.2 34.5841C179.298 37.2641 179.944 38.7816 180.138 39.1368L180.67 39.8391C181.026 39.8391 182.608 37.2076 185.417 31.9446C188.226 26.6654 189.977 23.5416 190.672 22.5729C192.06 20.6356 193.828 19.667 195.975 19.667C197.493 19.667 198.251 20.2239 198.251 21.3379L198.106 22.137L197.888 23.1057C197.711 24.0905 197.589 26.2861 197.525 29.6925C197.46 33.0827 197.363 36.4892 197.234 39.9117L197.113 43.7379C197.113 45.3684 197.202 46.5147 197.38 47.1766L197.719 48.121C198.041 48.9928 198.203 49.6466 198.203 50.0825C198.203 50.5023 197.969 50.8978 197.501 51.2691C197.032 51.6404 196.508 51.8261 195.927 51.8261H195.006C194.183 51.8261 193.44 51.4951 192.779 50.8332C192.117 50.1713 191.786 49.4771 191.786 48.7506C191.786 48.008 191.858 46.9021 192.004 45.433C192.165 43.9639 192.246 40.8239 192.246 36.0129C192.246 31.1858 192.1 28.7723 191.81 28.7723C191.374 28.7723 189.864 31.5168 187.281 37.0058C184.715 42.4948 183.076 45.772 182.366 46.8376C181.655 47.9031 180.864 48.4358 179.992 48.4358C179.137 48.4358 178.394 47.8304 177.764 46.6196C177.522 46.1514 176.376 43.084 174.326 37.4174C172.292 31.7347 171.032 28.8933 170.548 28.8933C170.338 28.8933 170.136 29.1759 169.943 29.7409C169.765 30.2898 169.434 32.8406 168.95 37.3932C168.482 41.9459 168.247 45.0133 168.247 46.5954C168.247 48.1614 167.989 49.3399 167.473 50.131C166.956 50.9059 166.06 51.2933 164.785 51.2933C163.509 51.2933 162.871 50.6799 162.871 49.4529C162.871 49.2915 163.106 48.5973 163.574 47.3703C164.042 46.1434 164.357 44.7792 164.518 43.2778C165.293 36.1582 165.681 30.2575 165.681 25.5757ZM212.435 49.7435H213.065C214.389 49.7435 215.551 49.2995 216.552 48.4116C217.569 47.5075 218.078 46.4662 218.078 45.2877L218.126 44.9729V44.6581L218.175 43.9074V42.5271C218.175 41.5907 217.698 41.1225 216.746 41.1225H215.656L215.487 41.1467L214.542 41.2194C214.09 41.284 213.767 41.3163 213.573 41.3163C212.266 41.3163 211.055 41.8087 209.941 42.7934C209.166 43.4876 208.779 44.4724 208.779 45.7478V46.2321C208.779 47.3138 209.126 48.1694 209.82 48.7991C210.53 49.4287 211.402 49.7435 212.435 49.7435ZM207.035 34.2693C205.953 34.2693 205.413 33.5751 205.413 32.1867C205.413 31.1535 206.284 30.2575 208.028 29.4987C209.788 28.7238 211.612 28.3364 213.501 28.3364H214.712C216.342 28.3364 217.779 28.6431 219.022 29.2566C220.265 29.8539 221.21 30.6692 221.855 31.7024C222.517 32.7356 222.921 34.0837 223.066 35.7465C223.098 36.134 223.115 38.0148 223.115 41.3889C223.115 44.763 223.155 46.7084 223.236 47.225C223.333 47.7255 223.591 48.339 224.011 49.0654C224.447 49.7919 224.664 50.3893 224.664 50.8574C224.664 51.3256 224.438 51.7292 223.986 52.0683C223.551 52.3911 222.913 52.5526 222.073 52.5526C221.234 52.5526 220.322 52.3508 219.337 51.9472C218.352 51.5274 217.634 51.3175 217.182 51.3175C217.133 51.3175 216.326 51.6081 214.76 52.1893C213.194 52.7544 211.87 53.0369 210.789 53.0369H210.256C208.448 53.0369 206.906 52.4638 205.631 51.3175C204.371 50.1713 203.742 48.5408 203.742 46.4259C203.742 44.311 204.436 42.6643 205.824 41.4858C207.213 40.2911 208.9 39.4758 210.885 39.0399C211.483 38.9108 212.476 38.7413 213.864 38.5314C215.252 38.3215 216.197 38.1036 216.697 37.8776C217.569 37.4739 218.005 36.7152 218.005 35.6012C218.005 34.4711 217.634 33.5913 216.891 32.9617C216.148 32.3159 215.261 31.993 214.227 31.993C213.21 31.993 211.87 32.3724 210.207 33.1312C208.545 33.8899 207.487 34.2693 207.035 34.2693ZM231.826 40.2023V38.3377C231.826 36.0936 231.705 34.455 231.462 33.4218C231.22 32.3724 231.099 31.6378 231.099 31.2181C231.099 30.2333 231.818 29.7409 233.254 29.7409C234.691 29.7409 235.733 30.0073 236.378 30.54C236.556 30.6853 236.782 30.9679 237.056 31.3876C237.347 31.8074 237.605 32.0172 237.831 32.0172C237.88 32.0172 238.582 31.6056 239.938 30.7822C241.294 29.9589 242.457 29.5472 243.425 29.5472H243.789C244.58 29.5472 245.209 29.7409 245.677 30.1284C246.146 30.4997 246.38 30.9598 246.38 31.5087V31.8235C246.38 32.4854 246.146 32.9617 245.677 33.2523C245.225 33.5428 244.499 33.6881 243.498 33.6881C241.222 33.6881 239.559 34.4873 238.509 36.0856C237.476 37.6838 236.96 40.509 236.96 44.5612C236.96 45.1424 237.056 46.0384 237.25 47.2492C237.46 48.46 237.565 49.3722 237.565 49.9857C237.565 50.5991 237.234 51.1884 236.572 51.7534C235.91 52.3185 235.071 52.601 234.054 52.601H233.23C232.342 52.601 231.656 52.3911 231.172 51.9714C230.704 51.5355 230.47 51.0108 230.47 50.3973C230.47 49.7677 230.583 49.13 230.809 48.4843C231.422 46.7407 231.729 44.8195 231.729 42.7208C231.793 41.5584 231.826 40.7189 231.826 40.2023ZM263.009 50.2036C263.009 50.8494 262.614 51.4306 261.823 51.9472C261.048 52.4476 259.99 52.6979 258.65 52.6979C256.148 52.6979 254.388 51.7696 253.371 49.913C252.742 48.7506 252.427 46.0303 252.427 41.7521C252.427 37.4739 252.354 34.9878 252.209 34.2936C252.064 33.5994 251.66 32.9213 250.998 32.2594C250.336 31.5975 250.005 31.0889 250.005 30.7338C250.005 30.6046 250.788 29.757 252.354 28.1911C252.693 27.852 253.032 27.1013 253.371 25.939C253.727 24.7766 253.977 24.0097 254.122 23.6384C254.606 22.476 255.244 21.8949 256.035 21.8949H256.423C257.117 21.8949 257.609 22.1612 257.9 22.694C258.013 22.9039 258.182 23.6626 258.408 24.9703C258.65 26.2618 258.925 27.0933 259.232 27.4646C259.538 27.8359 260.305 28.2476 261.532 28.6996C262.775 29.1355 263.397 29.6037 263.397 30.1041V30.3705C263.397 31.0163 262.687 31.5652 261.266 32.0172C259.861 32.4531 258.957 33.1554 258.554 34.124C257.763 36.0775 257.367 39.2579 257.367 43.6652C257.367 45.7317 257.722 47.1362 258.433 47.8788C258.868 48.3309 259.74 48.6457 261.048 48.8233C262.356 49.0009 263.009 49.461 263.009 50.2036Z" fill="#575757"/>
<defs>
<clipPath id="clip0_185_9838">
<rect width="47.6758" height="47.6758" fill="white" transform="translate(1.875 0.794739)"/>
</clipPath>
</defs>
</svg>
