<svg width="268" height="80" viewBox="0 0 268 80" fill="none" xmlns="http://www.w3.org/2000/svg">
<g clip-path="url(#clip0_185_9840)">
<path fill-rule="evenodd" clip-rule="evenodd" d="M54.3228 14.8624C52.1465 12.6893 48.6225 12.6932 46.4505 14.8685C44.2752 17.0405 44.2729 20.5661 46.4461 22.7426L50.3809 26.6774L54.3185 22.7398C56.4938 20.5677 56.496 17.0421 54.3228 14.8624ZM43.8161 25.3691L33.3266 14.8795C31.1502 12.7064 27.6246 12.7087 25.4526 14.8839C23.2757 17.0544 23.2734 20.5799 25.445 22.7579L35.9362 33.2491C38.1126 35.4223 41.6382 35.4201 43.8103 33.2448C45.9871 31.0712 45.9894 27.5455 43.8161 25.3691Z" fill="#575757"/>
<path fill-rule="evenodd" clip-rule="evenodd" d="M64.7963 54.2247C66.9714 52.0527 66.9738 48.5272 64.8006 46.3508C62.6243 44.1777 59.0986 44.1799 56.9266 46.3551L52.9858 50.296L56.9206 54.2308C59.0971 56.4039 62.6226 56.4016 64.7963 54.2247ZM54.305 43.7335L64.8116 33.2268C66.9853 31.0564 66.9892 27.5325 64.8176 25.3544C62.6413 23.1813 59.1157 23.1836 56.9436 25.3588L46.437 35.8655C44.2601 38.0359 44.2579 41.5616 46.4293 43.7396C48.6058 45.9126 52.1313 45.9103 54.305 43.7335Z" fill="#A8A8A8"/>
<path fill-rule="evenodd" clip-rule="evenodd" d="M25.4137 64.7546C27.5901 66.9278 31.1158 66.9255 33.2878 64.7501C35.463 62.5783 35.4654 59.0526 33.2921 56.8762L29.3573 52.9413L25.4182 56.8805C23.2445 59.051 23.2423 62.5766 25.4137 64.7546ZM35.9219 54.2464L46.4132 64.7376C48.5897 66.9107 52.1152 66.9084 54.2873 64.7331C56.4641 62.5627 56.4665 59.0372 54.2948 56.8591L43.8036 46.3679C41.6273 44.1948 38.1017 44.197 35.9296 46.3723C33.7528 48.5459 33.749 52.0699 35.9219 54.2464Z" fill="#575757"/>
<path fill-rule="evenodd" clip-rule="evenodd" d="M14.9436 25.3905C12.7684 27.5625 12.7661 31.0881 14.9393 33.2645C17.1156 35.4376 20.6412 35.4353 22.8133 33.2601L26.7524 29.3209L22.8176 25.3861C20.6413 23.2129 17.1157 23.2152 14.9436 25.3905ZM25.4349 35.8817L14.9282 46.3884C12.7513 48.5588 12.7491 52.0844 14.9206 54.2623C17.097 56.4355 20.6226 56.4333 22.7946 54.2579L33.2996 43.7528C35.4766 41.5825 35.4788 38.0569 33.3073 35.879C31.1309 33.7026 27.6069 33.7064 25.4349 35.8817Z" fill="#A8A8A8"/>
</g>
<path d="M87.2786 49.2079C88.9854 49.2079 89.9662 48.5965 90.2209 47.3737C90.2464 47.1954 90.2591 47.0298 90.2591 46.877C90.2591 45.5778 89.444 44.4951 87.8136 43.629C87.4569 43.4252 86.8837 43.1577 86.094 42.8265C84.1834 41.9858 82.9224 41.2089 82.3111 40.4956C81.6487 39.7313 81.3175 38.827 81.3175 37.7825C81.3175 35.6172 82.5021 34.1524 84.8713 33.3882C85.8648 33.057 86.9729 32.8914 88.1957 32.8914C90.1827 32.8914 91.7367 33.248 92.8576 33.9613C92.8576 33.1971 93.0868 32.7768 93.5454 32.7003C93.6473 32.6749 93.7492 32.6621 93.8511 32.6621V37.4386H92.6283C92.5264 35.1204 91.2654 33.9486 88.8453 33.9231C87.2149 33.9231 86.2087 34.4581 85.8266 35.528C85.7501 35.7828 85.7119 36.0375 85.7119 36.2923C85.7119 37.3877 86.4762 38.3175 88.0046 39.0817C88.3103 39.2601 88.8198 39.5021 89.5331 39.8078C91.5201 40.6994 92.8448 41.5146 93.5072 42.2533C94.2714 43.1195 94.6535 44.1512 94.6535 45.3485C94.6535 47.5648 93.5072 49.0551 91.2144 49.8193C90.2719 50.125 89.2147 50.2778 88.0428 50.2778C85.8011 50.2778 83.916 49.883 82.3875 49.0933C82.3875 49.7556 82.2219 50.1377 81.8907 50.2396C81.7379 50.2651 81.5595 50.2778 81.3558 50.2778V44.4696H82.655C82.7059 47.603 84.2471 49.1824 87.2786 49.2079ZM96.3486 34.6492V33.6556H98.9852V30.0255L103.838 29.2231V33.6556H108.882V34.6492H103.838V46.2274C103.838 46.5585 103.864 46.877 103.915 47.1827C104.118 48.5074 104.692 49.1697 105.634 49.1697C105.787 49.1697 105.94 49.157 106.093 49.1315C107.086 48.9277 107.838 47.7941 108.347 45.7306L109.379 45.8835C109.175 46.9279 108.895 47.7686 108.538 48.4055C107.799 49.6792 106.449 50.3161 104.488 50.3161C104.182 50.3161 103.876 50.3033 103.571 50.2778C100.514 49.9212 98.9852 47.896 98.9852 44.2021V34.6492H96.3486ZM124.372 50.2778C122.334 50.1505 121.047 48.9914 120.512 46.8006C120.385 47.1572 120.219 47.5011 120.016 47.8323C118.997 49.4627 117.404 50.2778 115.239 50.2778C114.526 50.2778 113.876 50.1887 113.29 50.0104C111.303 49.3735 110.31 47.9214 110.31 45.6542C110.335 42.317 113.621 40.5847 120.168 40.4574V37.9736C120.168 37.2348 120.117 36.598 120.016 36.063C119.761 34.6109 119.035 33.8849 117.837 33.8849C117.481 33.8849 117.162 33.9486 116.882 34.076C116.449 34.3307 116.092 34.9676 115.812 35.9866C115.71 36.3432 115.634 36.598 115.583 36.7508C115.201 37.8207 114.462 38.3557 113.367 38.3557C113.112 38.3557 112.87 38.3175 112.641 38.2411C111.698 37.9863 111.227 37.3622 111.227 36.3687C111.227 35.9356 111.341 35.528 111.571 35.1459C112.462 33.6429 114.64 32.8914 118.105 32.8914C118.997 32.8914 119.824 32.9806 120.589 33.1589C123.544 33.8976 125.021 35.8592 125.021 39.0435V47.0298C125.021 48.2526 125.302 48.8895 125.862 48.9404C126.601 48.9149 127.047 48.0233 127.199 46.2656L128.193 46.3038C128.116 47.0935 128.002 47.7431 127.849 48.2526C127.39 49.6028 126.231 50.2778 124.372 50.2778ZM117.226 48.6347C117.404 48.6347 117.608 48.5965 117.837 48.5201C118.907 48.1125 119.684 47.0171 120.168 45.2339V41.5273C119.022 41.5783 118.079 41.7184 117.341 41.9476C115.965 42.4571 115.277 43.5525 115.277 45.2339C115.303 47.4502 115.952 48.5838 117.226 48.6347ZM129.506 41.6419C129.506 39.1454 130.257 37.1075 131.76 35.528C133.442 33.7703 135.633 32.8914 138.333 32.8914C140.32 32.8914 141.976 33.2863 143.3 34.076C144.651 34.9166 145.326 35.8974 145.326 37.0183C145.326 37.2221 145.3 37.4259 145.249 37.6297C144.944 38.5977 144.141 39.0817 142.842 39.0817C142.23 39.0817 141.746 38.9544 141.39 38.6996C140.931 38.3684 140.626 37.6169 140.473 36.4451C140.396 35.9611 140.333 35.6172 140.282 35.4134C140.027 34.3689 139.339 33.8467 138.218 33.8467C137.658 33.8467 137.174 33.9613 136.766 34.1906C135.416 35.0058 134.741 37.5533 134.741 41.833C134.741 43.9729 134.957 45.6287 135.391 46.8006C135.976 48.38 137.148 49.1697 138.906 49.1697C139.568 49.1697 140.231 49.0678 140.893 48.864C142.6 48.329 143.81 47.2973 144.523 45.7688L145.517 46.0363C145.262 46.6987 144.893 47.31 144.409 47.8705C142.982 49.4754 140.944 50.2778 138.295 50.2778C136.588 50.2778 135.072 49.9594 133.747 49.3225C130.92 47.9214 129.506 45.3612 129.506 41.6419ZM156.001 48.9022C156.153 48.9022 156.293 48.9149 156.421 48.9404C156.752 48.9914 156.918 49.3098 156.918 49.8957H146.256V48.9022C148.142 48.9022 149.11 48.2399 149.161 46.9152V26.0515H146.256V25.0579H154.013V41.4509L161.388 34.4581H158.599V33.4646H165.057C165.057 33.592 165.044 33.7193 165.019 33.8467C164.942 34.2543 164.624 34.4581 164.063 34.4581C163.859 34.4581 163.656 34.4708 163.452 34.4963C162.968 34.5982 162.28 35.0695 161.388 35.9101L158.561 38.6232L164.713 48.9022H165.286C165.464 48.9022 165.617 48.9149 165.745 48.9404C166.05 49.0168 166.203 49.3353 166.203 49.8957L159.86 49.9339L155.198 41.8712L154.013 43.0176V48.9022H156.001ZM175.502 33.8849C173.464 33.9613 172.356 36.1139 172.178 40.3427L174.623 40.4574C175.642 40.5083 176.407 40.4446 176.916 40.2663C177.63 39.9861 177.986 39.2473 177.986 38.05C177.961 35.3242 177.133 33.9359 175.502 33.8849ZM182.648 45.9599C182.495 46.3675 182.291 46.7623 182.037 47.1445C180.737 49.2334 178.598 50.2778 175.617 50.2778C173.936 50.2778 172.433 49.9339 171.108 49.2461C168.331 47.7941 166.943 45.2211 166.943 41.5273C166.943 39.2601 167.554 37.3622 168.777 35.8337C170.382 33.8722 172.624 32.8914 175.502 32.8914C177.082 32.8914 178.496 33.1589 179.744 33.6939C181.96 34.6874 183.068 36.2668 183.068 38.4321C183.068 38.8652 182.992 39.2601 182.839 39.6167C182.177 41.0433 179.795 41.6929 175.693 41.5655L172.178 41.4509C172.203 42.9284 172.331 44.2021 172.56 45.2721C173.146 47.8705 174.458 49.1697 176.496 49.1697C177.133 49.1697 177.757 49.0551 178.368 48.8258C179.897 48.2653 181.018 47.2081 181.731 45.6542L182.648 45.9599ZM194.622 48.9022C194.775 48.9022 194.915 48.9149 195.042 48.9404C195.374 48.9914 195.539 49.3098 195.539 49.8957H184.725V48.9022C185.056 48.9022 185.349 48.8767 185.604 48.8258C186.496 48.6729 186.942 48.0361 186.942 46.9152V34.4581H184.725V33.4646H191.412L191.68 37.0183C191.96 36.305 192.368 35.6427 192.903 35.0313C194.1 33.783 195.488 33.1589 197.068 33.1589C197.399 33.1589 197.717 33.1971 198.023 33.2735C199.271 33.6047 199.895 34.4071 199.895 35.6809C199.895 36.0375 199.819 36.3814 199.666 36.7126C199.233 37.6806 198.507 38.1647 197.488 38.1647C197.182 38.1647 196.902 38.1264 196.647 38.05C196.112 37.8462 195.616 37.3367 195.157 36.5215C194.826 35.9356 194.52 35.6427 194.24 35.6427C194.087 35.6427 193.922 35.6809 193.743 35.7573C192.622 36.3432 191.973 37.9736 191.794 40.6484V48.9022H194.622Z" fill="#575757"/>
<defs>
<clipPath id="clip0_185_9840">
<rect width="56.4211" height="56.4211" fill="white" transform="translate(39.8984) rotate(45)"/>
</clipPath>
</defs>
</svg>
