<svg width="268" height="69" viewBox="0 0 268 69" fill="none" xmlns="http://www.w3.org/2000/svg">
<g clip-path="url(#clip0_185_9833)">
<path d="M23.3442 47.1934L22.7095 45.6419C21.8632 43.4555 20.1705 41.7629 17.9842 40.9166L16.4326 40.2819L15.7979 39.9998L12.2011 38.5892L11.4253 38.3071L7.68737 36.8261L4.65474 35.6271C4.16105 35.4156 3.87895 35.0629 3.87895 34.4987C3.87895 34.005 4.16105 33.5819 4.65474 33.3703L7.68737 32.1713L11.4253 30.6903L12.2011 30.4082L10.72 26.9524L10.6495 26.8113L7.05263 28.2219L2.82105 29.9145C1.76316 30.3377 1.05789 30.9019 0.634737 31.6777C0.211579 32.3829 0 33.3703 0 34.4987C0 35.6271 0.211579 36.6145 0.634737 37.3903C1.05789 38.1661 1.76316 38.7303 2.82105 39.0829L7.05263 40.7756L10.6495 42.1861L10.7905 42.2566L14.2463 43.5966L15.4453 40.8461L14.2463 43.5966L15.0221 43.8787C17.2084 44.725 18.9011 46.4177 19.7474 48.604L20.0295 49.3798L23.6263 47.8282L23.3442 47.1934Z" fill="#A8A8A8"/>
<path d="M50.9883 49.8729L49.1546 45.7118L47.603 42.1855L47.5325 42.0445L46.0514 38.5887L44.4999 39.2234L46.0514 38.5887L45.6988 37.8834C44.782 35.7676 44.782 33.2992 45.6988 31.1834L46.0514 30.4782L42.3841 29.0676L42.102 29.7024L41.4672 31.2539C40.5504 33.3697 40.5504 35.8382 41.4672 37.9539L42.102 39.5055L42.3841 40.1403L43.9357 43.7371L45.5578 43.1024L43.9357 43.7371L44.2883 44.5129L45.9104 48.1803L47.2504 51.2129C47.462 51.7066 47.3914 52.1297 46.9683 52.4824C46.6157 52.835 46.1925 52.9055 45.6988 52.7645L42.6662 51.4245L38.9988 49.8024L38.223 49.4497L36.883 52.9055L36.8125 53.0466L40.3388 54.5982L44.4999 56.4318C45.4872 56.855 46.4746 56.996 47.2504 56.7845C48.0967 56.5729 48.8725 56.0087 49.7188 55.2329C50.5651 54.3866 51.0588 53.6108 51.2704 52.7645C51.5525 51.7771 51.4114 50.8603 50.9883 49.8729Z" fill="#575757"/>
<path d="M35.4079 12.4237L33.7153 8.19212C33.2921 7.13422 32.7279 6.42896 32.0226 6.0058C31.2468 5.58264 30.33 5.37106 29.1311 5.37106C28.0026 5.37106 27.0153 5.58264 26.2395 6.0058C25.4637 6.42896 24.8995 7.13422 24.5468 8.19212L22.8542 12.4237L21.4437 16.0205L21.5847 16.0911L23.8416 17.0784L21.5847 16.0911L21.4437 16.0205L21.3732 16.1616L20.0332 19.6174L19.7511 20.3932C18.9047 22.5795 17.2121 24.2721 15.0258 25.1184L14.25 25.4005L15.8016 28.9974L16.4363 28.7153L17.9879 28.0805C20.1742 27.2342 21.8668 25.5416 22.7132 23.3553L23.3479 21.8037L23.63 21.169L22.6426 20.7458L23.63 21.169L25.0405 17.5016L25.3226 16.7258L26.8037 12.9879L28.0026 9.95527C28.2142 9.46159 28.5668 9.17948 29.1311 9.17948H29.2016C29.6953 9.17948 30.1184 9.46159 30.33 9.95527L31.5289 12.9879L33.01 16.7258L33.2921 17.5016L36.7479 16.0205L36.8889 15.95L35.4079 12.4237Z" fill="#A8A8A8"/>
<path d="M51.2715 16.3729C51.0599 15.5266 50.4957 14.7508 49.7199 13.9045C48.8736 13.0582 48.0978 12.5645 47.2515 12.3529C46.4052 12.1414 45.4884 12.2119 44.501 12.7056L40.34 14.5393L36.8136 16.0908H36.6726L33.2168 17.5719L32.441 17.854C30.3252 18.7708 27.8568 18.7708 25.741 17.854L24.9652 17.5014L23.5547 21.1687L24.1894 21.4508L25.741 22.0856C27.8568 23.0024 30.3252 23.0024 32.441 22.0856L33.9926 21.4508L34.6273 21.1687L34.3452 20.534L34.6273 21.1687L38.2242 19.6171L36.8842 16.1614V16.0908V16.1614L38.2242 19.6171L38.9999 19.2645L42.6673 17.6424L45.7 16.3024C46.1936 16.0908 46.6168 16.1614 46.9694 16.5845C47.3221 16.9371 47.3926 17.3603 47.2515 17.854L45.9115 20.8866L44.2894 24.554L43.9368 25.3298L47.3926 26.6698L47.5336 26.7403L49.0852 23.214L50.9189 19.0529C51.4126 18.1361 51.5536 17.2193 51.2715 16.3729Z" fill="#575757"/>
<path d="M57.6166 31.6063C57.1934 30.8305 56.4882 30.2663 55.4303 29.8431L51.1987 28.1505L47.6018 26.74L47.5313 26.8105L47.6018 26.74L47.4608 26.6695L44.005 25.3295L43.2292 25.1179C41.0429 24.2716 39.3503 22.5789 38.5039 20.3926L38.2218 19.6168L34.625 21.1684L34.9071 21.8031L35.5418 23.3547C36.3882 25.541 38.0808 27.2337 40.2671 28.08L41.8187 28.7147L42.4534 28.9968L46.0503 30.4073L46.9671 28.3621L46.0503 30.4073L46.8261 30.6895L50.5639 32.1705L53.5966 33.3695C54.0903 33.581 54.3724 33.9337 54.3724 34.4979C54.3724 34.9916 54.0903 35.3442 53.5966 35.6263L50.5639 36.8252L46.8261 38.3063L46.0503 38.5884L47.5313 42.0442L47.6018 42.1852L51.1987 40.7747L55.4303 39.0821C56.4882 38.6589 57.1934 38.0947 57.6166 37.3895C58.0397 36.6137 58.2513 35.6968 58.2513 34.4979C58.2513 33.3695 58.0397 32.3821 57.6166 31.6063Z" fill="#A8A8A8"/>
<path d="M33.9914 47.5452L32.4398 46.84C30.324 45.9231 27.8556 45.9231 25.7398 46.84L24.1882 47.5452L23.5535 47.8273L19.9566 49.3789L19.1809 49.7316L15.5135 51.3537L12.6219 52.6231C12.1282 52.8347 11.7051 52.7642 11.3524 52.341C10.9998 51.9884 10.9293 51.5652 11.0703 51.0716L12.4103 48.0389L14.0324 44.3716L14.3851 43.5958L10.9293 42.2558L10.7882 42.1852L9.23665 45.7116L7.40296 49.8726C6.9798 50.86 6.83875 51.8473 7.05033 52.6231C7.26191 53.4695 7.82612 54.2452 8.60191 55.0916C9.44823 55.9379 10.224 56.4316 11.0703 56.6431C11.9166 56.8547 12.8335 56.7842 13.8209 56.2905L17.9819 54.4568L21.5082 52.9052L21.6493 52.8347L25.1051 51.3537L24.2588 49.1673L25.1051 51.3537L25.8103 51.001C27.9261 50.0842 30.3945 50.0842 32.5103 51.001L33.2861 51.3537L34.6966 47.7568L33.9914 47.5452Z" fill="#575757"/>
<path d="M17.9112 14.4689L13.7502 12.6352C12.7628 12.2121 11.7754 12.071 10.9996 12.2826C10.1533 12.4942 9.37754 13.0584 8.53123 13.8342C7.68491 14.6805 7.19123 15.4563 6.97965 16.3026C6.76807 17.1489 6.83859 18.0658 7.33228 19.0531L9.16596 23.2142L10.7175 26.7405L10.7881 26.8815L12.2691 30.3373L14.0323 29.6321L12.2691 30.3373L12.6218 31.1131C13.5386 33.2289 13.5386 35.6973 12.6218 37.8131L12.2691 38.5184L15.866 39.9289L16.1481 39.2942L16.7828 37.7426C17.6996 35.6268 17.6996 33.1584 16.7828 31.0426L16.0775 29.491L15.7954 28.8563L14.2439 25.2594L13.8912 24.4837L12.2691 20.8163L10.9291 17.7837C10.7175 17.29 10.7881 16.8668 11.2112 16.5142C11.5639 16.1615 11.987 16.091 12.4807 16.2321L15.5133 17.5721L19.1807 19.1942L19.9565 19.5468L21.2965 16.091L21.367 15.95L17.9112 14.4689Z" fill="#575757"/>
<path d="M42.4543 39.9992L41.8196 40.2813L40.268 40.9161C38.0817 41.7624 36.3891 43.455 35.5428 45.6413L34.908 47.1929L34.6259 47.8276L33.2154 51.4245L32.9333 52.2003L31.4522 55.9382L30.2533 58.9708C30.0417 59.4645 29.6891 59.7466 29.1249 59.7466C28.6312 59.7466 28.208 59.4645 27.9964 58.9708L26.7975 55.9382L25.3164 52.2003L25.0343 51.4245L21.5786 52.9055L21.4375 52.976L22.848 56.5729L24.5407 60.8045C24.9638 61.8624 25.528 62.5676 26.2333 62.9908C27.0091 63.4139 27.9259 63.6255 29.1249 63.6255C30.2533 63.6255 31.2407 63.4139 32.0164 62.9908C32.7922 62.5676 33.3564 61.8624 33.7091 60.8045L35.4017 56.5729L36.8122 52.976H36.7417H36.8122L36.8828 52.835L38.2228 49.3792L36.3186 48.5329L38.2228 49.3792L38.5049 48.6034C39.3512 46.4171 41.0438 44.7245 43.2301 43.8782L44.0059 43.5961L42.4543 39.9992Z" fill="#A8A8A8"/>
</g>
<path d="M72.3076 52V17.978H91.9471V21.9455H76.6719V32.9556H90.1617V36.9232H76.6719V52H72.3076ZM97.2712 52V25.9131H101.338V52H97.2712ZM97.172 20.8545V16.143H101.388V20.8545H97.172ZM111.997 61.0263C109.881 61.0263 108.277 60.4146 107.186 59.1912C106.095 58.001 105.549 56.5462 105.549 54.8269C105.549 53.5705 105.847 52.4298 106.442 51.4049C107.07 50.3799 107.897 49.669 108.922 49.2723C108.26 48.8425 107.731 48.2804 107.335 47.5861C106.971 46.8587 106.789 46.1147 106.789 45.3543C106.789 44.2963 107.12 43.387 107.781 42.6266C108.475 41.8331 109.368 41.2379 110.459 40.8412C109.533 40.0807 108.789 39.1384 108.227 38.0143C107.698 36.8571 107.434 35.5511 107.434 34.0963C107.434 31.352 108.194 29.2029 109.715 27.649C111.236 26.095 113.319 25.318 115.964 25.318C117.32 25.318 118.576 25.6321 119.733 26.2603C120.891 25.6321 121.684 24.9212 122.114 24.1277C122.544 23.3342 122.825 22.5242 122.957 21.6976H126.528C126.528 23.2515 126.131 24.5906 125.338 25.7148C124.577 26.8389 123.519 27.5828 122.164 27.9465C122.891 28.6739 123.453 29.5666 123.85 30.6246C124.28 31.6496 124.494 32.8068 124.494 34.0963C124.494 36.8075 123.734 38.94 122.213 40.494C120.725 42.048 118.708 42.8415 116.163 42.8746H113.435C112.774 42.8746 112.212 43.106 111.749 43.5689C111.286 43.9987 111.054 44.5442 111.054 45.2055C111.054 45.8337 111.286 46.3793 111.749 46.8421C112.245 47.305 112.807 47.5365 113.435 47.5365H120.874C122.759 47.5365 124.247 48.1481 125.338 49.3715C126.462 50.5618 127.024 51.9835 127.024 53.6366C127.024 54.9922 126.726 56.2321 126.131 57.3562C125.569 58.4804 124.709 59.3731 123.552 60.0344C122.428 60.6956 121.039 61.0263 119.386 61.0263H111.997ZM112.641 57.505H119.833C120.692 57.505 121.42 57.1909 122.015 56.5627C122.61 55.9676 122.907 55.2567 122.907 54.4301C122.907 53.5705 122.659 52.8431 122.164 52.248C121.668 51.6859 120.891 51.4049 119.833 51.4049H112.641C111.616 51.4049 110.856 51.6859 110.36 52.248C109.864 52.8431 109.616 53.5705 109.616 54.4301C109.616 55.2567 109.864 55.9676 110.36 56.5627C110.856 57.1909 111.616 57.505 112.641 57.505ZM115.915 39.5021C117.369 39.5021 118.477 39.0227 119.237 38.0639C119.998 37.072 120.378 35.7494 120.378 34.0963C120.378 32.3439 119.998 31.0049 119.237 30.0791C118.477 29.1533 117.369 28.6904 115.915 28.6904C114.493 28.6904 113.402 29.1864 112.641 30.1783C111.881 31.1371 111.501 32.4431 111.501 34.0963C111.501 35.8156 111.881 37.1546 112.641 38.1135C113.402 39.0392 114.493 39.5021 115.915 39.5021ZM134.038 52L127.541 25.9131H132.005L135.278 40.5932C135.443 41.2875 135.608 42.1306 135.774 43.1225C135.939 44.0814 136.071 44.941 136.171 45.7015C136.27 46.4289 136.319 46.7925 136.319 46.7925H136.518C136.518 46.7925 136.551 46.4619 136.617 45.8006C136.683 45.1394 136.782 44.3293 136.914 43.3705C137.047 42.4117 137.179 41.4859 137.311 40.5932L139.94 25.9131H144.651L147.329 40.5932C147.429 41.2545 147.528 41.9488 147.627 42.6762C147.726 43.3705 147.809 44.0318 147.875 44.66C147.974 45.2882 148.04 45.8006 148.073 46.1974C148.106 46.5942 148.123 46.7925 148.123 46.7925H148.321C148.321 46.7925 148.338 46.6107 148.371 46.247C148.437 45.8833 148.503 45.4039 148.569 44.8088C148.668 44.2136 148.784 43.5524 148.916 42.825C149.049 42.0645 149.197 41.3206 149.363 40.5932L152.636 25.9131H156.752L150.255 52H145.742L143.015 37.1216C142.849 36.2289 142.701 35.3196 142.568 34.3938C142.469 33.4681 142.386 32.6911 142.32 32.0629C142.254 31.4347 142.221 31.1206 142.221 31.1206H142.023C142.023 31.1206 141.99 31.4347 141.924 32.0629C141.857 32.6911 141.758 33.4681 141.626 34.3938C141.527 35.2866 141.395 36.1958 141.229 37.1216L138.551 52H134.038ZM160.431 52V25.9131H164.498V52H160.431ZM160.332 20.8545V16.143H164.547V20.8545H160.332ZM171.04 52V25.9131H174.115L174.66 29.3352H174.958C175.289 28.3433 175.801 27.434 176.495 26.6075C177.19 25.7478 178.149 25.318 179.372 25.318C179.934 25.318 180.397 25.3841 180.761 25.5164C181.124 25.6486 181.306 25.7148 181.306 25.7148V29.9303H179.967C179.107 29.9303 178.297 30.1287 177.537 30.5254C176.81 30.8891 176.214 31.5173 175.751 32.4101C175.322 33.3028 175.107 34.5261 175.107 36.0801V52H171.04ZM193.547 52.5951C190.307 52.5951 187.843 51.5371 186.157 49.4211C184.504 47.272 183.677 43.7838 183.677 38.9566C183.677 34.2616 184.487 30.823 186.108 28.6408C187.761 26.4256 190.224 25.318 193.497 25.318C196.341 25.318 198.473 26.2768 199.895 28.1945C201.35 30.0791 202.077 33.2036 202.077 37.5679V40.1468H187.943C187.976 43.1887 188.455 45.4204 189.381 46.8421C190.307 48.2639 191.728 48.9747 193.646 48.9747C194.935 48.9747 195.993 48.4622 196.82 47.4373C197.647 46.3793 198.06 44.941 198.06 43.1225H202.077C202.077 46.0321 201.284 48.3465 199.696 50.0658C198.143 51.752 196.093 52.5951 193.547 52.5951ZM187.992 36.5264H197.812C197.812 34.0467 197.448 32.1621 196.721 30.8726C195.993 29.5831 194.919 28.9384 193.497 28.9384C191.679 28.9384 190.34 29.5831 189.48 30.8726C188.653 32.129 188.157 34.0136 187.992 36.5264Z" fill="#575757"/>
<defs>
<clipPath id="clip0_185_9833">
<rect width="58.2547" height="58.2547" fill="white" transform="translate(0 5.37262)"/>
</clipPath>
</defs>
</svg>
