<svg width="268" height="63" viewBox="0 0 268 63" fill="none" xmlns="http://www.w3.org/2000/svg">
<g clip-path="url(#clip0_185_9831)">
<path d="M50.5002 6.10157C51.135 5.46683 50.7118 4.33841 49.795 4.33841H43.6592C41.6845 4.33841 39.7802 5.1142 38.4402 6.52472L27.2266 17.6679L33.0802 23.5216L50.5002 6.10157Z" fill="#575757"/>
<path d="M21.3009 23.5921L24.8977 27.1889C26.1672 28.4584 28.142 28.4584 29.4114 27.1889L32.3735 24.2268L33.0083 23.5921L27.1546 17.7384L23.4872 14.071C22.1472 12.731 20.243 11.9552 18.3388 11.9552H9.66406L21.3009 23.5921Z" fill="#A8A8A8"/>
<path d="M3.88118 56.951C3.24644 57.5858 3.6696 58.7142 4.58644 58.7142H10.7928C12.697 58.7142 14.6012 57.9384 15.9412 56.5984L27.1549 45.3847L21.3012 39.531L3.88118 56.951Z" fill="#575757"/>
<path d="M29.4152 35.8637C28.1457 34.5942 26.171 34.5942 24.9015 35.8637L21.9394 38.8258L21.3047 39.4605L27.1584 45.3142L30.8257 48.9816C32.2363 50.3921 34.1405 51.1679 36.1152 51.1679H44.7194L33.0826 39.531L29.4152 35.8637Z" fill="#A8A8A8"/>
<path d="M13.3295 31.5616L9.6621 35.2289L19.1832 25.7079L1.76316 8.21736C1.12842 7.58262 0 8.00578 0 8.92262V15.0584C0 17.0332 0.775789 18.8668 2.18632 20.2774L13.3295 31.5616Z" fill="#575757"/>
<path d="M7.54688 40.3774V49.0521L19.2542 37.3447L22.8511 33.6774C24.1206 32.4079 24.1206 30.4331 22.8511 29.1637L19.2542 25.5668L9.66266 35.2289C8.32266 36.5689 7.54688 38.4731 7.54688 40.3774Z" fill="#A8A8A8"/>
<path d="M35.2656 37.3447L52.6856 54.8353C53.3204 55.47 54.3783 55.0468 54.3783 54.13V47.9237C54.3783 45.949 53.6025 44.1153 52.2625 42.7753L41.1193 31.5616L35.2656 37.3447Z" fill="#575757"/>
<path d="M46.8983 22.7458V14.0005L35.2615 25.6374L31.7351 29.2342C30.5362 30.5037 30.5362 32.4784 31.7351 33.7479L35.332 37.3447L44.853 27.8237C46.1225 26.4837 46.8983 24.65 46.8983 22.7458Z" fill="#A8A8A8"/>
</g>
<path d="M65.3979 45.5263L79.7211 13.7217H90.7082L105.031 45.5263H97.2915L94.2667 38.8095H76.1626L73.1378 45.5263H65.3979ZM78.7425 33.0269H91.6868L85.5038 19.282H84.9255L78.7425 33.0269ZM111.981 55.5347V50.4193H125.415C127.194 50.4193 128.083 49.5149 128.083 47.7059V45.5263H118.297C114.324 45.5263 111.225 44.5477 109.001 42.5905C106.777 40.6333 105.665 37.8013 105.665 34.0944C105.665 30.358 106.777 27.5111 109.001 25.5539C111.225 23.5967 114.324 22.6181 118.297 22.6181H134.533V48.5066C134.533 50.6121 133.925 52.3024 132.71 53.5775C131.494 54.8823 129.596 55.5347 127.016 55.5347H111.981ZM118.297 40.4109H128.083V27.7335H118.297C116.37 27.7335 114.887 28.2673 113.849 29.3349C112.841 30.3728 112.337 31.9593 112.337 34.0944C112.337 36.1999 112.841 37.7864 113.849 38.854C114.887 39.8919 116.37 40.4109 118.297 40.4109ZM151.153 45.7487C147.179 45.7487 144.081 44.7701 141.856 42.8129C139.632 40.826 138.52 37.9199 138.52 34.0944C138.52 30.2393 139.632 27.3332 141.856 25.376C144.081 23.3891 147.179 22.3957 151.153 22.3957H159.382C163.356 22.3957 166.455 23.3891 168.679 25.376C170.903 27.3332 172.015 30.2393 172.015 34.0944C172.015 37.9199 170.903 40.826 168.679 42.8129C166.455 44.7701 163.356 45.7487 159.382 45.7487H151.153ZM151.153 40.6333H159.382C161.31 40.6333 162.778 40.0995 163.786 39.0319C164.824 37.9644 165.343 36.3185 165.343 34.0944C165.343 31.8407 164.824 30.18 163.786 29.1125C162.778 28.0449 161.31 27.5111 159.382 27.5111H151.153C149.226 27.5111 147.743 28.0449 146.705 29.1125C145.697 30.18 145.193 31.8407 145.193 34.0944C145.193 36.3185 145.697 37.9644 146.705 39.0319C147.743 40.0995 149.226 40.6333 151.153 40.6333ZM176.002 45.5263V22.6181H195.974C198.584 22.6181 200.481 23.2705 201.668 24.5753C202.884 25.8505 203.491 27.5408 203.491 29.6463V45.5263H197.042V30.4024C197.042 28.6232 196.152 27.7335 194.373 27.7335H182.451V45.5263H176.002Z" fill="#575757"/>
<defs>
<clipPath id="clip0_185_9831">
<rect width="54.3758" height="54.3758" fill="white" transform="translate(0 4.33841)"/>
</clipPath>
</defs>
</svg>
