<svg width="268" height="69" viewBox="0 0 268 69" fill="none" xmlns="http://www.w3.org/2000/svg">
<g clip-path="url(#clip0_185_9832)">
<path d="M38.4349 14.7174L37.5886 12.4605C37.5886 12.4605 37.236 11.4026 37.0244 11.1205C36.9539 10.9795 36.7423 10.7679 36.6013 10.5563C35.755 9.70999 34.4855 9.28683 33.4276 9.63947C32.7223 9.85104 32.0876 10.1331 32.0876 10.1331L29.8307 11.1205C29.1255 11.4731 28.3497 11.6847 27.5739 11.8258C25.9518 12.1784 24.3297 12.1784 22.7781 11.8258C22.0023 11.6847 21.2265 11.4026 20.5213 11.1205L18.4055 10.2037C18.4055 10.2037 17.2065 9.63947 16.7834 9.49841C15.7255 9.21631 14.5971 9.63947 13.7507 10.4858C13.6097 10.6268 13.3981 10.9089 13.3276 11.1205C13.116 11.4731 12.8339 12.4605 12.8339 12.4605L11.9876 14.7174C11.7055 15.4931 11.3528 16.1279 10.9297 16.8331C11.5644 16.6921 12.2697 16.7626 12.975 17.1153L16.2897 18.5963L19.1107 19.7953L19.2518 19.8658L22.5665 21.2763C24.2592 21.9816 26.1634 21.9816 27.856 21.2763L31.2413 19.7953L31.3823 19.7247L34.2034 18.5258L37.5181 17.0447C38.2939 16.6921 38.9286 16.6216 39.5634 16.7626C39.0697 16.1279 38.7171 15.4226 38.4349 14.7174Z" fill="#575757"/>
<path d="M44.9944 47.7237L47.2512 46.8774L48.5912 46.3132C48.8028 46.1721 48.9438 46.031 49.0849 45.89C49.9312 45.0437 50.2838 43.8447 50.0017 42.7163L49.4375 41.4468L48.4501 39.19C48.0975 38.4847 47.8859 37.7089 47.7449 36.9332C47.3922 35.311 47.3922 33.6889 47.7449 32.1374C47.8859 31.3616 48.168 30.5858 48.4501 29.8805L49.367 27.7647L50.0723 26.1426C50.2133 25.0847 49.9312 23.9563 49.0849 23.11C48.9438 22.9689 48.8028 22.8279 48.6617 22.7574L47.1101 22.1226L44.9944 21.2763C44.2186 20.9942 43.5838 20.6416 42.8786 20.2184C43.0196 20.8532 42.9491 21.5584 42.5965 22.2637L41.1154 25.5784L39.9165 28.3995L39.8459 28.5405L38.3649 31.9258C37.6596 33.6184 37.6596 35.5226 38.3649 37.2153L39.8459 40.6005L39.9165 40.7416L41.1154 43.5626L42.5965 46.8774C42.9491 47.6531 43.0196 48.2879 42.8786 48.9226C43.5838 48.4289 44.2891 48.0763 44.9944 47.7237Z" fill="#575757"/>
<path d="M11.9095 54.3532L12.7558 56.61C12.7558 56.61 13.1084 57.6679 13.32 57.95C13.3905 58.091 13.6021 58.3026 13.7431 58.5142C14.5895 59.3605 15.8589 59.7837 16.9168 59.431C17.6221 59.2195 18.2568 58.9374 18.2568 58.9374L20.5137 57.95C21.2189 57.5974 21.9947 57.3858 22.7705 57.2447C24.3926 56.8921 26.0147 56.8921 27.5663 57.2447C28.3421 57.3858 29.1179 57.6679 29.8231 57.95L31.9389 58.8668C31.9389 58.8668 33.1379 59.4311 33.561 59.5721C34.6189 59.8542 35.7474 59.4311 36.5937 58.5847C36.7347 58.4437 36.9463 58.1616 37.0168 57.95C37.2284 57.5974 37.5105 56.61 37.5105 56.61L38.3568 54.4237C38.6389 53.6479 38.9916 53.0132 39.4147 52.3079C38.78 52.4489 38.0747 52.3784 37.3695 52.0258L34.0547 50.5447L31.2337 49.3458L31.0926 49.2753L27.7074 47.7942C26.0147 47.0889 24.1105 47.0889 22.4179 47.7942L19.0326 49.2753V49.2753L16.2116 50.4742L12.8968 51.9553C12.121 52.3079 11.4863 52.3784 10.8516 52.2374C11.2747 52.8721 11.6274 53.5774 11.9095 54.3532Z" fill="#575757"/>
<path d="M5.35472 21.2763L3.09788 22.1226L1.75788 22.6868C1.5463 22.8279 1.40524 22.9689 1.26419 23.11C0.417876 23.9563 0.0652445 25.1553 0.34735 26.2837L0.91156 27.5532L1.89893 29.81C2.25156 30.5153 2.46314 31.291 2.60419 32.0668C2.95682 33.6889 2.95682 35.311 2.60419 36.8626C2.46314 37.6384 2.18103 38.4142 1.89893 39.1195L0.982087 41.2353L0.276823 42.8574C0.135771 43.9153 0.417876 45.0437 1.26419 45.89C1.40524 46.031 1.5463 46.1721 1.68735 46.2426L3.23893 46.8774L5.42524 47.7237C6.20103 48.0058 6.83577 48.3584 7.54103 48.7816C7.39998 48.1468 7.47051 47.4416 7.82314 46.7363L9.30419 43.4216L10.5031 40.6005L10.5737 40.4595L12.0547 37.0742C12.76 35.3816 12.76 33.4774 12.0547 31.7847L10.5737 28.3995L10.5031 28.2584L9.30419 25.4374L7.75261 22.2637C7.39998 21.4879 7.32946 20.8532 7.47051 20.2184C6.83577 20.571 6.13051 20.9942 5.35472 21.2763Z" fill="#575757"/>
<path d="M20.5232 10.9089L18.3368 9.92157C18.3368 9.92157 17.3495 9.42789 16.9968 9.35736C16.7853 9.28683 16.5032 9.28683 16.2916 9.28683C15.0221 9.28683 13.8937 9.92157 13.4 10.9089C13.0474 11.5437 12.8358 12.1784 12.8358 12.1784L11.9189 14.4353C11.6368 15.211 11.2842 15.9163 10.8611 16.551C9.94421 17.9616 8.81579 19.09 7.40526 20.0068C6.77053 20.43 6.06526 20.7826 5.28947 21.1353L3.17368 21.9816C3.17368 21.9816 1.90421 22.4047 1.55158 22.6163C0.493684 23.1805 0 24.3089 0 25.5079C0 25.7195 0.0705263 26.0721 0.141053 26.2837C0.211579 26.6363 0.705263 27.6237 0.705263 27.6237L1.69263 29.81C1.97474 30.3742 2.18632 31.0089 2.32737 31.6437C2.39789 31.7847 2.60947 31.8553 2.68 31.7142C3.03263 31.3616 3.45579 31.0089 4.09053 30.7974L7.47579 29.4574L10.3674 28.3289L10.5084 28.2584L13.9642 26.9184C15.6568 26.2132 17.0674 24.8732 17.7021 23.1805L19.0421 19.7247L19.1126 19.5837L20.2411 16.6921L21.5811 13.3068C21.7926 12.7426 22.1453 12.2489 22.4979 11.8963C22.6389 11.7553 22.5684 11.5437 22.4274 11.5437C21.7221 11.4026 21.1579 11.191 20.5232 10.9089Z" fill="#A8A8A8"/>
<path d="M48.804 29.81L49.7914 27.5531L50.3556 26.2132C50.4261 26.0016 50.4261 25.79 50.4261 25.5079C50.4261 24.2384 49.7914 23.1805 48.804 22.5458L47.464 22.0521L45.2072 21.1353C44.4314 20.8531 43.7261 20.5005 43.0914 20.0774C41.6809 19.1605 40.5524 18.0321 39.6356 16.6216C39.2124 15.9868 38.8598 15.2816 38.5072 14.5058L37.6609 12.39L37.0261 10.7679V10.6974C36.3914 9.85105 35.3335 9.28683 34.2051 9.28683C33.9935 9.28683 33.7819 9.28683 33.6409 9.35736L32.0893 9.9921L29.903 10.9795C29.3388 11.2616 28.704 11.4732 28.0693 11.6142C27.9282 11.6847 27.8577 11.8963 27.9988 11.9668C28.3514 12.3195 28.704 12.7426 28.9156 13.3774L30.2556 16.7626L31.384 19.6542L31.4545 19.7953L32.7945 23.251C33.4998 24.9437 34.8398 26.3542 36.5324 26.9889L39.9882 28.3289L40.1293 28.3995L43.0209 29.5279L46.4061 30.8679C46.9703 31.0795 47.464 31.4321 47.8167 31.7847C47.9577 31.9258 48.1693 31.8553 48.1693 31.7142C48.3103 31.0089 48.5219 30.4447 48.804 29.81Z" fill="#A8A8A8"/>
<path d="M29.903 58.091L32.1598 59.0784C32.1598 59.0784 33.1472 59.5721 33.4998 59.6426C33.6409 59.7131 33.9935 59.7131 34.2051 59.7131C35.4745 59.7131 36.603 59.0784 37.0967 58.091C37.4493 57.4563 37.6609 56.8216 37.6609 56.8216L38.5777 54.5647C38.8598 53.7889 39.2124 53.0837 39.6356 52.4489C40.5524 51.0384 41.6809 49.91 43.0914 48.9931C43.7261 48.57 44.4314 48.2174 45.2072 47.8647L47.323 47.0184C47.323 47.0184 48.5924 46.5953 48.9451 46.3837C49.9324 45.89 50.4261 44.691 50.4261 43.5626C50.4261 43.351 50.3556 42.9984 50.2851 42.7868C50.144 42.3637 49.6503 41.4468 49.6503 41.4468L48.663 39.2605C48.3809 38.6963 48.1693 38.0616 48.0282 37.4268C47.9577 37.2858 47.7461 37.2153 47.6756 37.3563C47.323 37.7089 46.8998 38.0616 46.2651 38.2731L42.8798 39.6131L39.9882 40.7416L39.8472 40.8121L36.3914 42.1521C34.6988 42.8574 33.2882 44.1974 32.6535 45.89L31.3135 49.3458L31.243 49.4868L30.2556 52.3079L28.9156 55.6931C28.704 56.2574 28.3514 56.751 27.9988 57.1037C27.8577 57.2447 27.9282 57.4563 28.0693 57.4563C28.704 57.5974 29.3388 57.8089 29.903 58.091Z" fill="#A8A8A8"/>
<path d="M1.62211 39.19L0.634737 41.4468L0.0705263 42.7868C0 42.9984 0 43.21 0 43.4921C0 44.7616 0.634737 45.8195 1.62211 46.4542L2.96211 46.9479L5.21895 47.8647C5.99474 48.1468 6.7 48.4995 7.33474 48.9226C8.74526 49.8395 9.87368 50.9679 10.7905 52.3784C11.2137 53.0131 11.5663 53.7184 11.9189 54.4942L12.7653 56.61L13.4 58.2321V58.3026C14.0347 59.1489 15.0926 59.7131 16.2211 59.7131C16.4326 59.7131 16.6442 59.7131 16.7853 59.6426L18.3368 59.0079L20.5232 58.0205C21.0874 57.7384 21.7221 57.5268 22.3568 57.3858C22.4979 57.3152 22.5684 57.1037 22.4274 57.0331C22.0747 56.6805 21.7221 56.2574 21.5105 55.6226L20.1705 52.2374L19.0421 49.3458L18.9716 49.2047L17.6316 45.8195C16.9263 44.1268 15.5863 42.7163 13.8937 42.0816L10.4379 40.7416L10.2968 40.671L7.40526 39.5426L4.02 38.2026C3.45579 37.991 2.96211 37.6384 2.60947 37.2858C2.46842 37.1447 2.25684 37.2153 2.25684 37.3563C2.11579 37.991 1.90421 38.6258 1.62211 39.19Z" fill="#A8A8A8"/>
</g>
<path d="M77.1261 21.1935C77.1261 23.2765 78.4156 28.3352 80.9945 36.3695L82.5816 41.329L82.9287 41.2298C82.9618 40.5355 85.0117 33.7245 89.0785 20.7968C89.0785 20.4661 88.8966 20.152 88.5329 19.8545C88.1692 19.5238 87.789 19.3089 87.3922 19.2097L87.541 18.5154C89.1942 18.6477 91.459 18.7138 94.3355 18.7138C97.212 18.7138 99.5099 18.5815 101.229 18.317L101.477 19.5569C99.8901 20.0528 98.2866 20.4 96.6665 20.5984C96.5012 21.3919 96.4185 22.8136 96.4185 24.8635C96.4185 26.8804 96.683 30.9472 97.212 37.0639C97.7741 43.1806 98.2866 47.2473 98.7495 49.2642C100.502 49.4295 102.32 49.7436 104.205 50.2065L104.056 51.3968C101.609 51.1323 98.9644 51 96.1209 51C93.2775 51 90.9796 51.1323 89.2273 51.3968L89.0289 50.1569C90.5167 49.694 92.1038 49.3468 93.79 49.1154C93.79 45.9744 93.6081 41.6431 93.2444 36.1216C92.8807 30.6 92.4179 25.872 91.8558 21.9374L91.707 21.8879C86.979 34.9809 84.4992 42.9491 84.2678 45.7925C82.1187 47.082 80.5151 48.3384 79.4571 49.5618L78.8619 49.165C78.9281 48.4376 78.9611 47.8921 78.9611 47.5284C78.9611 43.66 76.7955 35.1131 72.4642 21.8879L72.2658 21.9374L70.7284 32.7987C70.0671 37.5267 69.7365 41.7919 69.7365 45.5942C69.7365 46.8175 69.8688 47.8259 70.1333 48.6194C70.4308 49.413 71.0094 50.0412 71.8691 50.5041L71.6707 51.1984C70.6457 51.0661 68.8934 51 66.4136 51C63.967 51 61.7683 51.1323 59.8175 51.3968L59.6192 50.1569C61.107 49.694 62.694 49.3468 64.3803 49.1154L69.9349 21.4415C66.0334 21.4415 63.5371 21.9705 62.4461 23.0285C62.2146 23.4914 62.0989 24.2188 62.0989 25.2107C62.0989 26.2026 62.2642 26.8804 62.5948 27.2441L62.5453 27.5913C61.7187 28.0872 60.8921 28.7815 60.0655 29.6742C59.6688 29.6412 59.3547 29.4759 59.1232 29.1783C58.8587 28.8807 58.7265 28.5336 58.7265 28.1368C58.7265 26.5167 59.7018 24.5825 61.6525 22.3342C63.6033 20.0859 65.4218 18.6642 67.108 18.069C67.3725 18.069 68.5628 18.1848 70.6788 18.4162C72.7948 18.6146 74.4315 18.7138 75.5887 18.7138C76.779 18.7138 77.9031 18.6146 78.9611 18.4162L79.1595 19.6561C77.8039 20.1851 77.1261 20.6976 77.1261 21.1935ZM116.883 51.5951C113.61 51.5951 110.965 50.5702 108.948 48.5203C106.931 46.4373 105.922 43.66 105.922 40.1883C105.922 36.7167 106.981 33.46 109.097 30.4182C111.213 27.3763 113.973 25.4256 117.379 24.566C120.784 24.566 123.38 25.5413 125.165 27.4921C126.951 29.4097 127.843 32.154 127.843 35.7248C127.843 39.2956 126.868 42.5193 124.917 45.3958C123 48.2723 120.322 50.3387 116.883 51.5951ZM116.04 27.5913C114.552 27.5913 113.263 28.0045 112.171 28.8311C110.816 31.1455 110.138 34.0551 110.138 37.5598C110.138 41.5935 111.262 44.6849 113.51 46.834C114.701 47.9912 116.106 48.5699 117.726 48.5699C119.346 48.5699 120.652 48.14 121.644 47.2804C122.967 44.966 123.628 42.1391 123.628 38.7997C123.628 35.4603 123.033 32.7656 121.842 30.7157C120.652 28.6327 118.718 27.5913 116.04 27.5913ZM143.999 51.3472C142.279 51.1157 140.345 51 138.196 51C136.08 51 134.179 51.1323 132.493 51.3968L132.294 50.1073C133.352 49.7767 134.344 49.5287 135.27 49.3634C135.567 46.7844 135.716 43.412 135.716 39.246V36.9151C135.716 32.4846 135.551 29.0791 135.22 26.6985C134.328 26.5994 133.253 26.3348 131.997 25.905L132.145 24.6156C134.03 24.9793 135.997 25.1611 138.047 25.1611C140.13 25.1611 141.618 25.0454 142.511 24.8139L142.61 25.6571C141.717 25.8885 141.271 26.2687 141.271 26.7977C141.271 27.1945 141.651 28.0376 142.411 29.3271C143.205 30.5835 143.965 31.8068 144.693 32.9971C146.875 36.4687 149.454 40.7339 152.43 45.7925L152.578 45.6934V39.6428C152.578 35.2123 152.347 31.8895 151.884 29.6742C151.421 27.4259 150.628 26.1199 149.504 25.7562L149.603 24.9131C150.462 25.0784 151.752 25.1611 153.471 25.1611C155.19 25.1611 156.959 24.9793 158.778 24.6156L158.927 25.905C157.571 26.3348 156.43 26.5994 155.505 26.6985C155.174 29.3436 155.009 32.7491 155.009 36.9151V39.246C155.009 44.2716 155.174 47.6771 155.505 49.4626C156.893 49.694 158.001 49.9585 158.827 50.2561L158.679 51.5455C157.025 51.1818 155.471 51 154.017 51C152.562 51 151.438 51.0661 150.644 51.1984C150.644 50.471 150.132 49.2477 149.107 47.5284C148.115 45.8091 147.206 44.2882 146.379 42.9656C143.701 38.6344 141.072 34.237 138.493 29.7734L138.295 29.8726V36.5183C138.295 43.0979 138.791 47.3796 139.783 49.3634C141.271 49.5287 142.726 49.7767 144.147 50.1073L143.999 51.3472ZM166.288 47.2308C167.808 47.859 169.313 48.1731 170.801 48.1731C172.288 48.1731 173.479 47.8259 174.371 47.1316C175.264 46.4373 175.711 45.4454 175.711 44.1559C175.711 42.8334 173.842 41.1968 170.106 39.246C168.685 38.5186 167.379 37.6425 166.188 36.6175C165.031 35.5595 164.453 34.518 164.453 33.493C164.453 31.7407 165.378 29.9718 167.23 28.1864C169.081 26.401 170.982 25.1942 172.933 24.566C175.38 24.566 177.595 24.8139 179.579 25.3099V26.2026C178.19 27.5913 177.413 29.4924 177.248 31.906H176.008C176.008 30.9802 175.925 29.823 175.76 28.4344C174.603 27.9054 173.363 27.6408 172.041 27.6408C170.718 27.6408 169.61 27.9384 168.718 28.5336C167.858 29.0956 167.428 29.9222 167.428 31.0133C167.428 31.7737 168.007 32.6003 169.164 33.493C170.354 34.3857 171.644 35.1793 173.032 35.8736C174.421 36.5679 175.694 37.4276 176.851 38.4525C178.041 39.4775 178.637 40.5024 178.637 41.5274C178.637 43.5112 177.76 45.495 176.008 47.4788C174.256 49.4295 172.322 50.8016 170.205 51.5951C168.123 51.5951 166.172 51.3472 164.353 50.8512C163.824 51.0827 163.279 51.4629 162.717 51.9919L161.824 51.3472C163.676 49.3303 164.7 46.834 164.899 43.8583H166.139C166.139 45.0156 166.188 46.1397 166.288 47.2308ZM199.976 27.8392C198.819 27.2772 197.711 26.9961 196.653 26.9961C195.595 26.9961 194.884 27.0622 194.521 27.1945C194.256 28.9799 194.124 32.435 194.124 37.5598C194.124 42.6846 194.306 46.6191 194.669 49.3634C196.157 49.5287 197.529 49.7767 198.786 50.1073L198.637 51.3472C196.918 51.1157 194.934 51 192.686 51C190.47 51 188.52 51.1323 186.833 51.3968L186.635 50.1073C187.296 49.9089 188.437 49.6609 190.057 49.3634C190.355 46.9828 190.503 43.6104 190.503 39.246V36.9151C190.503 34.6007 190.321 31.3605 189.958 27.1945C189.594 27.0622 188.916 26.9961 187.924 26.9961C186.933 26.9961 185.874 27.2276 184.75 27.6904C184.42 28.7154 184.188 30.0875 184.056 31.8068H182.767C182.767 29.0956 182.32 26.9961 181.427 25.5083L181.675 24.6652C184.221 24.9958 187.792 25.1611 192.388 25.1611C196.984 25.1611 200.687 24.9793 203.497 24.6156L203.795 25.5579C202.968 26.4836 202.406 27.3929 202.109 28.2856C201.811 29.1452 201.629 30.319 201.563 31.8068H200.323C200.092 30.7157 199.976 29.3932 199.976 27.8392Z" fill="#575757"/>
<defs>
<clipPath id="clip0_185_9832">
<rect width="50.4263" height="50.4263" fill="white" transform="translate(0 9.28683)"/>
</clipPath>
</defs>
</svg>
