<svg width="268" height="56" viewBox="0 0 268 56" fill="none" xmlns="http://www.w3.org/2000/svg">
<g clip-path="url(#clip0_185_9839)">
<path d="M40.4849 28.217C41.4017 27.9349 42.4596 27.9349 43.447 28.2875C43.7996 28.4286 44.1522 28.5696 44.5049 28.7812C44.8575 28.9928 45.2101 29.1339 45.4922 29.416C46.1975 29.8391 46.7617 30.4033 47.3259 30.9675C48.4543 32.1665 49.4417 33.7181 50.0059 35.4812C50.5701 37.2444 50.8522 39.3602 50.5701 41.476C50.3585 43.6623 49.6533 45.8486 48.4543 47.9644C47.7491 49.2339 46.5501 50.2212 45.3512 50.7149C45.0691 50.856 44.7164 50.9265 44.4343 50.997C44.1522 51.0675 43.7996 51.0675 43.5175 51.0675C42.9533 51.0675 42.3891 50.9265 41.8954 50.7149C40.9785 50.2212 40.5554 49.3749 40.4849 48.3875C40.4143 47.4707 40.767 46.4128 41.4017 45.496C42.1775 44.297 42.7417 43.0275 43.0238 41.7581C43.3059 40.4886 43.3059 39.1486 43.0943 37.9496C43.0238 37.6675 42.9533 37.3149 42.8828 37.0328C42.8122 36.8918 42.8122 36.7507 42.7417 36.6097C42.6712 36.4686 42.6712 36.3275 42.6007 36.1865C42.4596 35.9044 42.3891 35.6223 42.248 35.4107C42.107 35.1286 41.9659 34.917 41.8249 34.6349C41.1901 33.6475 40.4849 32.8718 39.568 32.1665C38.8628 31.6023 38.3691 30.9675 38.228 30.4739C38.0164 29.9096 38.1575 29.4865 38.6512 28.9928C38.8628 28.7812 39.1449 28.6402 39.427 28.4286C39.7796 28.4286 40.1322 28.2875 40.4849 28.217Z" fill="#A8A8A8"/>
<path d="M34.2117 38.6549C34.8464 39.2897 35.4812 40.2065 35.6222 41.2644C35.6927 41.6875 35.6927 42.0402 35.6927 42.3928C35.6927 42.816 35.6927 43.1686 35.6927 43.5918C35.6927 44.0149 35.6222 44.3675 35.5517 44.7907C35.4812 45.2139 35.4106 45.5665 35.2696 45.9897C34.7759 47.6118 33.9296 49.1633 32.6601 50.5739C31.3906 51.9844 29.698 53.1833 27.7233 54.1002C25.7485 54.9465 23.4212 55.5107 21.0233 55.5107C19.6127 55.5107 18.1317 55.017 17.0738 54.1707C16.0159 53.3244 15.3812 52.2665 15.3106 51.2086C15.2401 50.1507 15.8043 49.3749 16.5801 48.8107C17.0033 48.5286 17.4264 48.3875 17.9201 48.2465C18.4138 48.1054 18.978 48.1054 19.5422 48.1054C20.9527 48.176 22.3633 48.0349 23.5622 47.6118C24.197 47.4002 24.7612 47.1181 25.3254 46.836C25.6075 46.6949 25.8896 46.4833 26.1012 46.3423C26.3833 46.2012 26.5948 45.9897 26.8064 45.7781C27.3001 45.4254 27.7233 44.9318 28.0759 44.5086C28.2875 44.297 28.4285 44.0149 28.5696 43.8033C28.7106 43.5918 28.8517 43.3097 28.9927 43.0981C29.557 42.1107 29.8391 40.9823 30.0506 39.9244C30.1212 39.4307 30.1917 39.0781 30.3327 38.7254C30.4033 38.5844 30.4738 38.3728 30.5443 38.2318C30.6148 38.1612 30.6148 38.0907 30.6854 38.0202C30.7559 37.9497 30.7559 37.8791 30.8264 37.8791C31.1791 37.456 31.6727 37.3149 32.3075 37.5265C32.4485 37.597 32.5896 37.597 32.7306 37.6675C32.8717 37.7381 33.0127 37.8086 33.1538 37.8791C33.6475 38.1612 34.0001 38.3728 34.2117 38.6549Z" fill="#575757"/>
<path d="M22.0787 38.4437C21.8672 39.3605 21.3735 40.2774 20.5272 40.9826C19.3282 41.8995 17.8472 42.6753 16.2251 43.0279C14.603 43.3805 12.8398 43.4511 10.9356 43.0984C9.10191 42.7458 7.1977 41.8995 5.43454 40.63C3.74191 39.29 2.1198 37.5974 0.850329 35.4816C0.145066 34.2121 -0.137039 32.7311 0.00401315 31.3911C0.00401315 31.25 0.0745395 31.0384 0.0745395 30.8974C0.145066 30.7563 0.145066 30.6153 0.215592 30.4037C0.286118 30.1216 0.427171 29.8395 0.568224 29.5574C0.850329 29.0637 1.27349 28.6405 1.69664 28.3584C2.61349 27.7942 3.53033 27.8648 4.37664 28.2879C4.7998 28.4995 5.22296 28.7816 5.50507 29.2048C5.71664 29.4163 5.8577 29.6279 5.99875 29.8395C6.1398 30.0511 6.28086 30.3332 6.42191 30.5448C7.05664 31.8142 7.90296 32.9426 8.89033 33.789C9.8777 34.7058 11.0061 35.3405 12.1345 35.7637C12.6987 35.9753 13.263 36.1163 13.8977 36.1869C14.4619 36.2574 15.0966 36.3279 15.6609 36.2574C16.2251 36.2574 16.7893 36.1869 17.3535 36.0458C17.9177 35.9048 18.4114 35.7637 18.9051 35.5521C19.3282 35.4111 19.7514 35.27 20.104 35.1995C20.3156 35.1995 20.4566 35.129 20.5977 35.1995C20.7387 35.1995 20.8798 35.1995 21.0209 35.27C21.5851 35.4111 21.9377 35.6932 22.0787 36.3279C22.2903 36.9626 22.2903 37.7384 22.0787 38.4437Z" fill="#A8A8A8"/>
<path d="M16.1569 27.7946C15.24 28.0767 14.1821 28.0767 13.1948 27.7241C12.8421 27.583 12.4895 27.442 12.1369 27.2304C11.7842 27.0188 11.4316 26.8777 11.1495 26.5956C10.4442 26.1725 9.88003 25.6083 9.31582 25.0441C8.1874 23.8451 7.20003 22.2935 6.63582 20.5304C6.07161 18.7672 5.7895 16.6514 6.07161 14.5356C6.28319 12.3493 6.98845 10.163 8.1874 8.04722C8.89266 6.77775 10.0916 5.79038 11.2906 5.29669C11.5727 5.15564 11.9253 5.08511 12.2074 5.01459C12.4895 4.94406 12.8421 4.94406 13.1242 4.94406C13.6885 4.94406 14.2527 5.08511 14.7463 5.29669C15.6632 5.79038 16.0863 6.63669 16.1569 7.62406C16.2274 8.5409 15.8748 9.5988 15.24 10.5156C14.4642 11.7146 13.9 12.9841 13.6179 14.2535C13.3358 15.523 13.3358 16.863 13.5474 18.062C13.6179 18.3441 13.6885 18.6967 13.759 18.9788C13.8295 19.1199 13.8295 19.2609 13.9 19.402C13.9706 19.543 13.9706 19.6841 14.0411 19.8251C14.1821 20.1072 14.2527 20.3893 14.3937 20.6009C14.5348 20.883 14.6758 21.0946 14.8169 21.3767C15.4516 22.3641 16.1569 23.1399 17.0737 23.8451C17.779 24.4093 18.2727 25.0441 18.4137 25.5377C18.6253 26.102 18.4842 26.5251 17.9906 27.0188C17.779 27.2304 17.4969 27.3714 17.2148 27.583C16.8621 27.583 16.5095 27.7241 16.1569 27.7946Z" fill="#575757"/>
<path d="M22.4342 17.3558C21.7994 16.7211 21.1647 15.8042 21.0237 14.7463C20.9531 14.3232 20.9531 13.9705 20.9531 13.6179C20.9531 13.1947 20.9531 12.8421 20.9531 12.4189C20.9531 11.9958 21.0237 11.6432 21.0942 11.22C21.1647 10.7968 21.2352 10.4442 21.3763 10.0211C21.87 8.39895 22.7163 6.84737 23.9858 5.43684C25.2552 4.02632 26.9479 2.82737 28.9226 1.91053C30.8973 1.06421 33.2247 0.5 35.6226 0.5C37.0331 0.5 38.5142 0.993684 39.5721 1.84C40.63 2.68632 41.2647 3.74421 41.3352 4.8021C41.4058 5.86 40.8415 6.63579 40.0658 7.2C39.6426 7.48211 39.2194 7.62316 38.7258 7.76421C38.2321 7.90526 37.6679 7.90526 37.1036 7.90526C35.6931 7.83474 34.2826 7.97579 33.0837 8.39895C32.4489 8.61053 31.8847 8.89263 31.3205 9.17474C31.0384 9.31579 30.7563 9.52737 30.5447 9.66842C30.2626 9.80947 30.051 10.0211 29.8394 10.2326C29.3458 10.5853 28.9226 11.0789 28.57 11.5021C28.3584 11.7137 28.2173 11.9958 28.0763 12.2074C27.9352 12.4189 27.7942 12.7011 27.6531 12.9126C27.0889 13.9 26.8068 15.0284 26.5952 16.0863C26.5247 16.58 26.4542 16.9326 26.3131 17.2853C26.2426 17.4263 26.1721 17.6379 26.1015 17.7789C26.031 17.8495 26.031 17.92 25.9605 17.9905C25.89 18.0611 25.89 18.1316 25.8194 18.1316C25.4668 18.5547 24.9731 18.6958 24.3384 18.4842C24.1973 18.4137 24.0563 18.4137 23.9152 18.3432C23.7742 18.2726 23.6331 18.2021 23.4921 18.1316C22.9984 17.8495 22.7163 17.6379 22.4342 17.3558Z" fill="#A8A8A8"/>
<path d="M34.5632 17.5668C34.7748 16.65 35.2685 15.7331 36.1148 15.0279C37.3137 14.111 38.7948 13.3352 40.4169 12.9826C42.039 12.63 43.8022 12.5594 45.7064 12.9121C47.5401 13.2647 49.4443 14.111 51.2074 15.3805C52.9706 16.65 54.5222 18.4131 55.7916 20.4584C56.4969 21.7279 56.779 23.2089 56.638 24.5489C56.638 24.69 56.5674 24.9015 56.5674 25.0426C56.4969 25.1837 56.4969 25.3247 56.4264 25.5363C56.3559 25.8184 56.2148 26.1005 56.0737 26.3826C55.7916 26.8763 55.3685 27.2994 54.9453 27.5815C54.0285 28.1458 53.1116 28.0752 52.2653 27.6521C51.8422 27.4405 51.419 27.1584 51.1369 26.7352C50.9253 26.5237 50.7843 26.3121 50.6432 26.1005C50.5022 25.8889 50.3611 25.6068 50.2201 25.3952C49.5853 24.1258 48.739 22.9973 47.7516 22.151C46.7643 21.2342 45.6359 20.5994 44.5074 20.1763C43.9432 19.9647 43.379 19.8237 42.7443 19.7531C42.1801 19.6826 41.6159 19.6121 40.9811 19.6826C40.4169 19.6826 39.8527 19.7531 39.2885 19.8942C38.7243 20.0352 38.2306 20.1763 37.7369 20.3879C37.3137 20.5289 36.8906 20.67 36.538 20.7405C36.3264 20.7405 36.1853 20.811 36.0443 20.7405C35.9032 20.7405 35.7622 20.7405 35.6211 20.67C35.0569 20.5289 34.7043 20.2468 34.5632 19.6121C34.3516 19.0479 34.4222 18.3426 34.5632 17.5668Z" fill="#575757"/>
</g>
<path d="M67.8761 13.4366H92.6057V19.4625H83.5277V41.9617H77.4627V19.4625H67.8761V13.4366ZM107.727 31.1621C107.727 30.4578 107.635 29.8839 107.453 29.4404C107.296 28.9969 107.074 28.6448 106.788 28.3839C106.501 28.1231 106.174 27.9405 105.809 27.8361C105.47 27.7318 105.131 27.6796 104.792 27.6796H102.953C102.718 27.6796 102.444 27.7187 102.131 27.797C101.818 27.8492 101.518 27.9405 101.231 28.0709C100.97 28.2013 100.749 28.3709 100.566 28.5796C100.383 28.7883 100.292 29.023 100.292 29.2839V41.9617H95.0097V13.4366H100.292V24.1971C100.683 23.9884 101.153 23.8058 101.701 23.6493C102.275 23.4667 102.849 23.3754 103.422 23.3754H105.535C106.318 23.3754 107.088 23.5058 107.844 23.7667C108.627 24.0276 109.331 24.4449 109.957 25.0188C110.583 25.5666 111.092 26.297 111.483 27.2101C111.874 28.097 112.07 29.1795 112.07 30.4578V41.9617H107.727V31.1621ZM123.924 23.3363C124.837 23.3363 125.711 23.4797 126.546 23.7667C127.381 24.0536 128.111 24.458 128.737 24.9797C129.389 25.5014 129.898 26.1536 130.263 26.9361C130.654 27.6926 130.85 28.5404 130.85 29.4795V33.9011H119.229V35.7011C119.229 35.9358 119.268 36.2228 119.346 36.5619C119.45 36.901 119.62 37.2271 119.855 37.5401C120.09 37.8271 120.416 38.0749 120.833 38.2836C121.25 38.4923 121.785 38.5966 122.437 38.5966H123.963C125.842 38.5966 126.781 37.7358 126.781 36.0141H131.202V37.188C131.202 38.1271 131.02 38.9096 130.654 39.5357C130.289 40.1357 129.807 40.6183 129.207 40.9835C128.607 41.3487 127.915 41.5965 127.133 41.7269C126.35 41.8834 125.542 41.9617 124.707 41.9617H120.95C120.298 41.9617 119.62 41.8704 118.916 41.6878C118.237 41.5052 117.585 41.1922 116.959 40.7487C116.359 40.3313 115.838 39.7705 115.394 39.0662C114.951 38.3357 114.651 37.4488 114.494 36.4054V29.4795C114.494 28.6187 114.69 27.8231 115.081 27.0927C115.472 26.3362 115.994 25.684 116.646 25.1362C117.298 24.5623 118.055 24.1189 118.916 23.8058C119.803 23.4928 120.729 23.3363 121.694 23.3363H123.924ZM119.229 30.9664H126.389V29.7926C126.389 29.4534 126.298 29.1274 126.115 28.8143C125.959 28.4752 125.737 28.1883 125.45 27.9535C125.163 27.6926 124.837 27.497 124.472 27.3666C124.107 27.2101 123.742 27.1318 123.376 27.1318H122.124C121.759 27.1318 121.394 27.2101 121.029 27.3666C120.69 27.497 120.377 27.6926 120.09 27.9535C119.829 28.1883 119.62 28.4752 119.463 28.8143C119.307 29.1274 119.229 29.4534 119.229 29.7926V30.9664ZM154.149 17.3495H141.667V25.1753H152.662V28.9709H141.667V41.9617H135.054V13.4758H154.149V17.3495ZM161.822 41.9617H156.696V13.4366H161.822V41.9617ZM171.352 41.9617C170.518 41.9617 169.709 41.8443 168.926 41.6095C168.17 41.3748 167.505 41.0096 166.931 40.5139C166.357 40.0444 165.9 39.4444 165.561 38.714C165.222 37.9575 165.052 37.0706 165.052 36.0532V29.0882C165.052 28.2796 165.235 27.5231 165.6 26.8188C165.992 26.1144 166.5 25.5014 167.126 24.9797C167.778 24.458 168.535 24.0536 169.396 23.7667C170.257 23.4797 171.17 23.3363 172.135 23.3363H174.561C175.656 23.3363 176.648 23.4928 177.535 23.8058C178.448 24.1189 179.23 24.5362 179.882 25.058C180.535 25.5797 181.03 26.2057 181.369 26.9361C181.735 27.6666 181.917 28.4361 181.917 29.2448V36.4445C181.917 37.2532 181.774 37.9966 181.487 38.6749C181.2 39.3531 180.782 39.927 180.235 40.3965C179.687 40.8922 179.035 41.2704 178.278 41.5313C177.522 41.8182 176.674 41.9617 175.735 41.9617H171.352ZM174.365 38.401C174.809 38.401 175.187 38.3227 175.5 38.1662C175.839 37.9836 176.113 37.7749 176.322 37.5401C176.556 37.2793 176.726 37.0054 176.83 36.7184C176.935 36.4054 176.987 36.1054 176.987 35.8184V30.2621C176.987 29.6361 176.726 29.0361 176.204 28.4622C175.709 27.8622 175.004 27.5622 174.091 27.5622H172.996C172.63 27.5622 172.265 27.6144 171.9 27.7187C171.561 27.8231 171.235 27.9926 170.922 28.2274C170.635 28.4361 170.4 28.71 170.218 29.0491C170.035 29.3882 169.944 29.8056 169.944 30.3012V35.6228C169.944 35.8315 169.97 36.1054 170.022 36.4445C170.1 36.7575 170.231 37.0575 170.413 37.3445C170.622 37.6314 170.896 37.8792 171.235 38.0879C171.6 38.2966 172.057 38.401 172.604 38.401H174.365ZM205.298 23.3754H212.537L205.455 41.9617H200.446L197.981 35.5054L195.516 41.9617H190.781L183.699 23.3754H189.255C189.907 25.071 190.547 26.7535 191.173 28.4231C191.799 30.0665 192.451 31.736 193.129 33.4316C193.155 33.3272 193.233 33.1055 193.364 32.7664C193.52 32.4273 193.69 32.0229 193.873 31.5534C194.055 31.0577 194.251 30.523 194.46 29.9491C194.694 29.3491 194.929 28.7491 195.164 28.1491L193.364 23.3754H197.512C198.164 25.071 198.803 26.7535 199.429 28.4231C200.055 30.0665 200.707 31.736 201.385 33.4316L205.298 23.3754Z" fill="#575757"/>
<defs>
<clipPath id="clip0_185_9839">
<rect width="56.6326" height="55.0105" fill="white" transform="translate(0 0.5)"/>
</clipPath>
</defs>
</svg>
