<svg width="51" height="51" viewBox="0 0 51 51" fill="none" xmlns="http://www.w3.org/2000/svg">
<path fill-rule="evenodd" clip-rule="evenodd" d="M25.1562 5.03418C13.9591 5.03418 4.88281 14.1474 4.88281 25.3901C4.88281 36.6329 13.9591 45.7461 25.1562 45.7461C36.3534 45.7461 45.4297 36.6329 45.4297 25.3901C45.4297 14.1474 36.3534 5.03418 25.1562 5.03418ZM26.7157 12.8634C26.7157 12.4481 26.5514 12.0498 26.259 11.7562C25.9665 11.4625 25.5698 11.2975 25.1562 11.2975C24.7426 11.2975 24.346 11.4625 24.0535 11.7562C23.7611 12.0498 23.5967 12.4481 23.5967 12.8634V25.3901C23.5967 26.2545 24.2954 26.956 25.1562 26.956H34.5132C34.9268 26.956 35.3235 26.791 35.6159 26.4973C35.9084 26.2037 36.0727 25.8054 36.0727 25.3901C36.0727 24.9748 35.9084 24.5766 35.6159 24.2829C35.3235 23.9893 34.9268 23.8243 34.5132 23.8243H26.7157V12.8634Z" fill="#FD461E"/>
</svg>
