<svg width="51" height="51" viewBox="0 0 51 51" fill="none" xmlns="http://www.w3.org/2000/svg">
<path fill-rule="evenodd" clip-rule="evenodd" d="M22.805 8.16602C21.0796 8.16586 19.3729 8.52505 17.7928 9.22087C16.2128 9.9167 14.7936 10.934 13.625 12.2086C12.4564 13.4832 11.5639 14.9873 11.0037 16.6258C10.4436 18.2644 10.228 20.0018 10.3706 21.7283C8.12182 22.7863 6.29951 24.5825 5.20448 26.8206C4.10945 29.0586 3.80714 31.6046 4.34746 34.0384C4.88778 36.4722 6.23842 38.6483 8.17646 40.2074C10.1145 41.7666 12.5241 42.6157 15.0075 42.6145H38.3999C40.4693 42.6152 42.4805 41.9271 44.1189 40.6578C45.7572 39.3885 46.9303 37.6098 47.4546 35.5998C47.9789 33.5898 47.8248 31.462 47.0164 29.5493C46.208 27.6366 44.7909 26.047 42.9869 25.0291C43.1718 23.8379 43.0802 22.6198 42.7193 21.47C42.3584 20.3201 41.7378 19.2695 40.9061 18.4C40.0743 17.5305 39.0538 16.8656 37.9241 16.4572C36.7944 16.0488 35.586 15.9078 34.3931 16.0453C33.4673 13.7194 31.8684 11.7254 29.8028 10.3209C27.7371 8.91639 25.2997 8.1658 22.805 8.16602ZM27.026 19.5862C26.7336 19.293 26.3372 19.1283 25.924 19.1283C25.5107 19.1283 25.1143 19.293 24.8219 19.5862L18.5839 25.8496C18.4307 25.9929 18.3078 26.1658 18.2226 26.3579C18.1374 26.55 18.0915 26.7573 18.0878 26.9675C18.0841 27.1778 18.1227 27.3866 18.2011 27.5816C18.2795 27.7766 18.3963 27.9537 18.5444 28.1024C18.6924 28.2511 18.8688 28.3683 19.063 28.447C19.2572 28.5258 19.4652 28.5645 19.6746 28.5608C19.884 28.5571 20.0905 28.511 20.2818 28.4255C20.4731 28.3399 20.6453 28.2165 20.788 28.0626L24.3645 24.4716V34.7853C24.3645 35.2006 24.5288 35.5989 24.8212 35.8925C25.1137 36.1862 25.5104 36.3512 25.924 36.3512C26.3376 36.3512 26.7342 36.1862 27.0267 35.8925C27.3192 35.5989 27.4835 35.2006 27.4835 34.7853V24.4716L31.0599 28.0626C31.2027 28.2165 31.3748 28.3399 31.5661 28.4255C31.7574 28.511 31.9639 28.5571 32.1733 28.5608C32.3827 28.5645 32.5907 28.5258 32.7849 28.447C32.9791 28.3683 33.1555 28.2511 33.3036 28.1024C33.4517 27.9537 33.5684 27.7766 33.6468 27.5816C33.7253 27.3866 33.7638 27.1778 33.7601 26.9675C33.7564 26.7573 33.7106 26.55 33.6253 26.3579C33.5401 26.1658 33.4172 25.9929 33.264 25.8496L27.026 19.5862Z" fill="#FD461E"/>
</svg>
