<svg width="51" height="51" viewBox="0 0 51 51" fill="none" xmlns="http://www.w3.org/2000/svg">
<path fill-rule="evenodd" clip-rule="evenodd" d="M3.26562 15.2252C3.26562 13.0622 5.01226 11.3105 7.16436 11.3105H19.6403C21.7945 11.3105 23.5391 13.0643 23.5391 15.2252V23.0544C23.5391 25.2173 21.7924 26.969 19.6403 26.969H7.16436C6.13035 26.969 5.13869 26.5565 4.40754 25.8224C3.67638 25.0883 3.26563 24.0926 3.26562 23.0544V15.2252ZM28.2175 18.3568C28.2175 16.1939 29.9642 14.4422 32.1163 14.4422H43.0327C45.1848 14.4422 46.9315 16.196 46.9315 18.3568V35.5811C46.9315 37.7419 45.1848 39.4957 43.0327 39.4957H32.1163C31.0823 39.4957 30.0906 39.0833 29.3595 38.3491C28.6283 37.615 28.2175 36.6193 28.2175 35.5811V18.3568ZM6.38461 34.0152C6.38461 31.8523 8.13125 30.1006 10.2834 30.1006H21.1998C23.354 30.1006 25.0985 31.8544 25.0985 34.0152V38.7128C25.0985 40.8736 23.3519 42.6274 21.1998 42.6274H10.2834C9.24934 42.6274 8.25768 42.2149 7.52653 41.4808C6.79537 40.7467 6.38461 39.751 6.38461 38.7128V34.0152Z" fill="#FD461E"/>
</svg>
