<svg width="44" height="44" viewBox="0 0 44 44" fill="none" xmlns="http://www.w3.org/2000/svg">
<g clip-path="url(#clip0_185_9924)">
<path fill-rule="evenodd" clip-rule="evenodd" d="M16.0793 1.0504C11.9044 2.26655 8.1929 4.71279 5.42911 8.06996C2.66531 11.4271 0.977526 15.5394 0.585938 19.8702H10.4602C11.0358 13.2798 12.9466 6.8756 16.0762 1.04731L16.0793 1.0504ZM10.4602 23.7273H0.585938C0.976711 28.0583 2.66378 32.1709 5.42703 35.5286C8.19027 38.8864 11.9014 41.3333 16.0762 42.5502C12.9466 36.7219 11.0358 30.3176 10.4602 23.7273ZM21.0257 43.3741C17.2845 37.4405 14.9908 30.7106 14.3297 23.7273H29.8663C29.2052 30.7106 26.9115 37.4405 23.1703 43.3741C22.4559 43.4096 21.7401 43.4096 21.0257 43.3741ZM28.1229 42.5471C32.2972 41.3304 36.008 38.8839 38.7712 35.5268C41.5344 32.1697 43.2218 28.0577 43.6131 23.7273H33.7388C33.1633 30.3176 31.2525 36.7219 28.1229 42.5502V42.5471ZM33.7388 19.8702H43.6131C43.2224 15.5392 41.5353 11.4266 38.772 8.06884C36.0088 4.71111 32.2977 2.26419 28.1229 1.04731C31.2525 6.8756 33.1633 13.2798 33.7388 19.8702ZM21.0257 0.223425C21.7411 0.187813 22.4579 0.187813 23.1734 0.223425C26.9135 6.1572 29.2061 12.8872 29.8663 19.8702H14.3328C15.0024 12.844 17.3013 6.10788 21.0257 0.223425Z" fill="#121212"/>
</g>
<defs>
<clipPath id="clip0_185_9924">
<rect width="43.2" height="43.2" fill="white" transform="translate(0.5 0.200012)"/>
</clipPath>
</defs>
</svg>
