<svg width="32" height="33" viewBox="0 0 32 33" fill="none" xmlns="http://www.w3.org/2000/svg">
<g clip-path="url(#clip0_286_5110)">
<path opacity="0.8" d="M32 16.8086C32 7.97109 24.8375 0.808594 16 0.808594C7.1625 0.808594 0 7.97109 0 16.8086C0 25.6461 7.1625 32.8086 16 32.8086C16.0938 32.8086 16.1875 32.8086 16.2812 32.8023V20.3523H12.8438V16.3461H16.2812V13.3961C16.2812 9.97734 18.3688 8.11484 21.4188 8.11484C22.8813 8.11484 24.1375 8.22109 24.5 8.27109V11.8461H22.4C20.7437 11.8461 20.4188 12.6336 20.4188 13.7898V16.3398H24.3875L23.8687 20.3461H20.4188V32.1898C27.1063 30.2711 32 24.1148 32 16.8086Z" fill="#121212"/>
</g>
<defs>
<clipPath id="clip0_286_5110">
<rect width="32" height="32" fill="white" transform="translate(0 0.808594)"/>
</clipPath>
</defs>
</svg>
