<svg width="50" height="51" viewBox="0 0 50 51" fill="none" xmlns="http://www.w3.org/2000/svg">
<path fill-rule="evenodd" clip-rule="evenodd" d="M4.70312 12.8766C4.70313 11.2155 5.36034 9.62239 6.53019 8.44778C7.70003 7.27317 9.28669 6.61328 10.9411 6.61328H39.012C40.6664 6.61328 42.2531 7.27317 43.4229 8.44778C44.5928 9.62239 45.25 11.2155 45.25 12.8766V37.9301C45.25 39.5913 44.5928 41.1844 43.4229 42.359C42.2531 43.5336 40.6664 44.1935 39.012 44.1935H10.9411C9.28669 44.1935 7.70003 43.5336 6.53019 42.359C5.36034 41.1844 4.70313 39.5913 4.70312 37.9301V12.8766ZM12.958 14.9018C13.2505 14.6086 13.6468 14.4439 14.0601 14.4439C14.4734 14.4439 14.8697 14.6086 15.1621 14.9018L19.8406 19.5993C20.1327 19.8929 20.2967 20.2909 20.2967 20.7059C20.2967 21.1208 20.1327 21.5188 19.8406 21.8124L15.1621 26.5099C14.8665 26.7865 14.4755 26.9371 14.0715 26.9299C13.6675 26.9228 13.282 26.7584 12.9963 26.4715C12.7105 26.1846 12.5469 25.7976 12.5397 25.3919C12.5326 24.9863 12.6826 24.5937 12.958 24.2969L16.5345 20.7059L12.958 17.1149C12.666 16.8213 12.502 16.4233 12.502 16.0083C12.502 15.5934 12.666 15.1954 12.958 14.9018ZM21.8576 23.8375C21.444 23.8375 21.0473 24.0025 20.7548 24.2962C20.4624 24.5898 20.2981 24.9881 20.2981 25.4034C20.2981 25.8187 20.4624 26.2169 20.7548 26.5106C21.0473 26.8042 21.444 26.9692 21.8576 26.9692H28.0955C28.5091 26.9692 28.9058 26.8042 29.1983 26.5106C29.4907 26.2169 29.655 25.8187 29.655 25.4034C29.655 24.9881 29.4907 24.5898 29.1983 24.2962C28.9058 24.0025 28.5091 23.8375 28.0955 23.8375H21.8576Z" fill="#FD461E"/>
</svg>
