<svg width="36" height="37" viewBox="0 0 36 37" fill="none" xmlns="http://www.w3.org/2000/svg">
<path fill-rule="evenodd" clip-rule="evenodd" d="M4.5 9.39893C4.5 8.20545 4.97411 7.06086 5.81802 6.21695C6.66193 5.37303 7.80653 4.89893 9 4.89893H12.375C13.5685 4.89893 14.7131 5.37303 15.557 6.21695C16.4009 7.06086 16.875 8.20545 16.875 9.39893V12.7739C16.875 13.9674 16.4009 15.112 15.557 15.9559C14.7131 16.7998 13.5685 17.2739 12.375 17.2739H9C7.80653 17.2739 6.66193 16.7998 5.81802 15.9559C4.97411 15.112 4.5 13.9674 4.5 12.7739V9.39893ZM19.125 9.39893C19.125 8.20545 19.5991 7.06086 20.443 6.21695C21.2869 5.37303 22.4315 4.89893 23.625 4.89893H27C28.1935 4.89893 29.3381 5.37303 30.182 6.21695C31.0259 7.06086 31.5 8.20545 31.5 9.39893V12.7739C31.5 13.9674 31.0259 15.112 30.182 15.9559C29.3381 16.7998 28.1935 17.2739 27 17.2739H23.625C22.4315 17.2739 21.2869 16.7998 20.443 15.9559C19.5991 15.112 19.125 13.9674 19.125 12.7739V9.39893ZM4.5 24.0239C4.5 22.8305 4.97411 21.6859 5.81802 20.8419C6.66193 19.998 7.80653 19.5239 9 19.5239H12.375C13.5685 19.5239 14.7131 19.998 15.557 20.8419C16.4009 21.6859 16.875 22.8305 16.875 24.0239V27.3989C16.875 28.5924 16.4009 29.737 15.557 30.5809C14.7131 31.4248 13.5685 31.8989 12.375 31.8989H9C7.80653 31.8989 6.66193 31.4248 5.81802 30.5809C4.97411 29.737 4.5 28.5924 4.5 27.3989V24.0239ZM19.125 24.0239C19.125 22.8305 19.5991 21.6859 20.443 20.8419C21.2869 19.998 22.4315 19.5239 23.625 19.5239H27C28.1935 19.5239 29.3381 19.998 30.182 20.8419C31.0259 21.6859 31.5 22.8305 31.5 24.0239V27.3989C31.5 28.5924 31.0259 29.737 30.182 30.5809C29.3381 31.4248 28.1935 31.8989 27 31.8989H23.625C22.4315 31.8989 21.2869 31.4248 20.443 30.5809C19.5991 29.737 19.125 28.5924 19.125 27.3989V24.0239Z" fill="#FD461E"/>
</svg>
