<svg width="32" height="33" viewBox="0 0 32 33" fill="none" xmlns="http://www.w3.org/2000/svg">
<g clip-path="url(#clip0_286_5112)">
<path opacity="0.8" d="M19.0625 16.8086C19.0625 18.5 17.6914 19.8711 16 19.8711C14.3086 19.8711 12.9375 18.5 12.9375 16.8086C12.9375 15.1172 14.3086 13.7461 16 13.7461C17.6914 13.7461 19.0625 15.1172 19.0625 16.8086Z" fill="#121212"/>
<path opacity="0.8" d="M23.1631 11.3899C23.0159 10.991 22.781 10.6299 22.4758 10.3335C22.1794 10.0283 21.8186 9.79346 21.4194 9.64624C21.0957 9.52051 20.6094 9.37085 19.7136 9.33008C18.7446 9.28589 18.4541 9.27637 16.001 9.27637C13.5476 9.27637 13.2571 9.28564 12.2883 9.32983C11.3926 9.37085 10.906 9.52051 10.5825 9.64624C10.1833 9.79346 9.82227 10.0283 9.52612 10.3335C9.22095 10.6299 8.98608 10.9907 8.83862 11.3899C8.71289 11.7136 8.56323 12.2002 8.52246 13.0959C8.47827 14.0647 8.46875 14.3552 8.46875 16.8086C8.46875 19.2617 8.47827 19.5522 8.52246 20.5212C8.56323 21.417 8.71289 21.9033 8.83862 22.227C8.98608 22.6262 9.2207 22.9871 9.52588 23.2834C9.82227 23.5886 10.1831 23.8235 10.5823 23.9707C10.906 24.0967 11.3926 24.2463 12.2883 24.2871C13.2571 24.3313 13.5474 24.3406 16.0007 24.3406C18.4543 24.3406 18.7449 24.3313 19.7134 24.2871C20.6091 24.2463 21.0957 24.0967 21.4194 23.9707C22.2207 23.6616 22.854 23.0283 23.1631 22.227C23.2888 21.9033 23.4385 21.417 23.4795 20.5212C23.5237 19.5522 23.533 19.2617 23.533 16.8086C23.533 14.3552 23.5237 14.0647 23.4795 13.0959C23.4387 12.2002 23.2891 11.7136 23.1631 11.3899ZM16.001 21.5261C13.3953 21.5261 11.283 19.4141 11.283 16.8083C11.283 14.2026 13.3953 12.0906 16.001 12.0906C18.6064 12.0906 20.7187 14.2026 20.7187 16.8083C20.7187 19.4141 18.6064 21.5261 16.001 21.5261ZM20.9053 13.0066C20.2964 13.0066 19.8027 12.5129 19.8027 11.9041C19.8027 11.2952 20.2964 10.8015 20.9053 10.8015C21.5142 10.8015 22.0078 11.2952 22.0078 11.9041C22.0076 12.5129 21.5142 13.0066 20.9053 13.0066Z" fill="#121212"/>
<path opacity="0.8" d="M16 0.808594C7.16479 0.808594 0 7.97339 0 16.8086C0 25.6438 7.16479 32.8086 16 32.8086C24.8352 32.8086 32 25.6438 32 16.8086C32 7.97339 24.8352 0.808594 16 0.808594ZM25.1321 20.5964C25.0876 21.5745 24.9321 22.2422 24.7051 22.8267C24.2278 24.0608 23.2522 25.0364 22.0181 25.5137C21.4338 25.7407 20.7659 25.896 19.7881 25.9407C18.8083 25.9854 18.4954 25.9961 16.0002 25.9961C13.5049 25.9961 13.1921 25.9854 12.2122 25.9407C11.2344 25.896 10.5664 25.7407 9.98218 25.5137C9.3689 25.283 8.81372 24.9214 8.35474 24.4539C7.88745 23.9951 7.52588 23.4397 7.29517 22.8267C7.06812 22.2424 6.9126 21.5745 6.86816 20.5967C6.823 19.6167 6.8125 19.3037 6.8125 16.8086C6.8125 14.3135 6.823 14.0005 6.86792 13.0208C6.91235 12.0427 7.06763 11.375 7.29468 10.7905C7.52539 10.1775 7.88721 9.62207 8.35474 9.16333C8.81348 8.6958 9.3689 8.33423 9.98193 8.10352C10.5664 7.87646 11.2341 7.72119 12.2122 7.67651C13.1919 7.63184 13.5049 7.62109 16 7.62109C18.4951 7.62109 18.8081 7.63184 19.7878 7.67676C20.7659 7.72119 21.4336 7.87646 22.0181 8.10327C22.6311 8.33398 23.1865 8.6958 23.6455 9.16333C24.1128 9.62231 24.4746 10.1775 24.7051 10.7905C24.9324 11.375 25.0876 12.0427 25.1323 13.0208C25.177 14.0005 25.1875 14.3135 25.1875 16.8086C25.1875 19.3037 25.177 19.6167 25.1321 20.5964Z" fill="#121212"/>
</g>
<defs>
<clipPath id="clip0_286_5112">
<rect width="32" height="32" fill="white" transform="translate(0 0.808594)"/>
</clipPath>
</defs>
</svg>
