<svg width="50" height="51" viewBox="0 0 50 51" fill="none" xmlns="http://www.w3.org/2000/svg">
<path d="M24.2228 43.9798L24.2082 43.9736L24.1625 43.9485C23.8948 43.8007 23.6293 43.6489 23.3661 43.4934C20.201 41.605 17.243 39.3866 14.5414 36.8751C9.7569 32.3926 4.6875 25.7409 4.6875 17.5484C4.6875 11.4354 9.81096 6.58755 15.9949 6.58755C17.714 6.5791 19.4128 6.95989 20.9651 7.70161C22.5174 8.44332 23.8832 9.52688 24.9609 10.8717C26.0389 9.5266 27.405 8.44288 28.9577 7.70115C30.5103 6.95942 32.2096 6.57878 33.9291 6.58755C40.1109 6.58755 45.2344 11.4354 45.2344 17.5484C45.2344 25.743 40.165 32.3947 35.3804 36.873C32.6789 39.3846 29.7209 41.6029 26.5558 43.4913C26.2925 43.6476 26.027 43.8 25.7594 43.9485L25.7136 43.9736L25.6991 43.9819L25.6929 43.984C25.4674 44.1039 25.2161 44.1666 24.9609 44.1666C24.7058 44.1666 24.4545 44.1039 24.229 43.984L24.2228 43.9798Z" fill="#FD461E"/>
</svg>
