<svg width="32" height="33" viewBox="0 0 32 33" fill="none" xmlns="http://www.w3.org/2000/svg">
<path opacity="0.8" d="M16 0.808594C7.16479 0.808594 0 7.97339 0 16.8086C0 25.6438 7.16479 32.8086 16 32.8086C24.8352 32.8086 32 25.6438 32 16.8086C32 7.97339 24.8352 0.808594 16 0.808594ZM11.3506 24.9961H7.45386V13.2727H11.3506V24.9961ZM9.40234 11.6719H9.37695C8.06934 11.6719 7.22363 10.7717 7.22363 9.64673C7.22363 8.49634 8.09521 7.62109 9.42822 7.62109C10.7612 7.62109 11.5815 8.49634 11.6069 9.64673C11.6069 10.7717 10.7612 11.6719 9.40234 11.6719ZM25.4014 24.9961H21.5051V18.7244C21.5051 17.1482 20.9409 16.0732 19.531 16.0732C18.4546 16.0732 17.8135 16.7983 17.5317 17.4983C17.4287 17.7488 17.4036 18.0989 17.4036 18.4492V24.9961H13.5071C13.5071 24.9961 13.5581 14.3726 13.5071 13.2727H17.4036V14.9326C17.9214 14.1338 18.8479 12.9976 20.9153 12.9976C23.479 12.9976 25.4014 14.6731 25.4014 18.2739V24.9961Z" fill="#121212"/>
</svg>
