<svg width="30" height="30" viewBox="0 0 30 30" fill="none" xmlns="http://www.w3.org/2000/svg">
<path fill-rule="evenodd" clip-rule="evenodd" d="M3.19688 3.49756C2.95818 3.49756 2.72926 3.59238 2.56048 3.76116C2.3917 3.92995 2.29688 4.15886 2.29688 4.39756C2.29688 4.63625 2.3917 4.86517 2.56048 5.03395C2.72926 5.20274 2.95818 5.29756 3.19688 5.29756H4.09688V17.8976C4.09688 18.8523 4.47616 19.768 5.15129 20.4431C5.82642 21.1183 6.7421 21.4976 7.69688 21.4976H9.14888L7.74248 25.7132C7.66705 25.9398 7.68473 26.187 7.79162 26.4006C7.89852 26.6142 8.08587 26.7765 8.31248 26.852C8.53908 26.9274 8.78636 26.9097 8.99993 26.8028C9.21349 26.6959 9.37585 26.5086 9.45128 26.282L9.84608 25.0976H19.9477L20.3437 26.282C20.4256 26.4998 20.5888 26.6775 20.7989 26.7776C21.0091 26.8778 21.2498 26.8926 21.4707 26.819C21.6915 26.7454 21.8752 26.589 21.9833 26.3829C22.0913 26.1767 22.1153 25.9366 22.0501 25.7132L20.6461 21.4976H22.0969C23.0517 21.4976 23.9673 21.1183 24.6425 20.4431C25.3176 19.768 25.6969 18.8523 25.6969 17.8976V5.29756H26.5969C26.8356 5.29756 27.0645 5.20274 27.2333 5.03395C27.4021 4.86517 27.4969 4.63625 27.4969 4.39756C27.4969 4.15886 27.4021 3.92995 27.2333 3.76116C27.0645 3.59238 26.8356 3.49756 26.5969 3.49756H3.19688ZM11.0449 21.4976H18.7489L19.3489 23.2976H10.4449L11.0449 21.4976ZM20.7469 10.7036C20.8501 10.6449 20.9406 10.5664 21.0133 10.4726C21.0861 10.3788 21.1395 10.2715 21.1706 10.157C21.2017 10.0424 21.2098 9.92287 21.1945 9.80517C21.1792 9.68747 21.1408 9.57395 21.0815 9.47116C21.0221 9.36837 20.943 9.27834 20.8487 9.20624C20.7545 9.13414 20.6468 9.08141 20.5321 9.05107C20.4173 9.02073 20.2977 9.01339 20.1801 9.02947C20.0625 9.04555 19.9493 9.08473 19.8469 9.14476C18.2107 10.0918 16.7633 11.3326 15.5773 12.8048L13.7329 10.9616C13.5641 10.793 13.3354 10.6984 13.0969 10.6984C12.8584 10.6984 12.6296 10.793 12.4609 10.9616L8.86088 14.5616C8.77245 14.644 8.70153 14.7433 8.65234 14.8537C8.60315 14.9641 8.5767 15.0833 8.57457 15.2041C8.57243 15.325 8.59466 15.445 8.63993 15.5571C8.68519 15.6691 8.75257 15.7709 8.83803 15.8564C8.92349 15.9419 9.02529 16.0092 9.13736 16.0545C9.24942 16.0998 9.36946 16.122 9.4903 16.1199C9.61115 16.1177 9.73032 16.0913 9.84072 16.0421C9.95112 15.9929 10.0505 15.922 10.1329 15.8336L13.0969 12.8696L15.0373 14.8112C15.1304 14.9043 15.2427 14.9758 15.3665 15.0207C15.4902 15.0657 15.6223 15.0829 15.7535 15.0712C15.8846 15.0596 16.0116 15.0193 16.1254 14.9532C16.2393 14.8871 16.3373 14.7968 16.4125 14.6888C17.5483 13.0592 19.0279 11.6988 20.7469 10.7036Z" fill="#FD461E"/>
</svg>
