<svg width="51" height="51" viewBox="0 0 51 51" fill="none" xmlns="http://www.w3.org/2000/svg">
<path fill-rule="evenodd" clip-rule="evenodd" d="M19.4921 16.1445C25.4806 8.41758 34.8375 3.44238 45.3485 3.44238C45.7621 3.44238 46.1588 3.60735 46.4513 3.90101C46.7437 4.19466 46.908 4.59294 46.908 5.00822C46.908 15.5641 41.953 24.957 34.2574 30.972C34.5775 32.9851 34.4587 35.044 33.9093 37.0065C33.36 38.9691 32.393 40.7886 31.0753 42.3396C29.7576 43.8905 28.1205 45.1359 26.2768 45.9899C24.4332 46.8439 22.427 47.2861 20.3966 47.2859C19.983 47.2859 19.5864 47.121 19.2939 46.8273C19.0014 46.5337 18.8371 46.1354 18.8371 45.7201V37.0954C16.8159 35.4928 14.9888 33.6576 13.3935 31.6275H4.80168C4.38808 31.6275 3.99141 31.4626 3.69895 31.1689C3.40649 30.8752 3.24219 30.477 3.24219 30.0617C3.24202 28.0229 3.68245 26.0083 4.53308 24.157C5.38371 22.3057 6.62428 20.6617 8.16917 19.3386C9.71406 18.0155 11.5265 17.0447 13.4814 16.4933C15.4362 15.9418 17.487 15.8228 19.4921 16.1445ZM31.3131 14.4033C30.0723 14.4033 28.8823 14.8982 28.0049 15.7791C27.1275 16.6601 26.6346 17.8549 26.6346 19.1008C26.6346 20.3467 27.1275 21.5415 28.0049 22.4224C28.8823 23.3034 30.0723 23.7983 31.3131 23.7983C32.5539 23.7983 33.7439 23.3034 34.6213 22.4224C35.4987 21.5415 35.9916 20.3467 35.9916 19.1008C35.9916 17.8549 35.4987 16.6601 34.6213 15.7791C33.7439 14.8982 32.5539 14.4033 31.3131 14.4033Z" fill="#FD461E"/>
<path d="M11.0651 36.3096C11.2293 36.1866 11.3678 36.0324 11.4727 35.8557C11.5776 35.6789 11.6468 35.4832 11.6763 35.2797C11.7058 35.0761 11.6952 34.8687 11.6449 34.6693C11.5946 34.4698 11.5057 34.2823 11.3832 34.1174C11.2607 33.9525 11.1071 33.8134 10.9311 33.7081C10.7551 33.6028 10.5602 33.5333 10.3574 33.5037C10.1547 33.474 9.94813 33.4847 9.74952 33.5352C9.55091 33.5857 9.36415 33.675 9.1999 33.798C7.60483 34.9893 6.36455 36.5959 5.61324 38.4439C4.86192 40.2919 4.62818 42.3111 4.93728 44.2829C4.98755 44.6113 5.14057 44.9151 5.37419 45.1504C5.60782 45.3858 5.90994 45.5404 6.23686 45.5919C8.20085 45.902 10.2119 45.667 12.0525 44.9123C13.893 44.1575 15.493 42.9118 16.6792 41.3098C16.8057 41.1454 16.8982 40.9573 16.9515 40.7565C17.0048 40.5558 17.0178 40.3464 16.9897 40.1406C16.9616 39.9347 16.893 39.7366 16.7878 39.5576C16.6827 39.3787 16.5432 39.2225 16.3773 39.0983C16.2115 38.974 16.0227 38.8841 15.8219 38.8339C15.6212 38.7836 15.4124 38.774 15.2079 38.8055C15.0034 38.837 14.8072 38.9091 14.6307 39.0175C14.4542 39.126 14.3009 39.2686 14.1799 39.4371C13.4548 40.4163 12.5114 41.2114 11.4253 41.7588C10.3392 42.3063 9.14054 42.5908 7.92528 42.5897C7.92528 40.0217 9.15624 37.7397 11.0651 36.3096Z" fill="#FD461E"/>
</svg>
