<svg width="44" height="44" viewBox="0 0 44 44" fill="none" xmlns="http://www.w3.org/2000/svg">
<path d="M22.1 18.3974C23.954 18.3974 25.466 19.9094 25.466 21.7994C25.466 23.5994 23.954 25.1294 22.1 25.1294C20.246 25.1294 18.734 23.5994 18.734 21.7994C18.734 19.9094 20.246 18.3974 22.1 18.3974ZM13.766 36.1994C14.9 36.8834 17.384 35.8394 20.246 33.1394C19.31 32.0774 18.392 30.9254 17.528 29.7194C16.0776 29.5795 14.6356 29.3632 13.208 29.0714C12.29 32.9234 12.632 35.5694 13.766 36.1994ZM15.044 25.8674L14.522 24.9494C14.324 25.4714 14.126 25.9934 14 26.4974C14.486 26.6054 15.026 26.6954 15.584 26.7854L15.044 25.8674ZM26.816 24.4994L28.274 21.7994L26.816 19.0994C26.276 18.1454 25.7 17.2994 25.178 16.4534C24.206 16.3994 23.18 16.3994 22.1 16.3994C21.02 16.3994 19.994 16.3994 19.022 16.4534C18.5 17.2994 17.924 18.1454 17.384 19.0994L15.926 21.7994L17.384 24.4994C17.924 25.4534 18.5 26.2994 19.022 27.1454C19.994 27.1994 21.02 27.1994 22.1 27.1994C23.18 27.1994 24.206 27.1994 25.178 27.1454C25.7 26.2994 26.276 25.4534 26.816 24.4994ZM22.1 12.4034C21.758 12.7994 21.398 13.2134 21.038 13.6994H23.162C22.802 13.2134 22.442 12.7994 22.1 12.4034ZM22.1 31.1954C22.442 30.7994 22.802 30.3854 23.162 29.8994H21.038C21.398 30.3854 21.758 30.7994 22.1 31.1954ZM30.416 7.39937C29.3 6.71537 26.816 7.75937 23.954 10.4594C24.89 11.5214 25.808 12.6734 26.672 13.8794C28.148 14.0234 29.606 14.2394 30.992 14.5274C31.91 10.6754 31.568 8.02937 30.416 7.39937ZM29.156 17.7314L29.678 18.6494C29.876 18.1274 30.074 17.6054 30.2 17.1014C29.714 16.9934 29.174 16.9034 28.616 16.8134L29.156 17.7314ZM31.766 5.04137C34.412 6.55337 34.7 10.5314 33.584 15.1754C38.156 16.5254 41.45 18.7574 41.45 21.7994C41.45 24.8414 38.156 27.0734 33.584 28.4234C34.7 33.0674 34.412 37.0454 31.766 38.5574C29.138 40.0694 25.556 38.3414 22.1 35.0474C18.644 38.3414 15.062 40.0694 12.416 38.5574C9.788 37.0454 9.5 33.0674 10.616 28.4234C6.044 27.0734 2.75 24.8414 2.75 21.7994C2.75 18.7574 6.044 16.5254 10.616 15.1754C9.5 10.5314 9.788 6.55337 12.416 5.04137C15.062 3.52937 18.644 5.25737 22.1 8.55137C25.556 5.25737 29.138 3.52937 31.766 5.04137ZM31.244 21.7994C31.856 23.1494 32.396 24.4994 32.846 25.8674C36.626 24.7334 38.75 23.1134 38.75 21.7994C38.75 20.4854 36.626 18.8654 32.846 17.7314C32.396 19.0994 31.856 20.4494 31.244 21.7994ZM12.956 21.7994C12.344 20.4494 11.804 19.0994 11.354 17.7314C7.574 18.8654 5.45 20.4854 5.45 21.7994C5.45 23.1134 7.574 24.7334 11.354 25.8674C11.804 24.4994 12.344 23.1494 12.956 21.7994ZM29.156 25.8674L28.616 26.7854C29.174 26.6954 29.714 26.6054 30.2 26.4974C30.074 25.9934 29.876 25.4714 29.678 24.9494L29.156 25.8674ZM23.954 33.1394C26.816 35.8394 29.3 36.8834 30.416 36.1994C31.568 35.5694 31.91 32.9234 30.992 29.0714C29.606 29.3594 28.148 29.5754 26.672 29.7194C25.808 30.9254 24.89 32.0774 23.954 33.1394ZM15.044 17.7314L15.584 16.8134C15.026 16.9034 14.486 16.9934 14 17.1014C14.126 17.6054 14.324 18.1274 14.522 18.6494L15.044 17.7314ZM20.246 10.4594C17.384 7.75937 14.9 6.71537 13.766 7.39937C12.632 8.02937 12.29 10.6754 13.208 14.5274C14.6356 14.2355 16.0776 14.0192 17.528 13.8794C18.392 12.6734 19.31 11.5214 20.246 10.4594Z" fill="#121212"/>
</svg>
