<svg width="44" height="44" viewBox="0 0 44 44" fill="none" xmlns="http://www.w3.org/2000/svg">
<path d="M39.7755 27.7554L35.2755 35.5494C34.3935 37.0974 32.7555 37.9074 31.0995 37.7994H27.4995V41.3994L22.9995 33.2994L27.4995 25.1994V28.7994H32.5755L28.5795 21.8694L36.3735 17.3694L39.6135 22.9854C40.5495 24.3714 40.6755 26.2254 39.7755 27.7554ZM17.0775 5.50742H26.0775C27.8415 5.50742 29.3715 6.53342 30.1095 8.00942L31.9095 11.1414L35.0235 9.34142L30.2715 17.2794L21.0015 17.4414L24.1155 15.6414L21.5775 11.2314L17.5995 18.1614L9.7875 13.6614L13.0275 8.04542C13.7655 6.55142 15.2955 5.50742 17.0775 5.50742ZM9.5895 35.5674L5.0895 27.7734C4.2075 26.2434 4.3335 24.4074 5.2515 23.0214L7.0515 19.9074L3.9375 18.1074L13.1895 18.2514L17.9595 26.2074L14.8455 24.4074L12.3075 28.7994H20.2995V37.7994H13.8195C12.9762 37.8604 12.1327 37.6836 11.3849 37.289C10.6372 36.8945 10.0151 36.298 9.5895 35.5674Z" fill="#121212"/>
</svg>
