<svg width="30" height="30" viewBox="0 0 30 30" fill="none" xmlns="http://www.w3.org/2000/svg">
<path fill-rule="evenodd" clip-rule="evenodd" d="M6.69552 3.94308V4.97268C5.45352 5.15028 4.22473 5.36868 3.01033 5.62428C2.78306 5.67244 2.58321 5.80661 2.4526 5.99873C2.32198 6.19085 2.27072 6.42603 2.30952 6.65508C2.61261 8.43591 3.50202 10.0644 4.83651 11.2819C6.171 12.4995 7.87404 13.2362 9.67513 13.3751C10.634 14.1587 11.7602 14.7114 12.9667 14.9903C12.8521 16.3523 12.3924 17.6627 11.6311 18.7979H10.7443C9.50113 18.7979 8.49433 19.8059 8.49433 21.0479V24.1979H7.59433C6.87824 24.1979 6.19149 24.4823 5.68514 24.9887C5.17879 25.495 4.89432 26.1818 4.89432 26.8979C4.89432 27.3947 5.29752 27.7979 5.79432 27.7979H23.7943C24.033 27.7979 24.2619 27.7031 24.4307 27.5343C24.5995 27.3655 24.6943 27.1366 24.6943 26.8979C24.6943 26.1818 24.4099 25.495 23.9035 24.9887C23.3972 24.4823 22.7104 24.1979 21.9943 24.1979H21.0943V21.0479C21.0943 19.8047 20.0863 18.7979 18.8443 18.7979H17.9575C17.1966 17.6626 16.7374 16.3522 16.6231 14.9903C17.8298 14.711 18.956 14.158 19.9147 13.3739C21.716 13.2352 23.4193 12.4986 24.7541 11.2811C26.0888 10.0635 26.9784 8.4349 27.2815 6.65388C27.32 6.42485 27.2684 6.18982 27.1375 5.99794C27.0067 5.80605 26.8068 5.67217 26.5795 5.62428C25.3591 5.36647 24.1304 5.14915 22.8955 4.97268V3.94188C22.8954 3.72238 22.8151 3.51047 22.6697 3.34605C22.5243 3.18162 22.3238 3.07601 22.1059 3.04908C19.6804 2.74714 17.2385 2.59605 14.7943 2.59668C12.3187 2.59668 9.87913 2.75028 7.48273 3.04908C7.26509 3.07628 7.06488 3.18201 6.91971 3.34641C6.77453 3.51081 6.69439 3.72256 6.69432 3.94188L6.69552 3.94308ZM6.69552 7.09788C6.69552 8.53308 7.06992 9.88188 7.72393 11.0507C6.9128 10.687 6.18753 10.1562 5.59553 9.49304C5.00352 8.8299 4.55808 8.04931 4.28833 7.20228C5.08756 7.04719 5.89016 6.90996 6.69552 6.79068V7.09788ZM22.8955 7.09788V6.79068C23.7043 6.91068 24.5071 7.04748 25.3027 7.20228C25.033 8.04935 24.5876 8.82996 23.9956 9.49311C23.4036 10.1563 22.6783 10.687 21.8671 11.0507C22.5435 9.84317 22.8976 8.4819 22.8955 7.09788Z" fill="#FD461E"/>
</svg>
