<svg width="51" height="51" viewBox="0 0 51 51" fill="none" xmlns="http://www.w3.org/2000/svg">
<path fill-rule="evenodd" clip-rule="evenodd" d="M26.5261 4.85576C26.2364 4.57999 25.8523 4.42627 25.4531 4.42627C25.0539 4.42627 24.6699 4.57999 24.3802 4.85576C19.9663 9.0645 14.0878 11.3724 8.00135 11.2862C7.66977 11.2818 7.34544 11.3837 7.07547 11.5771C6.80551 11.7704 6.60395 12.0452 6.50007 12.3614C5.62254 15.0466 5.17683 17.8551 5.1797 20.6812C5.1797 33.0868 13.6301 43.507 25.0643 46.4612C25.3193 46.5272 25.5869 46.5272 25.842 46.4612C37.2762 43.507 45.7266 33.0868 45.7266 20.6812C45.7266 17.7792 45.2629 14.9815 44.4062 12.3614C44.3027 12.0448 44.1013 11.7696 43.8313 11.5758C43.5613 11.3821 43.2368 11.2799 42.9049 11.2841L42.6076 11.2862C36.3779 11.2862 30.7201 8.84344 26.5261 4.85576ZM32.9595 21.5915C33.0843 21.4246 33.1745 21.2343 33.225 21.0318C33.2755 20.8294 33.2851 20.6189 33.2534 20.4126C33.2217 20.2064 33.1492 20.0086 33.0403 19.8308C32.9313 19.6531 32.7881 19.499 32.619 19.3777C32.4499 19.2563 32.2584 19.1701 32.0556 19.1242C31.8529 19.0782 31.643 19.0734 31.4384 19.1101C31.2338 19.1467 31.0385 19.224 30.8641 19.3375C30.6897 19.451 30.5396 19.5984 30.4227 19.7709L23.694 29.2286L20.3172 25.838C20.0216 25.5614 19.6306 25.4109 19.2265 25.418C18.8225 25.4252 18.4371 25.5895 18.1513 25.8764C17.8656 26.1633 17.7019 26.5503 17.6948 26.956C17.6877 27.3617 17.8376 27.7543 18.1131 28.0511L22.7916 32.7486C22.9517 32.9092 23.1447 33.0329 23.3571 33.1111C23.5696 33.1894 23.7965 33.2202 24.0221 33.2015C24.2476 33.1829 24.4664 33.1151 24.6633 33.003C24.8601 32.8909 25.0303 32.7371 25.162 32.5524L32.9595 21.5915Z" fill="#FD461E"/>
</svg>
