<svg width="246" height="36" viewBox="0 0 246 36" fill="none" xmlns="http://www.w3.org/2000/svg">
<g clip-path="url(#clip0_227_4163)">
<path d="M66.5125 13.9743C66.4325 13.1201 66.0769 12.4562 65.4454 11.9824C64.8219 11.501 63.9304 11.2603 62.7713 11.2603C62.004 11.2603 61.3645 11.3574 60.8528 11.5515C60.3412 11.7456 59.9574 12.0135 59.7017 12.3552C59.446 12.6891 59.3139 13.0735 59.3059 13.5084C59.29 13.8656 59.362 14.1801 59.5218 14.4518C59.6897 14.7236 59.9295 14.9644 60.2412 15.174C60.561 15.3759 60.9448 15.5545 61.3924 15.7098C61.84 15.8651 62.3436 16.001 62.9031 16.1175L65.0135 16.5834C66.2287 16.8397 67.2998 17.1814 68.2271 17.6085C69.1624 18.0356 69.9457 18.5442 70.5772 19.1343C71.2167 19.7245 71.7005 20.404 72.0282 21.1728C72.3559 21.9415 72.5239 22.8035 72.5318 23.7586C72.5239 25.2651 72.1321 26.558 71.3568 27.6374C70.5812 28.7169 69.4662 29.5438 68.0113 30.1184C66.5644 30.693 64.8179 30.9805 62.7713 30.9805C60.717 30.9805 58.9264 30.6814 57.3994 30.0835C55.8728 29.4857 54.6855 28.5771 53.8381 27.3579C52.9908 26.1387 52.5552 24.5973 52.5312 22.7336H58.3681C58.4159 23.5024 58.4745 24.143 58.8504 24.6555C59.2262 25.1681 59.7416 25.5563 60.3973 25.8204C61.0607 26.0844 61.828 26.2164 62.6993 26.2164C63.4988 26.2164 64.1781 26.1115 64.7379 25.9019C65.3053 25.6922 65.7409 25.401 66.0447 25.0283C66.3485 24.6555 66.5046 24.2284 66.5125 23.747C66.5046 23.2966 66.3605 22.9122 66.0809 22.5938C65.801 22.2677 65.3694 21.9881 64.7857 21.7552C64.2103 21.5144 63.4748 21.2931 62.5794 21.0912L60.0135 20.5088C57.8872 20.0352 56.2124 19.2703 54.9893 18.2142C53.7664 17.1503 53.1588 15.7137 53.1667 13.9044C53.1588 12.429 53.5665 11.136 54.3899 10.0256C55.213 8.91514 56.3522 8.04928 57.8072 7.42806C59.2621 6.80684 60.9209 6.49622 62.7832 6.49622C64.6858 6.49622 66.3366 6.81072 67.7354 7.43972C69.1425 8.06094 70.2336 8.93455 71.0089 10.0605C71.7845 11.1865 72.0188 12.4911 72.0347 13.9743H66.5125Z" fill="#121212"/>
<path d="M85.9236 12.7862V16.9795H74.3047V12.7862H85.9236ZM76.7388 8.49976H82.6021V25.0516C82.6021 25.4011 82.6582 25.6845 82.77 25.9019C82.8899 26.1116 83.0619 26.263 83.2857 26.3562C83.5095 26.4416 83.7771 26.4843 84.0889 26.4843C84.313 26.4843 84.5487 26.4649 84.7964 26.4261C85.0524 26.3795 85.244 26.3407 85.3721 26.3096L86.2593 30.4214C85.9794 30.499 85.584 30.5962 85.0723 30.7125C84.5686 30.8291 83.965 30.9027 83.2618 30.934C81.8868 30.996 80.7075 30.8407 79.7244 30.468C78.7492 30.0875 78.0018 29.4973 77.4822 28.6976C76.9705 27.8976 76.7228 26.892 76.7388 25.6806V8.49976Z" fill="#121212"/>
<path d="M97.3323 31.0154C95.4059 31.0154 93.7431 30.6465 92.3443 29.9088C90.9531 29.1633 89.882 28.1033 89.1306 26.7289C88.3872 25.3467 88.0156 23.7043 88.0156 21.8018C88.0156 19.9536 88.3912 18.3384 89.1426 16.9562C89.8939 15.5662 90.9531 14.4868 92.3201 13.718C93.687 12.9415 95.298 12.5532 97.1524 12.5532C98.4635 12.5532 99.6625 12.7512 100.75 13.1473C101.837 13.5433 102.776 14.1296 103.567 14.9061C104.359 15.6826 104.974 16.6417 105.414 17.7832C105.854 18.9169 106.074 20.2176 106.074 21.6853V23.1063H90.0659V19.7983H100.618C100.61 19.1926 100.462 18.6529 100.174 18.1792C99.8863 17.7055 99.4905 17.3367 98.9871 17.0727C98.4914 16.8009 97.92 16.665 97.2722 16.665C96.6168 16.665 96.0294 16.8086 95.5098 17.096C94.9902 17.3755 94.5785 17.7599 94.2747 18.2491C93.9709 18.7306 93.8111 19.278 93.7949 19.8915V23.2578C93.7949 23.9877 93.943 24.6284 94.2388 25.1797C94.5343 25.7233 94.954 26.1465 95.4978 26.4493C96.0414 26.7522 96.6888 26.9036 97.4402 26.9036C97.9598 26.9036 98.4313 26.8337 98.855 26.6939C99.2787 26.5542 99.6425 26.3484 99.9463 26.0766C100.25 25.8048 100.478 25.4709 100.63 25.0749L105.778 25.0615C105.554 26.2341 105.298 27.42 104.539 28.2896C103.787 29.1517 102.8 29.8235 101.577 30.3048C100.354 30.7786 98.939 31.0154 97.3323 31.0154Z" fill="#121212"/>
<path d="M109.064 30.6776V12.7862H114.928V30.6776H109.064ZM112.002 10.7013C111.179 10.7013 110.471 10.4372 109.88 9.90917C109.288 9.37335 108.992 8.72884 108.992 7.97558C108.992 7.2301 109.288 6.59335 109.88 6.06531C110.471 5.52949 111.179 5.2616 112.002 5.2616C112.833 5.2616 113.541 5.52949 114.124 6.06531C114.716 6.59335 115.011 7.2301 115.011 7.97558C115.011 8.72884 114.716 9.37335 114.124 9.90917C113.541 10.4372 112.833 10.7013 112.002 10.7013Z" fill="#121212"/>
<path d="M124.52 20.4739V30.6775H118.656V12.7862H124.232V16.0709H124.436C124.844 14.976 125.539 14.1179 126.522 13.4967C127.505 12.8677 128.676 12.5532 130.035 12.5532C131.331 12.5532 132.454 12.8367 133.405 13.4035C134.364 13.9626 135.108 14.7469 135.635 15.7564C136.171 16.7582 136.435 17.9307 136.427 19.2741V30.6775H130.563V20.3924C130.571 19.3984 130.311 18.6219 129.784 18.0627C129.264 17.5036 128.541 17.2241 127.613 17.2241C126.998 17.2241 126.454 17.3561 125.983 17.6201C125.519 17.8764 125.159 18.2452 124.904 18.7267C124.656 19.2081 124.528 19.7905 124.52 20.4739Z" fill="#121212"/>
<path d="M145.926 20.4739V30.6775H140.062V12.7862H145.638V16.0709H145.842C146.25 14.976 146.945 14.1179 147.928 13.4967C148.912 12.8677 150.083 12.5532 151.442 12.5532C152.737 12.5532 153.86 12.8367 154.811 13.4035C155.77 13.9626 156.514 14.7469 157.041 15.7564C157.577 16.7582 157.841 17.9307 157.833 19.2741V30.6775H151.969V20.3924C151.977 19.3984 151.717 18.6219 151.19 18.0627C150.67 17.5036 149.947 17.2241 149.02 17.2241C148.404 17.2241 147.86 17.3561 147.389 17.6201C146.925 17.8764 146.566 18.2452 146.31 18.7267C146.062 19.2081 145.934 19.7905 145.926 20.4739Z" fill="#121212"/>
<path d="M168.719 30.6775V6.82239H174.654V25.9951H184.87V30.6775H168.719Z" fill="#121212"/>
<path d="M193.133 30.9805C191.958 30.9805 190.915 30.7902 190.004 30.4097C189.101 30.0215 188.385 29.4391 187.857 28.6624C187.338 27.8781 187.078 26.8958 187.078 25.7155C187.078 24.7216 187.258 23.8829 187.618 23.1995C187.977 22.5162 188.473 21.961 189.104 21.5339C189.736 21.1068 190.463 20.7845 191.287 20.5671C192.11 20.3419 192.99 20.1905 193.925 20.1128C194.972 20.0196 195.815 19.9226 196.455 19.8216C197.094 19.7129 197.558 19.5615 197.846 19.3673C198.142 19.1654 198.289 18.882 198.289 18.517V18.4588C198.289 17.8608 198.078 17.3988 197.654 17.0727C197.23 16.7465 196.659 16.5835 195.939 16.5835C195.164 16.5835 194.54 16.7465 194.069 17.0727C193.597 17.3988 193.297 17.8492 193.169 18.4238H187.776C187.936 17.3367 188.333 16.1796 188.997 15.3254C189.668 14.4635 190.587 13.7879 191.754 13.2987C192.929 12.8017 194.341 12.5532 195.987 12.5532C197.162 12.5532 198.246 12.6891 199.237 12.9609C200.228 13.2249 201.091 13.6132 201.827 14.1257C202.562 14.6305 203.13 15.2517 203.529 15.9894C203.937 16.7271 204.141 17.5697 204.141 18.517V30.6775H198.625V28.1849H198.481C198.154 28.7906 197.734 29.3032 197.222 29.7224C196.719 30.1417 196.123 30.4563 195.436 30.6659C194.756 30.8755 193.989 30.9805 193.133 30.9805ZM194.944 27.253C195.576 27.253 196.143 27.1288 196.647 26.8803C197.158 26.6318 197.566 26.2902 197.87 25.8553C198.173 25.4127 198.326 24.9001 198.326 24.3177V22.6171C198.158 22.7026 197.954 22.7802 197.714 22.8501C197.482 22.92 197.226 22.986 196.947 23.0481C196.667 23.1102 196.379 23.1646 196.083 23.2112C195.787 23.2578 195.504 23.3005 195.232 23.3393C194.68 23.4247 194.208 23.5567 193.817 23.7353C193.433 23.9139 193.137 24.1469 192.929 24.4342C192.73 24.7138 192.63 25.0477 192.63 25.436C192.63 26.0261 192.846 26.4765 193.277 26.7871C193.717 27.0977 194.272 27.253 194.944 27.253Z" fill="#121212"/>
<path d="M207.727 30.6775V6.82239H213.59V15.8496H213.71C213.95 15.306 214.289 14.7819 214.729 14.2771C215.177 13.7724 215.744 13.3608 216.432 13.0424C217.127 12.7163 217.959 12.5532 218.926 12.5532C220.205 12.5532 221.4 12.8794 222.511 13.5317C223.63 14.1839 224.533 15.1896 225.221 16.5485C225.908 17.9075 226.252 19.6391 226.252 21.7435C226.252 23.7703 225.92 25.467 225.257 26.8337C224.601 28.2005 223.714 29.2254 222.595 29.9088C221.484 30.5922 220.249 30.934 218.89 30.934C217.963 30.934 217.159 30.7864 216.48 30.4912C215.8 30.1962 215.229 29.808 214.765 29.3264C214.309 28.8449 213.958 28.3287 213.71 27.7773H213.53V30.6775H207.727ZM213.47 21.7319C213.47 22.6948 213.602 23.5335 213.866 24.2479C214.138 24.9623 214.525 25.5175 215.029 25.9135C215.54 26.3018 216.152 26.4959 216.863 26.4959C217.583 26.4959 218.194 26.3018 218.698 25.9135C219.202 25.5175 219.581 24.9623 219.837 24.2479C220.101 23.5335 220.233 22.6948 220.233 21.7319C220.233 20.769 220.101 19.9342 219.837 19.2275C219.581 18.5209 219.202 17.9734 218.698 17.5852C218.202 17.1969 217.591 17.0028 216.863 17.0028C216.144 17.0028 215.533 17.193 215.029 17.5735C214.525 17.954 214.138 18.4976 213.866 19.2043C213.602 19.9109 213.47 20.7534 213.47 21.7319Z" fill="#121212"/>
<path d="M245.431 18.3889H240.019C239.963 18.0161 239.811 17.6861 239.563 17.3988C239.316 17.1037 238.992 16.8746 238.592 16.7116C238.2 16.5407 237.745 16.4553 237.225 16.4553C236.546 16.4553 235.966 16.5873 235.487 16.8513C235.015 17.1154 234.783 17.4726 234.791 17.923C234.783 18.2724 234.927 18.5752 235.223 18.8315C235.527 19.0878 236.066 19.2936 236.841 19.4489L240.391 20.1011C242.229 20.4428 243.596 21.0097 244.492 21.8018C245.395 22.5938 245.851 23.6422 245.859 24.9467C245.851 26.1737 245.475 27.2414 244.731 28.1501C243.996 29.0586 242.989 29.7651 241.71 30.2699C240.431 30.767 238.968 31.0154 237.321 31.0154C234.691 31.0154 232.617 30.4912 231.098 29.443C229.587 28.3868 228.724 26.9735 228.508 25.203H234.327C234.733 25.9059 234.759 26.2125 235.295 26.5542C235.83 26.8958 236.514 27.0667 237.345 27.0667C238.096 27.0667 238.708 26.9308 239.18 26.659C239.651 26.3872 239.891 26.0261 239.899 25.5757C239.891 25.1719 239.707 24.8497 239.347 24.609C238.988 24.3604 238.424 24.1663 237.657 24.0266L234.443 23.4325C232.597 23.1063 231.222 22.5045 230.319 21.6271C229.415 20.7418 228.968 19.6158 228.976 18.2491C228.968 17.0532 229.295 16.0321 229.959 15.1857C230.622 14.3315 231.565 13.6792 232.789 13.2288C234.012 12.7784 235.454 12.5532 237.117 12.5532C239.611 12.5532 241.578 13.0618 243.017 14.0791C244.456 15.0886 245.28 16.6184 245.431 18.3889Z" fill="#121212"/>
<path d="M19.8792 4.98462L3.92956 19.5581C3.66457 19.8002 3.69759 20.2186 3.99746 20.4186L19.8792 31.0079" stroke="#FD461E" stroke-width="10" stroke-linecap="square"/>
<path d="M31.7182 25.5366C35.9808 25.5366 39.4363 22.1757 39.4363 18.0298C39.4363 13.884 35.9808 10.5231 31.7182 10.5231C27.4555 10.5231 24 13.884 24 18.0298C24 22.1757 27.4555 25.5366 31.7182 25.5366Z" fill="#FD461E"/>
</g>
<defs>
<clipPath id="clip0_227_4163">
<rect width="246" height="36" fill="white"/>
</clipPath>
</defs>
</svg>
