<svg width="32" height="33" viewBox="0 0 32 33" fill="none" xmlns="http://www.w3.org/2000/svg">
<path opacity="0.8" d="M16 0.808594C7.16479 0.808594 0 7.97339 0 16.8086C0 25.6438 7.16479 32.8086 16 32.8086C24.8352 32.8086 32 25.6438 32 16.8086C32 7.97339 24.8352 0.808594 16 0.808594ZM23.3054 13.2837C23.3125 13.4412 23.3159 13.5994 23.3159 13.7583C23.3159 18.6111 19.6221 24.207 12.8669 24.2073H12.8672H12.8669C10.793 24.2073 8.86304 23.5994 7.23779 22.5576C7.52515 22.5916 7.81763 22.6084 8.11377 22.6084C9.83447 22.6084 11.418 22.0215 12.675 21.0364C11.0674 21.0066 9.71191 19.9448 9.24414 18.4856C9.46802 18.5286 9.69824 18.552 9.93433 18.552C10.2695 18.552 10.5942 18.5068 10.9028 18.4226C9.22241 18.0862 7.95654 16.6011 7.95654 14.8228C7.95654 14.8062 7.95654 14.7913 7.95703 14.7759C8.4519 15.051 9.01782 15.2166 9.62036 15.2351C8.63428 14.5771 7.98608 13.4524 7.98608 12.1782C7.98608 11.5054 8.16797 10.875 8.4834 10.3323C10.2944 12.5544 13.001 14.0159 16.0532 14.1694C15.9902 13.9004 15.9578 13.6201 15.9578 13.332C15.9578 11.3047 17.6025 9.65991 19.6306 9.65991C20.687 9.65991 21.6411 10.1064 22.3113 10.8203C23.1479 10.6553 23.9336 10.3496 24.6433 9.92896C24.3687 10.7861 23.7866 11.5054 23.0283 11.9602C23.7712 11.8713 24.4792 11.6743 25.1372 11.3818C24.6458 12.1184 24.0225 12.7654 23.3054 13.2837Z" fill="#121212"/>
</svg>
